<?xml version="1.0" encoding="UTF-8"?>
<svg width="103px" height="45px" viewBox="0 0 103 45" version="1.1" xmlns="http://www.w3.org/2000/svg" xmlns:xlink="http://www.w3.org/1999/xlink">
    <!-- Generator: Sketch 62 (91390) - https://sketch.com -->
    <title>air-asia</title>
    <desc>Created with Sketch.</desc>
    <g id="Page-7" stroke="none" stroke-width="1" fill="none" fill-rule="evenodd">
        <g id="assets" transform="translate(-1651.000000, -473.000000)" fill="#000000">
            <path d="M1677.361,473.864827 L1677.43934,473.867287 C1678.38551,473.952653 1678.2376,475.016556 1679.07443,475.97869 C1679.91091,476.941176 1680.02184,477.524806 1679.03056,480.072917 C1677.0004,485.291014 1677.16458,484.077015 1675.20979,492.221022 C1678.78464,491.611817 1681.90462,491.25395 1682.19512,491.21109 C1683.18835,491.064698 1684.88377,491.755564 1683.9905,493.749147 C1683.9905,493.749147 1683.04044,495.466878 1682.67616,496.19884 C1681.99998,497.421305 1681.13962,499.242392 1680.59913,500.472442 C1680.26899,501.198584 1680.12215,501.756991 1680.08977,502.161599 C1680.06837,502.431631 1680.1586,502.58067 1680.36612,502.541867 C1680.64229,502.490541 1681.04107,502.183117 1681.5253,501.661219 C1681.99485,501.095227 1683.58553,499.744183 1686.43111,494.793296 L1686.43111,494.793296 L1687.18461,493.195325 C1687.42682,492.718227 1687.77535,491.871444 1687.83975,491.493998 C1687.91971,490.914425 1687.93174,490.763799 1688.39881,490.459726 C1689.15338,489.967812 1690.50593,489.560736 1691.28685,490.086337 C1692.03115,490.586188 1691.83654,491.497702 1691.22723,492.612048 C1693.70145,489.727059 1694.33978,489.611003 1694.89159,489.508352 C1695.92852,489.314338 1698.27695,490.775264 1697.15033,492.132657 C1695.99398,493.525502 1694.68159,493.244887 1692.61764,494.135765 C1691.45546,494.637732 1690.55794,495.714863 1689.28341,497.613203 C1687.65805,500.075242 1686.92224,502.485073 1686.77681,504.305279 C1686.7685,504.838465 1686.73205,505.110966 1686.45942,505.294927 C1683.73326,507.133475 1682.89802,505.748038 1682.96224,504.065054 C1682.97746,503.666796 1683.12271,503.032722 1683.35695,502.260017 C1681.26788,505.509401 1679.41005,507.140707 1678.2008,507.366645 C1676.57721,507.669483 1675.65952,506.509984 1675.83202,504.351842 C1675.90987,503.374364 1676.2055,502.222802 1676.73024,500.763286 C1677.29002,499.297422 1678.16577,497.273855 1678.97801,495.627733 C1679.18713,495.195082 1679.38422,494.785888 1679.55813,494.412146 C1678.32924,494.660485 1676.57473,495.031581 1674.5168,495.514323 C1674.48849,495.58505 1674.46302,495.62932 1674.44179,495.635317 C1673.56833,499.850715 1673.49597,501.445687 1673.02483,505.127193 C1672.8189,506.737686 1673.12285,508.471114 1671.26979,508.73903 C1669.4162,509.006769 1668.79521,507.037703 1668.77982,505.348722 C1668.7639,503.632579 1669.06431,501.568621 1670.24613,496.577344 C1668.31523,497.087248 1666.27817,497.666998 1664.25775,498.311301 C1664.23245,498.353102 1664.21617,498.378148 1664.21264,498.379382 C1660.86744,504.711297 1657.55744,512.5537 1657.01182,515.083468 C1656.57288,517.117617 1655.68227,517.743577 1654.37607,517.151305 C1653.0697,516.558504 1652.30859,515.201816 1652.78662,513.685508 C1653.64132,510.973014 1656.2631,504.864392 1658.59579,500.486023 C1658.57562,500.494489 1658.59632,500.431699 1658.64674,500.318289 C1656.94371,501.008802 1655.35125,501.747291 1653.96367,502.529168 C1653.05147,503.042952 1651.89707,502.575202 1651.67521,501.516943 C1651.51758,500.764345 1651.17311,499.287192 1652.95098,498.482386 C1655.62654,497.271562 1658.5282,496.24364 1661.42916,495.37622 C1667.58137,484.67546 1675.22961,473.667629 1677.43934,473.867287 Z M1719.80445,473.864873 L1719.88261,473.86734 C1720.82878,473.952706 1720.68088,475.016433 1721.51753,475.978743 C1722.35401,476.941053 1722.46494,477.524859 1721.47365,480.072793 C1719.44244,485.294242 1719.60786,484.075657 1717.64936,492.236772 C1717.84291,492.205906 1718.03309,492.176099 1718.21815,492.147702 C1719.01465,492.02512 1721.59927,491.711699 1721.50267,492.826046 C1721.34592,494.640783 1720.68778,494.61662 1718.37225,495.12476 C1717.93933,495.219827 1717.47474,495.324066 1716.98874,495.435536 C1716.94893,495.553531 1716.91337,495.627257 1716.88524,495.63537 C1716.01143,499.850768 1715.93925,501.44574 1715.46793,505.127246 C1715.26235,506.737563 1715.5663,508.471167 1713.71271,508.739083 C1711.8593,509.006822 1711.21867,507.037756 1711.22292,505.348598 C1711.23017,502.367483 1712.69189,496.524484 1712.69595,496.487621 C1710.80964,496.981123 1708.78638,497.553993 1706.76649,498.200237 C1704.37453,502.411577 1700.00054,512.553753 1699.45492,515.083521 C1699.01616,517.11767 1698.12537,517.74363 1696.81917,517.151182 C1695.51279,516.558557 1694.78548,515.211923 1695.2299,513.685561 C1696.44994,509.496267 1701.04915,500.404413 1701.12398,500.243382 C1699.42131,500.948887 1697.82974,501.70907 1696.45525,502.520578 C1695.60214,503.024133 1694.5109,502.544918 1694.29116,501.486659 C1694.13494,500.733532 1693.79526,499.255497 1695.4599,498.470622 C1698.12095,497.216409 1701.0242,496.171025 1703.91348,495.304488 C1710.05896,484.626304 1717.67766,473.668035 1719.88261,473.86734 Z M1730.7169,492.672069 C1730.50371,493.614625 1729.99772,494.169329 1729.65131,494.541483 C1729.39973,494.812398 1728.67507,494.889298 1728.44932,494.558768 C1727.90175,493.756432 1727.5787,492.685474 1725.99084,493.32625 C1724.71649,493.840916 1724.6436,495.574697 1724.91729,496.418129 C1725.36295,497.771642 1727.16842,498.794096 1727.15321,500.745173 C1727.11322,505.787952 1722.67802,506.791005 1721.15456,506.9538 C1719.95841,507.081497 1717.34707,506.48993 1716.91043,504.404102 C1716.75651,503.728757 1717.7393,501.916841 1717.94612,501.601657 C1718.29961,501.062474 1718.84894,501.381892 1719.03524,501.655099 C1719.44587,502.25619 1721.64728,504.222964 1722.92217,502.951466 C1723.74007,502.135725 1722.47102,501.062827 1721.93973,500.190292 C1719.97557,496.967012 1722.62494,493.231183 1723.46354,492.406799 C1725.27379,490.627866 1726.54549,490.468775 1727.44247,490.442494 C1730.02037,490.357834 1730.91169,491.810823 1730.7169,492.672069 Z M1746.46062,487.084869 C1747.47066,486.945355 1748.29829,487.42457 1748.68769,488.392171 C1748.96351,489.177928 1749.02402,489.235427 1749.70427,489.537207 C1750.77534,489.982028 1751.13715,490.360885 1751.06408,490.931287 C1751.01259,491.333778 1750.86947,491.650373 1750.17983,492.767189 C1749.6933,493.624908 1749.16166,494.625315 1748.78234,495.398726 C1747.97382,497.046788 1747.52621,498.168189 1748.31067,498.452332 C1748.60861,498.559921 1749.15564,498.263785 1749.84386,497.515067 C1750.60267,496.689272 1751.13272,495.874237 1751.72487,494.910869 C1752.33312,493.921573 1753.61455,494.248751 1753.2731,495.161323 C1752.97587,495.952548 1752.40973,497.230925 1750.98977,498.97564 C1749.2342,501.195162 1747.62723,502.281112 1746.16517,502.482534 C1744.98104,502.646211 1744.15784,502.133661 1743.95544,501.040832 L1743.95544,501.040832 L1743.88113,500.821244 C1743.87193,500.624231 1743.78029,500.538336 1743.67626,500.552446 C1743.57152,500.566909 1743.49386,500.64328 1743.29783,500.835178 C1741.82479,502.456254 1740.67765,503.454721 1739.31961,503.642385 C1737.27636,503.924588 1736.08322,502.275115 1736.37584,499.882392 C1735.83093,500.723884 1735.25735,501.522869 1734.74552,502.110908 C1733.14228,503.946987 1731.83679,505.112307 1730.61781,505.280041 C1728.98148,505.506508 1728.12589,504.303091 1728.40118,502.156237 C1728.52555,501.183345 1728.87621,500.047127 1729.47013,498.614069 C1730.09855,497.175719 1731.07055,495.196422 1731.9601,493.590867 C1732.67592,492.272806 1733.36237,490.782601 1733.46179,490.274461 C1733.54831,489.867207 1733.59148,489.795246 1733.89136,489.589414 C1734.26943,489.306507 1735.02382,488.978799 1735.47921,488.941584 C1736.6368,488.847575 1738.16963,489.714642 1737.16826,491.509801 L1737.16826,491.509801 L1736.7732,492.190614 C1736.72119,492.329599 1736.02589,493.622791 1735.62694,494.33694 C1734.89308,495.525364 1733.94709,497.303592 1733.34892,498.506479 C1732.98393,499.216747 1732.81073,499.767747 1732.75907,500.170062 C1732.72457,500.43833 1732.80772,500.592131 1733.01666,500.563029 C1733.29531,500.524931 1733.70824,500.236732 1734.21671,499.738469 C1734.73402,499.172653 1735.05549,498.799088 1736.21467,497.221577 L1736.21467,497.221577 L1736.62742,496.670577 C1736.95543,496.219406 1739.60587,492.658012 1740.38661,491.780186 C1742.5169,489.155176 1744.92337,487.29705 1746.46062,487.084869 Z M1746.68978,490.237508 L1746.59898,490.245182 C1746.11174,490.312029 1745.03801,491.218604 1744.01754,492.513207 C1742.51443,494.368687 1740.50143,498.111219 1740.34274,499.351675 C1740.27816,499.855583 1740.47472,500.190698 1740.82272,500.142724 C1741.37984,500.065294 1742.34458,499.207752 1743.37408,497.846302 C1744.76379,496.072308 1746.91991,492.013356 1747.0618,490.906594 C1747.12655,490.403392 1746.98201,490.192446 1746.59898,490.245182 Z M1675.08082,480.603986 C1672.29769,484.377384 1669.312,489.18523 1666.61167,493.981788 C1668.17741,493.602931 1669.70069,493.26958 1671.14294,492.978029 C1672.30318,488.537576 1673.69571,483.990061 1675.08082,480.603986 Z M1717.52392,480.604039 C1714.75282,484.361034 1711.78057,489.144364 1709.08944,493.920638 C1710.66067,493.547602 1712.17599,493.226773 1713.59294,492.951979 C1714.75176,488.519815 1716.14182,483.983412 1717.52392,480.604039 Z M1685.49901,483.831182 C1686.83068,483.582491 1687.82798,484.416751 1687.72608,485.694246 C1687.62417,486.971741 1686.46145,488.20814 1685.12995,488.456654 C1683.79757,488.704992 1682.80063,487.870555 1682.90253,486.593237 C1683.00462,485.315566 1684.16698,484.078461 1685.49901,483.831182 Z M1738.12368,482.0229 C1739.45571,481.774561 1740.4523,482.608998 1740.3504,483.88667 C1740.24885,485.163812 1739.08631,486.400387 1737.75428,486.648372 C1736.42278,486.896887 1735.42566,486.062802 1735.52756,484.785131 C1735.62947,483.507989 1736.79201,482.270708 1738.12368,482.0229 Z" id="air-asia"></path>
        </g>
    </g>
</svg>