<?xml version="1.0" encoding="UTF-8"?>
<svg width="431px" height="431px" viewBox="0 0 431 431" version="1.1" xmlns="http://www.w3.org/2000/svg" xmlns:xlink="http://www.w3.org/1999/xlink">
    <!-- Generator: Sketch 62 (91390) - https://sketch.com -->
    <title>hero-image</title>
    <desc>Created with Sketch.</desc>
    <defs>
        <polygon id="path-1" points="0.0859630058 0.451976879 215.547836 0.451976879 215.547836 215.913787 0.0859630058 215.913787"></polygon>
        <polygon id="path-3" points="6.24277456e-05 0.451976879 215.461935 0.451976879 215.461935 215.914099 6.24277456e-05 215.914099"></polygon>
    </defs>
    <g id="Page-7" stroke="none" stroke-width="1" fill="none" fill-rule="evenodd">
        <g id="assets" transform="translate(-100.000000, -100.000000)">
            <g id="hero-image" transform="translate(100.000000, 100.000000)">
                <path d="M163.13252,181 C177.26346,181.035823 192.040586,185.65962 205,194.045244 L192.954764,213.833696 C184.425357,208.080165 176.053739,204.783338 167.180576,204.760244 C147.95591,204.712183 134.776718,218.273988 134.726626,237.928869 C134.67716,257.583749 147.787476,271.211715 167.012141,271.259776 C175.884679,271.28287 184.273202,268.027862 192.832665,262.31615 L204.777091,282.165145 C191.775098,290.485856 176.974805,295.034753 162.843865,295 C128.009295,294.911793 103.915692,271.101238 104,237.851472 C104.084126,204.438176 128.29795,180.912239 163.13252,181" id="Fill-1" fill="#373A3B"></path>
                <polygon id="Fill-3" fill="#373A3B" points="247.858256 236.642847 210.247077 183 243.234643 183.083364 267.106944 218.080055 291.15686 183.204055 324.308907 183.286797 286.261822 236.739276 326 293 292.191904 292.91477 267.013133 255.302067 241.643615 292.787857 208 292.703249"></polygon>
                <path d="M117.880428,138 C120.958986,138.008195 124.177364,139.021772 127,140.860995 L124.376485,145.200333 C122.518863,143.938686 120.694949,143.215776 118.762423,143.210765 C114.574661,143.200115 111.703338,146.174444 111.693351,150.484966 C111.682115,154.795488 114.538457,157.783599 118.725596,157.794248 C120.658121,157.798633 122.485156,157.08512 124.349644,155.83287 L126.951312,160.185363 C124.119314,162.010178 120.895941,163.008094 117.817384,163 C110.2296,162.981157 104.981945,157.759168 105,150.467426 C105.018773,143.139977 110.293269,137.981258 117.880428,138" id="Fill-5" fill="#373A3B"></path>
                <path d="M140.963809,157.863801 C144.723771,157.873176 147.356611,154.826181 147.367159,150.516287 C147.377644,146.206393 144.760888,143.146243 141.000927,143.136202 C137.240346,143.12745 134.643387,146.173819 134.633453,150.483713 C134.622354,154.794233 137.203848,157.853757 140.963809,157.863801 M141.013299,138 C148.639625,138.019474 154.018511,143.205755 154,150.533201 C153.982012,157.860647 148.577763,163.019365 140.950818,163 C133.324492,162.980526 127.982105,157.794871 128,150.466799 C128.017985,143.139353 133.386973,137.980635 141.013299,138" id="Fill-7" fill="#373A3B"></path>
                <polygon id="Fill-9" fill="#373A3B" points="157.060319 138 163.271944 138.015534 174.033344 153.11355 174.07089 138.043494 180 138.059028 179.940297 162 173.728672 161.984466 163.002355 146.88645 162.964809 161.957127 157 161.941594"></polygon>
                <polygon id="Fill-11" fill="#373A3B" points="185.060319 138 191.271328 138.015534 202.033344 153.11355 202.07089 138.042873 208 138.058406 207.940297 162 201.728672 161.984466 191.002355 146.88645 190.964809 161.957127 185 161.941594"></polygon>
                <polygon id="Fill-13" fill="#373A3B" points="213.060495 138 230.476128 138.043519 230.463031 142.891514 219.592682 142.864159 219.580833 147.355922 229.308017 147.38079 229.295544 152.085794 219.569607 152.061548 219.55651 157.123407 231 157.152627 230.986903 162 213 161.954616"></polygon>
                <path d="M246.880428,138 C249.958362,138.008195 253.177364,139.021772 256,140.860995 L253.376485,145.200333 C251.518239,143.938686 249.694949,143.215776 247.761799,143.210765 C243.574661,143.200115 240.703338,146.174444 240.692726,150.484966 C240.682115,154.794862 243.537833,157.783599 247.725596,157.794248 C249.658121,157.798633 251.485156,157.08512 253.349644,155.83287 L255.951312,160.185363 C253.119314,162.010178 249.895317,163.008094 246.817384,163 C239.2296,162.981157 233.981945,157.759168 234,150.467426 C234.018773,143.139977 239.292644,137.981258 246.880428,138" id="Fill-15" fill="#373A3B"></path>
                <polygon id="Fill-17" fill="#373A3B" points="264.813736 143.010599 258 142.993806 258.012797 138 278 138.051624 277.987203 143.044808 271.208203 143.027393 271.161279 162 264.766812 161.983829"></polygon>
                <polygon id="Fill-19" fill="#373A3B" points="281.060495 138 298.475504 138.043519 298.463031 142.892136 287.592682 142.864159 287.580833 147.356543 297.308017 147.38079 297.295544 152.085794 287.569607 152.061548 287.55651 157.124029 299 157.152627 298.986903 162 281 161.955238"></polygon>
                <path d="M312.714048,144.018499 L309.575146,144.01041 L309.539689,157.995758 L312.67859,158.003869 C316.566449,158.013179 319.320297,155.13 319.330899,151.027972 C319.340825,146.925321 316.601906,144.028454 312.714048,144.018499 L312.714048,144.018499 Z M303.06034,139 L313.510903,139.026132 C320.96626,139.044797 326.01861,143.909617 326,151.04477 C325.982531,158.108373 320.905299,163.018612 313.451186,163 L303,162.973815 L303.06034,139 Z" id="Fill-21" fill="#373A3B"></path>
                <g id="Group-25" transform="translate(215.000000, 0.000000)">
                    <mask id="mask-2" fill="white">
                        <use xlink:href="#path-1"></use>
                    </mask>
                    <g id="Clip-24"></g>
                    <path d="M170.994402,215.913787 L215.547836,215.913787 C215.547836,96.9183884 119.08261,0.451290173 0.0859630058,0.451290173 L0.0859630058,45.005348 C94.4767145,45.005348 170.994402,121.524284 170.994402,215.913787" id="Fill-23" fill="#148997" mask="url(#mask-2)"></path>
                </g>
                <g id="Group-28">
                    <mask id="mask-4" fill="white">
                        <use xlink:href="#path-3"></use>
                    </mask>
                    <g id="Clip-27"></g>
                    <path d="M215.461935,45.0056601 L215.461935,0.451602312 C96.4665364,0.451602312 6.24277456e-05,96.9180763 6.24277456e-05,215.914099 L44.5541202,215.914099 C44.5541202,121.523972 121.072432,45.0056601 215.461935,45.0056601" id="Fill-26" fill="#FF5A00" mask="url(#mask-4)"></path>
                </g>
                <path d="M430,216 L385.542073,216 C385.542073,310.187789 309.187789,386.54145 215,386.54145 L215,431 C333.741561,431 430,334.741561 430,216" id="Fill-29" fill="#26CAD3"></path>
                <path d="M44.4585499,216 L0,216 C0,334.741561 96.2590616,431 215,431 L215,386.54145 C120.812211,386.54145 44.4585499,310.187789 44.4585499,216" id="Fill-31" fill="#B8DBD2"></path>
            </g>
        </g>
    </g>
</svg>