<?xml version="1.0" encoding="UTF-8"?>
<svg width="48px" height="48px" viewBox="0 0 48 48" version="1.1" xmlns="http://www.w3.org/2000/svg" xmlns:xlink="http://www.w3.org/1999/xlink">
    <!-- Generator: Sketch 62 (91390) - https://sketch.com -->
    <title>ic-customer-retention</title>
    <desc>Created with Sketch.</desc>
    <g id="Page-7" stroke="none" stroke-width="1" fill="none" fill-rule="evenodd">
        <g id="assets" transform="translate(-924.000000, -369.000000)" stroke-width="1.778">
            <g id="ic-customer-retention" transform="translate(924.000000, 369.000000)">
                <line x1="7.0302" y1="17.5378" x2="14.0592" y2="24.0118" id="Stroke-1" stroke="#FF5A00"></line>
                <line x1="24.2358" y1="33.384" x2="31.3358" y2="39.922" id="Stroke-2" stroke="#FF5A00"></line>
                <path d="M24.934,46.3684 L18.134,39.9974 C18.131,39.9044 18.129,39.8504 18.126,39.7584 L33.236,23.4204 C33.786,22.8504 34.367,22.2084 35.027,21.3574 C36.342,19.6604 37.366,15.8954 33.801,12.7364 C30.355,9.6804 27.276,10.7374 25.527,11.7004 C24.966,12.0094 24.247,12.7434 23.793,13.1964 L7.917,30.4354 C7.83,30.4394 7.78,30.4414 7.692,30.4444 L0.913,24.2134 C0.91,24.1204 0.908,24.0694 0.904,23.9764 L18.042,5.3354 C18.184,5.1984 18.318,5.0684 18.459,4.9304 C19.374,4.1474 22.83,1.4364 27.495,0.9664 C32.313,0.4804 37.044,2.3094 40.633,5.6414 C44.059,8.8224 46.458,13.4514 46.32,17.3354 C46.141,22.3444 45.004,24.1624 42.962,26.7064 C41.456,28.5834 26.504,44.9614 25.168,46.3644 C25.105,46.4314 24.999,46.4324 24.934,46.3684 Z" id="Stroke-3" stroke="#373A3B"></path>
            </g>
        </g>
    </g>
</svg>