<?xml version="1.0" encoding="UTF-8"?>
<svg width="47px" height="47px" viewBox="0 0 47 47" version="1.1" xmlns="http://www.w3.org/2000/svg" xmlns:xlink="http://www.w3.org/1999/xlink">
    <!-- Generator: Sketch 62 (91390) - https://sketch.com -->
    <title>ic-customer-service</title>
    <desc>Created with Sketch.</desc>
    <g id="Page-7" stroke="none" stroke-width="1" fill="none" fill-rule="evenodd" stroke-linecap="round" stroke-linejoin="round">
        <g id="assets" transform="translate(-847.000000, -369.000000)" stroke-width="1.778">
            <g id="ic-customer-service" transform="translate(847.000000, 369.000000)">
                <path d="M27.6035,15.0952 C27.6575,17.4792 25.9185,19.5042 23.6065,19.8262 C23.4185,19.8632 23.2305,19.8812 23.0335,19.8812 C22.7645,19.8892 22.5045,19.8712 22.2535,19.8262 C20.0315,19.5132 18.3025,17.6402 18.2485,15.3192 C18.1855,12.7392 20.2285,10.5962 22.8185,10.5342 C25.3995,10.4712 27.5415,12.5142 27.6035,15.0952 Z" id="Stroke-1" stroke="#373A3B"></path>
                <path d="M23.6069,19.8267 C23.4189,19.8627 23.2309,19.8807 23.0339,19.8807 C22.7649,19.8897 22.5049,19.8717 22.2539,19.8267 L23.6069,19.8267 Z" id="Stroke-3" stroke="#373A3B"></path>
                <path d="M30.7227,25.6963 L30.7227,33.3313 C30.7227,33.6273 30.4897,33.8693 30.1937,33.8693 L15.6587,33.8693 C15.3627,33.8693 15.1297,33.6273 15.1297,33.3313 L15.1297,25.6963 C15.1297,22.4523 17.7557,19.8263 20.9997,19.8263 L22.2537,19.8263 C22.5047,19.8713 22.7647,19.8893 23.0337,19.8813 C23.2307,19.8813 23.4187,19.8633 23.6067,19.8263 L24.8527,19.8263 C28.0967,19.8263 30.7227,22.4523 30.7227,25.6963 Z" id="Stroke-5" stroke="#373A3B"></path>
                <path d="M16.4028,2.0117 C18.4258,1.3477 20.5788,0.9607 22.8158,0.8977 C35.2708,0.5487 45.6518,10.3617 46.0008,22.8157 C46.3518,35.2707 36.5378,45.6517 24.0828,46.0007 C11.6288,46.3517 1.2478,36.5377 0.8978,24.0827 C0.8328,21.7557 1.1218,19.5007 1.7178,17.3697" id="Stroke-7" stroke="#373A3B"></path>
                <path d="M7.4624,2.6265 C10.2834,2.6265 12.5694,4.9135 12.5694,7.7335 C12.5694,10.5545 10.2834,12.8415 7.4624,12.8415 C4.6414,12.8415 2.3554,10.5545 2.3554,7.7335 C2.3554,4.9135 4.6414,2.6265 7.4624,2.6265 Z" id="Stroke-9" stroke="#FF5A00"></path>
            </g>
        </g>
    </g>
</svg>