<?xml version="1.0" encoding="UTF-8"?>
<svg width="34px" height="45px" viewBox="0 0 34 45" version="1.1" xmlns="http://www.w3.org/2000/svg" xmlns:xlink="http://www.w3.org/1999/xlink">
    <!-- Generator: Sketch 62 (91390) - https://sketch.com -->
    <title>ic-customer-onboarding</title>
    <desc>Created with Sketch.</desc>
    <g id="Page-7" stroke="none" stroke-width="1" fill="none" fill-rule="evenodd" stroke-linecap="round" stroke-linejoin="round">
        <g id="assets" transform="translate(-711.000000, -371.000000)" stroke-width="1.778">
            <g id="ic-customer-onboarding" transform="translate(711.000000, 371.000000)">
                <g id="Group-11">
                    <path d="M16.7934,16.5539 C19.7344,16.5539 22.1184,18.9379 22.1184,21.8789 C22.1184,24.8189 19.7344,27.2039 16.7934,27.2039 C13.8524,27.2039 11.4684,24.8189 11.4684,21.8789 C11.4684,18.9379 13.8524,16.5539 16.7934,16.5539 Z" id="Stroke-1" stroke="#373A3B"></path>
                    <path d="M8.8412,41.6803 L8.8412,34.7203 C8.8412,30.5693 12.2072,27.2033 16.3582,27.2033 L16.7932,27.2033 L18.0142,27.2033 C21.7512,27.2033 24.7802,30.2333 24.7802,33.9703 L24.7952045,41.6773 C24.7972,42.5053 24.1262,43.1783 23.2972,43.1783 L10.3392,43.1773 C9.5112,43.1773 8.8412,42.5073 8.8412,41.6803 Z" id="Stroke-3" stroke="#373A3B"></path>
                    <line x1="0.8891" y1="43.1784" x2="0.8891" y2="16.8704" id="Stroke-5" stroke="#373A3B"></line>
                    <line x1="32.8383" y1="43.1784" x2="32.8383" y2="16.8704" id="Stroke-7" stroke="#373A3B"></line>
                    <polyline id="Stroke-9" stroke="#FF5A00" points="0.9589 11.5387 16.8639 0.8887 32.8379 11.5387"></polyline>
                </g>
            </g>
        </g>
    </g>
</svg>