<?xml version="1.0" encoding="UTF-8"?>
<svg width="43px" height="39px" viewBox="0 0 43 39" version="1.1" xmlns="http://www.w3.org/2000/svg" xmlns:xlink="http://www.w3.org/1999/xlink">
    <!-- Generator: Sketch 62 (91390) - https://sketch.com -->
    <title>ic-customer-engagement</title>
    <desc>Created with Sketch.</desc>
    <g id="Page-7" stroke="none" stroke-width="1" fill="none" fill-rule="evenodd" stroke-linecap="round" stroke-linejoin="round">
        <g id="assets" transform="translate(-775.000000, -374.000000)" stroke-width="1.778">
            <g id="ic-customer-engagement" transform="translate(775.000000, 374.000000)">
                <path d="M12.2701,0.8891 L40.2611,0.8891 C40.9401,0.8891 41.4911,1.4401 41.4911,2.1191 L41.4911,28.8801 C41.4911,29.8941 40.3341,30.4731 39.5231,29.8651 L33.5521,23.4291 C33.3181,23.1781 32.9921,23.0351 32.6491,23.0351 L12.2701,23.0351 C11.5901,23.0351 11.0401,22.4851 11.0401,21.8051 L11.0401,2.1191 C11.0401,1.4401 11.5901,0.8891 12.2701,0.8891 Z" id="Stroke-1" stroke="#373A3B"></path>
                <path d="M30.1104,8.5019 L2.1194,8.5019 C1.4404,8.5019 0.8894,9.0529 0.8894,9.7319 L0.8894,36.4939 C0.8894,37.5069 2.0464,38.0849 2.8574,37.4779 L8.8294,31.0429 C9.0614,30.7919 9.3884,30.6489 9.7314,30.6489 L30.1104,30.6489 C30.7904,30.6489 31.3404,30.0979 31.3404,29.4189 L31.3404,9.7319 C31.3404,9.0529 30.7904,8.5019 30.1104,8.5019 Z" id="Stroke-3" stroke="#373A3B"></path>
                <path d="M21.1905,13.5775 C22.5915,13.5775 23.7275,14.7135 23.7275,16.1155 C23.7275,17.5165 22.5915,18.6525 21.1905,18.6525 C19.7885,18.6525 18.6525,17.5165 18.6525,16.1155 C18.6525,14.7135 19.7885,13.5775 21.1905,13.5775 Z" id="Stroke-5" stroke="#FF5A00"></path>
            </g>
        </g>
    </g>
</svg>