<?xml version="1.0" encoding="UTF-8"?>
<svg width="30px" height="29px" viewBox="0 0 30 29" version="1.1" xmlns="http://www.w3.org/2000/svg" xmlns:xlink="http://www.w3.org/1999/xlink">
    <!-- Generator: Sketch 62 (91390) - https://sketch.com -->
    <title>ic-date</title>
    <desc>Created with Sketch.</desc>
    <g id="Page-7" stroke="none" stroke-width="1" fill="none" fill-rule="evenodd">
        <g id="assets" transform="translate(-706.000000, -268.000000)">
            <g id="ic-date" transform="translate(706.000000, 268.000000)">
                <path d="M25.7658,28.0738 L3.4338,28.0738 C1.8688,28.0738 0.5998,26.8038 0.5998,25.2388 L0.5998,5.9078 C0.5998,4.3428 1.8688,3.0738 3.4338,3.0738 L25.7658,3.0738 C27.3308,3.0738 28.5998,4.3428 28.5998,5.9078 L28.5998,25.2388 C28.5998,26.8038 27.3308,28.0738 25.7658,28.0738 Z" id="Stroke-1" stroke="#373A3B" stroke-width="1.2"></path>
                <line x1="6.9049" y1="0.6001" x2="6.9049" y2="5.5461" id="Stroke-3" stroke="#373A3B" stroke-width="1.2" stroke-linecap="round"></line>
                <line x1="14.5998" y1="0.6001" x2="14.5998" y2="5.5461" id="Stroke-5" stroke="#373A3B" stroke-width="1.2" stroke-linecap="round"></line>
                <line x1="22.2951" y1="0.6001" x2="22.2951" y2="5.5461" id="Stroke-7" stroke="#373A3B" stroke-width="1.2" stroke-linecap="round"></line>
                <path d="M6.9225,10.7466 C7.5725,10.7466 8.0995,11.2726 8.0995,11.9236 C8.0995,12.5726 7.5725,13.0996 6.9225,13.0996 C6.2725,13.0996 5.7455,12.5726 5.7455,11.9236 C5.7455,11.2726 6.2725,10.7466 6.9225,10.7466" id="Fill-9" fill="#373A3B"></path>
                <path d="M17.1593,10.7466 C17.8093,10.7466 18.3353,11.2726 18.3353,11.9236 C18.3353,12.5726 17.8093,13.0996 17.1593,13.0996 C16.5093,13.0996 15.9823,12.5726 15.9823,11.9236 C15.9823,11.2726 16.5093,10.7466 17.1593,10.7466" id="Fill-11" fill="#373A3B"></path>
                <path d="M22.2775,10.7466 C22.9275,10.7466 23.4545,11.2726 23.4545,11.9236 C23.4545,12.5726 22.9275,13.0996 22.2775,13.0996 C21.6275,13.0996 21.1005,12.5726 21.1005,11.9236 C21.1005,11.2726 21.6275,10.7466 22.2775,10.7466" id="Fill-13" fill="#373A3B"></path>
                <path d="M6.9225,15.8648 C7.5725,15.8648 8.0995,16.3908 8.0995,17.0418 C8.0995,17.6908 7.5725,18.2188 6.9225,18.2188 C6.2725,18.2188 5.7455,17.6908 5.7455,17.0418 C5.7455,16.3908 6.2725,15.8648 6.9225,15.8648" id="Fill-15" fill="#373A3B"></path>
                <path d="M6.9225,20.9829 C7.5725,20.9829 8.0995,21.5099 8.0995,22.1599 C8.0995,22.8089 7.5725,23.3369 6.9225,23.3369 C6.2725,23.3369 5.7455,22.8089 5.7455,22.1599 C5.7455,21.5099 6.2725,20.9829 6.9225,20.9829" id="Fill-17" fill="#373A3B"></path>
                <path d="M12.0407,10.7466 C12.6907,10.7466 13.2177,11.2726 13.2177,11.9236 C13.2177,12.5726 12.6907,13.0996 12.0407,13.0996 C11.3907,13.0996 10.8647,12.5726 10.8647,11.9236 C10.8647,11.2726 11.3907,10.7466 12.0407,10.7466" id="Fill-19" fill="#373A3B"></path>
                <path d="M12.0407,15.8648 C12.6907,15.8648 13.2177,16.3908 13.2177,17.0418 C13.2177,17.6908 12.6907,18.2188 12.0407,18.2188 C11.3907,18.2188 10.8647,17.6908 10.8647,17.0418 C10.8647,16.3908 11.3907,15.8648 12.0407,15.8648" id="Fill-21" fill="#373A3B"></path>
                <path d="M12.0407,20.9829 C12.6907,20.9829 13.2177,21.5099 13.2177,22.1599 C13.2177,22.8089 12.6907,23.3369 12.0407,23.3369 C11.3907,23.3369 10.8647,22.8089 10.8647,22.1599 C10.8647,21.5099 11.3907,20.9829 12.0407,20.9829" id="Fill-23" fill="#373A3B"></path>
                <path d="M17.1593,15.8648 C17.8093,15.8648 18.3353,16.3908 18.3353,17.0418 C18.3353,17.6908 17.8093,18.2188 17.1593,18.2188 C16.5093,18.2188 15.9823,17.6908 15.9823,17.0418 C15.9823,16.3908 16.5093,15.8648 17.1593,15.8648" id="Fill-25" fill="#FF5A00"></path>
                <path d="M22.2775,15.8648 C22.9275,15.8648 23.4545,16.3908 23.4545,17.0418 C23.4545,17.6908 22.9275,18.2188 22.2775,18.2188 C21.6275,18.2188 21.1005,17.6908 21.1005,17.0418 C21.1005,16.3908 21.6275,15.8648 22.2775,15.8648" id="Fill-27" fill="#373A3B"></path>
                <path d="M17.1593,20.9829 C17.8093,20.9829 18.3353,21.5099 18.3353,22.1599 C18.3353,22.8089 17.8093,23.3369 17.1593,23.3369 C16.5093,23.3369 15.9823,22.8089 15.9823,22.1599 C15.9823,21.5099 16.5093,20.9829 17.1593,20.9829" id="Fill-29" fill="#373A3B"></path>
            </g>
        </g>
    </g>
</svg>