<?xml version="1.0" encoding="UTF-8"?>
<svg width="19px" height="18px" viewBox="0 0 19 18" version="1.1" xmlns="http://www.w3.org/2000/svg" xmlns:xlink="http://www.w3.org/1999/xlink">
    <!-- Generator: Sketch 62 (91390) - https://sketch.com -->
    <title>ic-github</title>
    <desc>Created with Sketch.</desc>
    <g id="Page-7" stroke="none" stroke-width="1" fill="none" fill-rule="evenodd">
        <g id="assets" transform="translate(-817.000000, -673.000000)" fill="#000000">
            <g id="ic-github" transform="translate(817.000000, 673.000000)">
                <path d="M9.2282,-0.0002 C4.1322,-0.0002 -0.0008,4.1308 -0.0008,9.2278 C-0.0008,13.3048 2.6442,16.7638 6.3102,17.9838 C6.7722,18.0688 6.9412,17.7838 6.9412,17.5398 C6.9412,17.3198 6.9322,16.5938 6.9282,15.8218 C4.3612,16.3808 3.8202,14.7328 3.8202,14.7328 C3.4002,13.6668 2.7942,13.3828 2.7942,13.3828 C1.9572,12.8108 2.8582,12.8218 2.8582,12.8218 C3.7852,12.8878 4.2732,13.7728 4.2732,13.7728 C5.0952,15.1838 6.4312,14.7758 6.9572,14.5398 C7.0402,13.9438 7.2802,13.5368 7.5432,13.3068 C5.4952,13.0728 3.3392,12.2818 3.3392,8.7458 C3.3392,7.7388 3.7002,6.9158 4.2912,6.2688 C4.1952,6.0368 3.8782,5.0978 4.3792,3.8268 C4.3792,3.8268 5.1552,3.5788 6.9172,4.7728 C7.6542,4.5678 8.4442,4.4658 9.2282,4.4618 C10.0122,4.4658 10.8022,4.5678 11.5402,4.7728 C13.3002,3.5788 14.0752,3.8268 14.0752,3.8268 C14.5772,5.0978 14.2612,6.0368 14.1652,6.2688 C14.7562,6.9158 15.1152,7.7388 15.1152,8.7458 C15.1152,12.2898 12.9562,13.0698 10.9012,13.2988 C11.2322,13.5858 11.5272,14.1468 11.5272,15.0078 C11.5272,16.2418 11.5162,17.2358 11.5162,17.5398 C11.5162,17.7858 11.6822,18.0728 12.1502,17.9828 C15.8152,16.7618 18.4562,13.3038 18.4562,9.2278 C18.4562,4.1308 14.3242,-0.0002 9.2282,-0.0002" id="Fill-1"></path>
                <path d="M3.4948,13.2488 C3.4748,13.2948 3.4028,13.3088 3.3368,13.2768 C3.2698,13.2468 3.2318,13.1848 3.2548,13.1388 C3.2738,13.0918 3.3468,13.0778 3.4128,13.1098 C3.4798,13.1408 3.5178,13.2028 3.4948,13.2488" id="Fill-4"></path>
                <path d="M3.8688,13.6658 C3.8248,13.7068 3.7388,13.6878 3.6808,13.6238 C3.6198,13.5598 3.6088,13.4728 3.6528,13.4318 C3.6988,13.3908 3.7818,13.4098 3.8428,13.4748 C3.9028,13.5388 3.9148,13.6248 3.8688,13.6658" id="Fill-6"></path>
                <path d="M4.2331,14.1971 C4.1761,14.2371 4.0841,14.2001 4.0261,14.1181 C3.9701,14.0361 3.9701,13.9371 4.0281,13.8981 C4.0851,13.8581 4.1761,13.8941 4.2341,13.9751 C4.2911,14.0581 4.2911,14.1571 4.2331,14.1971" id="Fill-8"></path>
                <path d="M4.7311,14.7108 C4.6801,14.7668 4.5731,14.7518 4.4941,14.6758 C4.4141,14.6018 4.3911,14.4958 4.4411,14.4398 C4.4931,14.3838 4.6011,14.3988 4.6801,14.4758 C4.7601,14.5498 4.7851,14.6558 4.7311,14.7108" id="Fill-10"></path>
                <path d="M5.4186,15.0096 C5.3966,15.0806 5.2926,15.1136 5.1886,15.0836 C5.0836,15.0516 5.0156,14.9676 5.0366,14.8946 C5.0586,14.8216 5.1626,14.7866 5.2686,14.8206 C5.3716,14.8516 5.4396,14.9356 5.4186,15.0096" id="Fill-12"></path>
                <path d="M6.1745,15.0643 C6.1765,15.1403 6.0875,15.2043 5.9785,15.2053 C5.8675,15.2083 5.7785,15.1453 5.7775,15.0713 C5.7775,14.9943 5.8635,14.9313 5.9745,14.9293 C6.0835,14.9273 6.1745,14.9893 6.1745,15.0643" id="Fill-14"></path>
                <path d="M6.8766,14.9451 C6.8906,15.0191 6.8136,15.0951 6.7046,15.1151 C6.5976,15.1351 6.4986,15.0901 6.4846,15.0151 C6.4716,14.9391 6.5496,14.8631 6.6556,14.8431 C6.7656,14.8251 6.8626,14.8691 6.8766,14.9451" id="Fill-16"></path>
            </g>
        </g>
    </g>
</svg>