<?xml version="1.0" encoding="UTF-8"?>
<svg width="18px" height="19px" viewBox="0 0 18 19" version="1.1" xmlns="http://www.w3.org/2000/svg" xmlns:xlink="http://www.w3.org/1999/xlink">
    <!-- Generator: Sketch 62 (91390) - https://sketch.com -->
    <title>ic-instagram</title>
    <desc>Created with Sketch.</desc>
    <g id="Page-7" stroke="none" stroke-width="1" fill="none" fill-rule="evenodd">
        <g id="assets" transform="translate(-887.000000, -673.000000)" fill="#000000">
            <path d="M896.983341,673.036537 C898.550387,673.039696 898.894655,673.052811 899.706661,673.089861 C900.664339,673.133539 901.318339,673.285646 901.890661,673.508075 C902.482304,673.737968 902.984054,674.045611 903.484232,674.545789 C903.984446,675.046004 904.292054,675.547754 904.521982,676.139361 C904.744411,676.711682 904.896518,677.365682 904.940196,678.323361 C904.983982,679.283004 904.994339,679.589396 904.994339,682.032861 L904.994288,682.316001 C904.993457,684.501917 904.982231,684.821139 904.940196,685.742396 C904.896518,686.700039 904.744411,687.354075 904.521982,687.926361 C904.292054,688.518004 903.984446,689.019754 903.484232,689.519932 C902.984054,690.020146 902.482304,690.327754 901.890661,690.557718 C901.318339,690.780111 900.664339,690.932218 899.706661,690.975932 C898.747018,691.019682 898.440661,691.030039 895.997161,691.030039 L895.714024,691.029988 C893.528137,691.029157 893.208884,691.017932 892.287661,690.975932 C891.329982,690.932218 890.675982,690.780111 890.103661,690.557718 C889.512054,690.327754 889.010268,690.020146 888.510089,689.519932 C888.009875,689.019754 887.702268,688.517968 887.472339,687.926361 C887.249911,687.354075 887.097839,686.700039 887.054125,685.742396 C887.017345,684.936296 887.004177,684.59113 887.000905,683.05304 L887.000835,681.04668 C887.003986,679.479635 887.017076,679.135366 887.054125,678.323361 C887.097839,677.365682 887.249911,676.711682 887.472339,676.139361 C887.702268,675.547754 888.009875,675.046004 888.510089,674.545789 C889.010268,674.045611 889.512054,673.737968 890.103661,673.508075 C890.675982,673.285646 891.329982,673.133539 892.287661,673.089861 C893.093731,673.053081 893.438918,673.039888 894.976993,673.036608 Z M896.275456,674.65687 L895.718865,674.65687 C893.570978,674.657611 893.272318,674.667699 892.361518,674.709254 C891.484339,674.749289 891.007911,674.895861 890.690875,675.019075 C890.270946,675.182289 889.971196,675.377254 889.656375,675.692111 C889.341554,676.006932 889.146554,676.306646 888.983339,676.726611 C888.860161,677.043646 888.713589,677.520039 888.673554,678.397254 C888.630268,679.345968 888.621125,679.630539 888.621125,682.032861 L888.62117,682.311156 C888.621911,684.459046 888.631999,684.757738 888.673554,685.668504 C888.713589,686.545718 888.860161,687.022111 888.983339,687.339146 C889.146554,687.759075 889.341554,688.058825 889.656375,688.373646 C889.971196,688.688504 890.270946,688.883468 890.690875,689.046682 C891.007911,689.169861 891.484339,689.316468 892.361554,689.356468 C893.310125,689.399754 893.594625,689.408932 895.997161,689.408932 C898.399696,689.408932 898.684196,689.399754 899.632768,689.356468 C900.509982,689.316468 900.986375,689.169861 901.303411,689.046682 C901.723375,688.883468 902.023125,688.688504 902.337946,688.373646 C902.652768,688.058825 902.847732,687.759075 903.010982,687.339146 C903.134161,687.022111 903.280732,686.545718 903.320768,685.668468 C903.357098,684.871578 903.369387,684.543282 903.37239,683.034741 L903.37239,681.030995 C903.369387,679.522474 903.357098,679.194174 903.320768,678.397254 C903.280732,677.520039 903.134161,677.043646 903.010982,676.726611 C902.847732,676.306646 902.652768,676.006932 902.337946,675.692075 C902.023125,675.377254 901.723375,675.182289 901.303411,675.019075 C900.986375,674.895861 900.509982,674.749289 899.632768,674.709254 C898.684054,674.665968 898.399518,674.656825 895.997161,674.656825 Z M895.997161,677.412718 C898.548804,677.412718 900.617304,679.481218 900.617304,682.032861 C900.617304,684.584539 898.548804,686.653039 895.997161,686.653039 C893.445518,686.653039 891.376982,684.584539 891.376982,682.032861 C891.376982,679.481218 893.445518,677.412718 895.997161,677.412718 Z M895.997161,679.033825 C894.340839,679.033825 892.998089,680.376539 892.998089,682.032861 C892.998089,683.689182 894.340839,685.031932 895.997161,685.031932 C897.653482,685.031932 898.996232,683.689182 898.996232,682.032861 C898.996232,680.376539 897.653482,679.033825 895.997161,679.033825 Z M900.799879,676.150532 C901.396164,676.150532 901.879521,676.633889 901.879521,677.230175 C901.879521,677.826461 901.396164,678.309818 900.799879,678.309818 C900.203593,678.309818 899.7202,677.826461 899.7202,677.230175 C899.7202,676.633889 900.203593,676.150532 900.799879,676.150532 Z" id="ic-instagram"></path>
        </g>
    </g>
</svg>