<?xml version="1.0" encoding="UTF-8"?>
<svg width="16px" height="15px" viewBox="0 0 16 15" version="1.1" xmlns="http://www.w3.org/2000/svg" xmlns:xlink="http://www.w3.org/1999/xlink">
    <!-- Generator: Sketch 62 (91390) - https://sketch.com -->
    <title>ic-linked-in</title>
    <desc>Created with Sketch.</desc>
    <g id="Page-7" stroke="none" stroke-width="1" fill="none" fill-rule="evenodd">
        <g id="assets" transform="translate(-762.000000, -674.000000)" fill="#000000" fill-rule="nonzero">
            <path d="M765.562147,689 L762.197938,689 L762.197938,678.879201 L765.562147,678.879201 L765.562147,689 Z M763.880774,677.49693 L763.857632,677.49693 C762.729918,677.49693 762,676.719448 762,675.747962 C762,674.755712 762.752602,674 763.902543,674 C765.053491,674 765.762097,674.75617 765.783775,675.747962 C765.783866,676.719448 765.053491,677.49693 763.880774,677.49693 Z M777.692873,689 L774.329213,689 L774.329213,683.584977 C774.329213,682.224201 773.841778,681.296803 772.624516,681.296803 C771.695288,681.296803 771.142087,681.922447 770.898598,682.527328 C770.80905,682.743193 770.787281,683.044948 770.787281,683.347159 L770.787281,688.999543 L767.422615,688.999543 C767.422615,688.999543 767.46716,679.82782 767.422615,678.878652 L770.787281,678.878652 L770.787281,680.311413 C771.23447,679.622016 772.033904,678.640011 773.81946,678.640011 C776.03327,678.640011 777.691867,680.086675 777.691867,683.196602 L777.691867,689 L777.692873,689 Z" id="ic-linked-in"></path>
        </g>
    </g>
</svg>