<?xml version="1.0" encoding="UTF-8"?>
<svg width="21px" height="31px" viewBox="0 0 21 31" version="1.1" xmlns="http://www.w3.org/2000/svg" xmlns:xlink="http://www.w3.org/1999/xlink">
    <!-- Generator: Sketch 62 (91390) - https://sketch.com -->
    <title>ic-map-pin</title>
    <desc>Created with Sketch.</desc>
    <g id="Page-7" stroke="none" stroke-width="1" fill="none" fill-rule="evenodd" stroke-linecap="round" stroke-linejoin="round">
        <g id="assets" transform="translate(-755.000000, -268.000000)" stroke-width="1.2">
            <g id="ic-map-pin" transform="translate(755.000000, 268.000000)">
                <path d="M18.5615357,15.2164286 C19.3876071,13.7507143 19.9286786,12.09 19.9286786,10.2857143 C19.9286786,4.96071429 15.6118929,0.642857143 10.2858214,0.642857143 C4.95975,0.642857143 0.642964286,4.96071429 0.642964286,10.2857143 C0.642964286,12.09 1.19903571,13.7421429 2.00903571,15.2153571 C4.03617857,18.9010714 10.2858214,29.5714286 10.2858214,29.5714286 C10.2858214,29.5714286 16.5033214,18.8710714 18.5615357,15.2164286 Z" id="Stroke-1" stroke="#363A3B"></path>
                <path d="M6.42846429,10.28625 C6.42846429,8.15625 8.15560714,6.42803571 10.2856071,6.42803571 C12.4156071,6.42803571 14.14275,8.15625 14.14275,10.28625 C14.14275,12.41625 12.4156071,14.1433929 10.2856071,14.1433929 C8.15560714,14.1433929 6.42846429,12.41625 6.42846429,10.28625 Z" id="Stroke-3" stroke="#FF4900"></path>
            </g>
        </g>
    </g>
</svg>