<?xml version="1.0" encoding="UTF-8"?>
<svg width="20px" height="29px" viewBox="0 0 20 29" version="1.1" xmlns="http://www.w3.org/2000/svg" xmlns:xlink="http://www.w3.org/1999/xlink">
    <!-- Generator: Sketch 62 (91390) - https://sketch.com -->
    <title>ic-speaker</title>
    <desc>Created with Sketch.</desc>
    <g id="Page-7" stroke="none" stroke-width="1" fill="none" fill-rule="evenodd" stroke-linecap="round" stroke-linejoin="round">
        <g id="assets" transform="translate(-795.000000, -268.000000)" stroke-width="1.2">
            <g id="ic-speaker" transform="translate(795.000000, 268.000000)">
                <path d="M0.6004,27.0407 L0.6004,18.1667 C0.6004,14.4257 3.6324,11.3927 7.3734,11.3927 L11.8264,11.3927 C15.5674,11.3927 18.6004,14.4257 18.6004,18.1667 L18.6004,27.0407 C18.6004,27.3457 18.3534,27.5927 18.0484,27.5927 L9.6004,27.5927 L1.1524,27.5927 C0.8474,27.5927 0.6004,27.3457 0.6004,27.0407 Z" id="Stroke-1" stroke="#373A3B"></path>
                <path d="M14.9968,5.8698 C15.0678,8.8498 12.7098,11.3248 9.7288,11.3948 C6.7478,11.4668 4.2738,9.1078 4.2028,6.1268 C4.1318,3.1468 6.4898,0.6728 9.4718,0.6018 C12.4518,0.5308 14.9258,2.8888 14.9968,5.8698 Z" id="Stroke-3" stroke="#FF5A00"></path>
            </g>
        </g>
    </g>
</svg>