<?xml version="1.0" encoding="UTF-8"?>
<svg width="18px" height="15px" viewBox="0 0 18 15" version="1.1" xmlns="http://www.w3.org/2000/svg" xmlns:xlink="http://www.w3.org/1999/xlink">
    <!-- Generator: Sketch 62 (91390) - https://sketch.com -->
    <title>ic-twitter</title>
    <desc>Created with Sketch.</desc>
    <g id="Page-7" stroke="none" stroke-width="1" fill="none" fill-rule="evenodd">
        <g id="assets" transform="translate(-728.000000, -675.000000)" fill="#000000" fill-rule="nonzero">
            <path d="M746,676.775769 C745.330625,677.076923 744.617375,677.276538 743.87375,677.373462 C744.63875,676.905 745.222625,676.168846 745.497125,675.281538 C744.783875,675.717692 743.996375,676.025769 743.157125,676.197692 C742.479875,675.458077 741.514625,675 740.461625,675 C738.418625,675 736.773875,676.700769 736.773875,678.785769 C736.773875,679.085769 736.798625,679.374231 736.859375,679.648846 C733.7915,679.495385 731.076875,677.987308 729.25325,675.69 C728.934875,676.256538 728.748125,676.905 728.748125,677.603077 C728.748125,678.913846 729.40625,680.075769 730.38725,680.748462 C729.794375,680.736923 729.21275,680.560385 728.72,680.282308 C728.72,680.293846 728.72,680.308846 728.72,680.323846 C728.72,682.163077 729.999125,683.690769 731.6765,684.042692 C731.376125,684.126923 731.04875,684.167308 730.709,684.167308 C730.47275,684.167308 730.23425,684.153462 730.010375,684.102692 C730.4885,685.601538 731.84525,686.703462 733.4585,686.739231 C732.203,687.746538 730.608875,688.353462 728.883125,688.353462 C728.5805,688.353462 728.29025,688.339615 728,688.301538 C729.634625,689.382692 731.571875,690 733.661,690 C740.4515,690 744.164,684.230769 744.164,679.23 C744.164,679.062692 744.158375,678.901154 744.1505,678.740769 C744.882875,678.207692 745.49825,677.541923 746,676.775769 Z" id="ic-twitter" transform="translate(737.000000, 682.500000) scale(-1, -1) rotate(-180.000000) translate(-737.000000, -682.500000) "></path>
        </g>
    </g>
</svg>