<?xml version="1.0" encoding="UTF-8"?>
<svg width="20px" height="14px" viewBox="0 0 20 14" version="1.1" xmlns="http://www.w3.org/2000/svg" xmlns:xlink="http://www.w3.org/1999/xlink">
    <!-- Generator: Sketch 62 (91390) - https://sketch.com -->
    <title>ic-youtube</title>
    <desc>Created with Sketch.</desc>
    <g id="Page-7" stroke="none" stroke-width="1" fill="none" fill-rule="evenodd">
        <g id="assets" transform="translate(-851.000000, -675.000000)" fill="#000000">
            <path d="M861.247471,675.00128 C862.422596,675.006499 867.439899,675.050333 868.813784,675.418543 C869.674466,675.648527 870.35208,676.326172 870.58208,677.18672 C870.958239,678.590401 870.995855,681.366679 870.999616,681.907898 L870.999616,682.09325 C870.995855,682.634452 870.958239,685.410659 870.58208,686.814543 C870.35208,687.674978 869.674466,688.352624 868.813784,688.58272 C867.439899,688.950831 862.422596,688.994653 861.247471,688.99987 L860.752597,688.99987 C859.57747,688.994653 854.560156,688.950831 853.18617,688.58272 C852.325602,688.352624 851.647875,687.674978 851.417875,686.814543 C851.055746,685.462655 851.007462,682.838215 851.001025,682.162398 L851.001025,681.838748 C851.007462,681.162912 851.055746,678.538413 851.417875,677.18672 C851.647875,676.326172 852.325602,675.648527 853.18617,675.418543 C854.560156,675.050333 859.57747,675.006499 860.752597,675.00128 Z M859,679.000598 L859,685.000598 L864,682.000712 L859,679.000598 Z" id="ic-youtube" transform="translate(861.000243, 682.000299) scale(1, -1) translate(-861.000243, -682.000299) "></path>
        </g>
    </g>
</svg>