<?xml version="1.0" encoding="UTF-8"?>
<svg width="160px" height="42px" viewBox="0 0 160 42" version="1.1" xmlns="http://www.w3.org/2000/svg" xmlns:xlink="http://www.w3.org/1999/xlink">
    <!-- Generator: Sketch 62 (91390) - https://sketch.com -->
    <title>kotak</title>
    <desc>Created with Sketch.</desc>
    <defs>
        <polygon id="path-1" points="0.840305892 0.0230176527 5.42264709 0.0230176527 5.42264709 8.23684123 0.840305892 8.23684123"></polygon>
        <polygon id="path-3" points="0 41.9647061 159.95206 41.9647061 159.95206 -9.0907674e-15 0 -9.0907674e-15"></polygon>
    </defs>
    <g id="Page-7" stroke="none" stroke-width="1" fill="none" fill-rule="evenodd">
        <g id="assets" transform="translate(-1259.000000, -483.000000)">
            <g id="kotak" transform="translate(1259.000000, 483.000000)">
                <path d="M59.4675709,34.3642325 L63.0755121,38.4071737 L61.872865,38.4071737 L58.8022768,34.850409 C58.6999239,34.7250267 58.6487474,34.6457031 58.5975709,34.5945267 L58.5719827,34.5945267 L58.5719827,38.4071737 L57.7275709,38.4071737 L57.7275709,30.6283502 L58.5719827,30.6283502 L58.5719827,34.2900267 L58.5975709,34.2900267 C58.6487474,34.2107031 58.7255121,34.1339384 58.8022768,34.0315855 L61.7705121,30.6283502 L62.845218,30.6283502 L59.4675709,34.3642325 Z" id="Fill-1" fill="#231F20"></path>
                <path d="M120.854515,33.4445914 C120.289015,33.4445914 119.854015,33.6492972 119.521368,34.0561502 C119.214309,34.465562 119.063339,35.031062 119.063339,35.7219443 C119.063339,36.3616502 119.214309,36.8734149 119.521368,37.2546796 C119.805398,37.641062 120.214809,37.8457679 120.724015,37.8457679 C121.23578,37.8457679 121.647751,37.6640914 121.954809,37.2828267 C122.287457,36.9220326 122.438427,36.4640031 122.438427,35.9266502 L122.438427,35.0822384 C122.438427,34.6216502 122.287457,34.2378267 121.977839,33.9051796 C121.67078,33.5981208 121.289515,33.4445914 120.854515,33.4445914 M118.907251,33.5725325 C119.370398,33.0095914 119.981957,32.7281208 120.752162,32.7281208 C121.519809,32.7281208 122.080192,33.0351796 122.412839,33.6492972 L122.438427,33.6492972 L122.438427,30.1923266 L123.282839,30.1923266 L123.282839,38.4061502 L122.438427,38.4061502 L122.438427,37.4593855 L122.412839,37.4593855 C122.003427,38.1784149 121.363721,38.5622384 120.493721,38.5622384 C119.805398,38.5622384 119.239898,38.3037973 118.833045,37.7920326 C118.423633,37.3084149 118.193339,36.6149737 118.193339,35.7731208 C118.193339,34.8519443 118.423633,34.1098855 118.907251,33.5725325" id="Fill-3" fill="#231F20"></path>
                <path d="M105.781254,33.4445914 C105.346254,33.4445914 104.96243,33.6211502 104.65793,33.9537972 C104.348312,34.2890031 104.22293,34.7240031 104.22293,35.2613561 L104.22293,38.4061502 L103.378518,38.4061502 L103.378518,30.1923266 L104.22293,30.1923266 L104.22293,33.7772384 L104.245959,33.7772384 C104.65793,33.0837972 105.269489,32.7281208 106.062724,32.7281208 C107.319106,32.7281208 107.930665,33.4701796 107.930665,35.0029149 L107.930665,38.4061502 L107.114401,38.4061502 L107.114401,35.2076208 C107.114401,34.030562 106.679401,33.4445914 105.781254,33.4445914" id="Fill-5" fill="#231F20"></path>
                <path d="M95.0613182,22.3646295 C95.0613182,18.3216883 99.5648476,17.8611001 102.021318,17.8611001 C102.709642,17.8611001 103.607789,17.8611001 104.068377,18.0913942 C104.068377,16.2746295 102.709642,15.8396295 101.123171,15.8396295 C99.5648476,15.8396295 98.2061123,16.0699236 96.8499358,16.7352177 L96.8499358,13.5878648 C98.4364064,12.8969824 100.230142,12.6666883 102.021318,12.6666883 C105.424554,12.6666883 108.339054,14.0228648 108.339054,18.0913942 L108.339054,23.0555119 C108.339054,24.1813943 108.339054,25.0769825 108.569348,26.2028648 L104.500818,26.2028648 C104.500818,25.5094237 104.296112,24.8466884 104.296112,24.1813943 C103.172789,25.7397178 102.021318,26.433159 99.9998476,26.433159 C97.5177888,26.433159 95.0613182,25.3047178 95.0613182,22.3646295 M99.3345535,21.9296295 C99.3345535,22.8252178 100.230142,23.4879531 101.356024,23.4879531 C102.942495,23.4879531 104.068377,21.9296295 104.068377,20.3431589 L102.251612,20.3431589 C100.688171,20.3431589 99.3345535,20.7781589 99.3345535,21.9296295" id="Fill-7" fill="#231F20"></path>
                <path d="M125.09986,38.4074296 L125.09986,32.8547825 L125.944271,32.8547825 L125.944271,34.0062531 L125.972418,34.0062531 C126.10036,33.6224296 126.305065,33.3153708 126.558389,33.0850767 C126.814271,32.8803708 127.095742,32.7524296 127.428389,32.7524296 C127.658683,32.7524296 127.837801,32.7780178 127.965742,32.8291943 L127.965742,33.7247825 C127.814771,33.5968414 127.584477,33.5482237 127.300448,33.5482237 C126.891036,33.5482237 126.583977,33.7247825 126.328095,34.1086061 C126.072212,34.4668414 125.944271,34.9530178 125.944271,35.5696943 L125.944271,38.4074296 L125.09986,38.4074296 Z" id="Fill-9" fill="#231F20"></path>
                <path d="M124.435333,10.3115471 L125.231127,10.3115471 C125.484451,10.3115471 125.689157,10.3371354 125.79151,10.3627236 C125.919451,10.4139001 126.021804,10.4906648 126.098568,10.5930177 C126.149745,10.6953706 126.200921,10.7977236 126.200921,10.9256648 C126.200921,11.0791942 126.124157,11.2327236 126.021804,11.3606648 C125.893862,11.4886059 125.740333,11.5397824 125.535627,11.5653707 C125.612392,11.5909589 125.689157,11.6421354 125.740333,11.6933118 C125.817098,11.7700765 125.945039,11.9236059 126.07298,12.1283118 L126.354451,12.5889001 L125.893862,12.5889001 L125.689157,12.2306648 C125.535627,11.9491942 125.407686,11.7700765 125.305333,11.6933118 C125.254157,11.6421354 125.151804,11.6165471 125.023862,11.6165471 L124.793568,11.6165471 L124.793568,12.5889001 L124.435333,12.5889001 L124.435333,10.3115471 Z M124.793568,11.3094883 L125.254157,11.3094883 C125.458862,11.3094883 125.612392,11.2583118 125.689157,11.2071354 C125.76848,11.1303706 125.817098,11.0536059 125.817098,10.951253 C125.817098,10.9000765 125.79151,10.8233118 125.740333,10.7721354 C125.714745,10.7209589 125.663568,10.6697824 125.586804,10.6441942 C125.535627,10.6186059 125.407686,10.6186059 125.231127,10.6186059 L124.793568,10.6186059 L124.793568,11.3094883 Z" id="Fill-11" fill="#231F20"></path>
                <path d="M143.064336,36.9504355 C143.064336,35.9269061 143.678454,35.3102296 144.906689,35.1336708 L146.569924,34.9008178 C146.569924,33.9284649 146.186101,33.4448472 145.418454,33.4448472 C144.75316,33.4448472 144.139042,33.6751414 143.601689,34.1331708 L143.601689,33.2657296 C144.16463,32.9074943 144.778748,32.7283766 145.495218,32.7283766 C146.77463,32.7283766 147.414336,33.4167002 147.414336,34.7728767 L147.414336,38.4064061 L146.595513,38.4064061 L146.595513,37.5364061 L146.541777,37.5364061 C146.160513,38.2017002 145.597571,38.5624943 144.855513,38.5624943 C144.290013,38.5624943 143.857571,38.4064061 143.547954,38.0993473 C143.217865,37.8204355 143.064336,37.4340531 143.064336,36.9504355 M145.03463,37.8204355 C145.467071,37.8204355 145.853454,37.6643473 146.134924,37.3572884 C146.441983,37.0246414 146.569924,36.6433767 146.569924,36.1546414 L146.569924,35.594259 L145.213748,35.7733767 C144.75316,35.8475825 144.420513,35.9499355 144.215807,36.131612 C144.036689,36.2825826 143.934336,36.5410237 143.934336,36.8967002 C143.934336,37.1807296 144.036689,37.3854355 144.241395,37.5619943 C144.446101,37.7436708 144.701983,37.8204355 145.03463,37.8204355" id="Fill-13" fill="#231F20"></path>
                <path d="M87.9222005,30.6283502 L89.0224946,30.6283502 L91.453377,36.1067914 C91.6580829,36.5417914 91.786024,36.8488502 91.8346417,37.025409 L91.8627887,37.025409 C91.9651417,36.7695267 92.0930829,36.4394384 92.2440534,36.0786443 L94.7261123,30.6283502 L95.803377,30.6283502 L95.803377,38.4071737 L94.9308182,38.4071737 L94.9308182,33.1615855 C94.9308182,32.7521737 94.9589652,32.2685561 95.0101417,31.6518796 L94.9845535,31.6518796 C94.9052299,32.0101149 94.8284652,32.2685561 94.7542593,32.3939384 L92.0393476,38.4071737 L91.6580829,38.4071737 L88.9431711,32.4195266 C88.8689652,32.2685561 88.8177887,32.0101149 88.7154358,31.6518796 L88.6898475,31.6518796 C88.7384652,31.935909 88.7384652,32.4195266 88.7384652,33.1359972 L88.7384652,38.4071737 L87.9222005,38.4071737 L87.9222005,30.6283502 Z" id="Fill-15" fill="#231F20"></path>
                <polygon id="Fill-17" fill="#231F20" points="80.6029416 35.4136061 82.9826475 32.8547825 84.0829416 32.8547825 81.4729416 35.5415473 84.2876475 38.4074296 83.0850005 38.4074296 80.6029416 35.7462531 80.5773534 35.7462531 80.5773534 38.4074296 79.7329416 38.4074296 79.7329416 30.193606 80.5773534 30.193606 80.5773534 35.4136061"></polygon>
                <path d="M100.791036,37.5376855 C100.409771,38.2029796 99.8442711,38.5612149 99.1047711,38.5612149 C98.5392711,38.5612149 98.1042711,38.4076855 97.7972123,38.1006267 C97.4645652,37.8191561 97.3135947,37.4353326 97.3135947,36.9517149 C97.3135947,35.9256267 97.9251535,35.311509 99.1533888,35.1349502 L100.844771,34.9020973 C100.844771,33.9297443 100.432801,33.4435678 99.6677123,33.4435678 C99.0024182,33.4435678 98.3883005,33.6738619 97.8509476,34.1344502 L97.8509476,33.2644502 C98.41133,32.9062149 99.0280064,32.7270972 99.744477,32.7270972 C101.023889,32.7270972 101.689183,33.4179796 101.689183,34.7741561 L101.689183,38.4076855 L100.844771,38.4076855 L100.844771,37.5376855 L100.791036,37.5376855 Z M98.4906535,37.5632737 C98.6953594,37.7423914 98.9486829,37.8191561 99.28133,37.8191561 C99.71633,37.8191561 100.100153,37.6656267 100.384183,37.3585679 C100.688683,37.0259208 100.844771,36.6420973 100.844771,36.1559208 L100.844771,35.5929796 L99.4604476,35.7746561 C99.0024182,35.848862 98.6672123,35.9512149 98.4650652,36.1303326 C98.2859476,36.283862 98.1810358,36.5397443 98.1810358,36.8979796 C98.1810358,37.1794502 98.2859476,37.3841561 98.4906535,37.5632737 L98.4906535,37.5632737 Z" id="Fill-19" fill="#231F20"></path>
                <path d="M69.3694504,19.6509972 C69.3694504,15.3777618 72.7470975,12.6679677 77.0203328,12.6679677 C81.2935681,12.6679677 84.6712152,15.3777618 84.6712152,19.6509972 C84.6712152,23.9523795 81.2935681,26.4318796 77.0203328,26.4318796 C72.7470975,26.4318796 69.3694504,23.9523795 69.3694504,19.6509972 M77.0203328,15.8383501 C74.9988622,15.8383501 74.1032739,17.6295266 74.1032739,19.6509972 C74.1032739,21.4677619 74.9988622,23.2589384 77.0203328,23.2589384 C79.0418034,23.2589384 79.9629799,21.4677619 79.9629799,19.6509972 C79.9629799,17.6295266 79.0418034,15.8383501 77.0203328,15.8383501" id="Fill-21" fill="#231F20"></path>
                <polygon id="Fill-23" fill="#231F20" points="110.131765 26.2028648 110.131765 10.2102177 114.660883 8.62374711 114.660883 18.5263942 114.865589 18.5263942 118.47353 13.1272765 123.437648 13.1272765 118.934118 18.9869825 123.898236 26.2028648 118.47353 26.2028648 114.865589 19.6497178 114.660883 19.6497178 114.660883 26.2028648"></polygon>
                <path d="M63.484668,35.7211767 C63.484668,34.774412 63.7405503,34.0579414 64.2267268,33.5205884 C64.7384915,32.9832355 65.4293739,32.7273531 66.2993739,32.7273531 C67.1181974,32.7273531 67.7579033,32.9832355 68.2184916,33.4950002 C68.6790798,34.0067649 68.9093739,34.7232355 68.9093739,35.6188237 C68.9093739,36.4888237 68.6790798,37.2052943 68.1673151,37.7426473 C67.6555504,38.2800002 66.9902562,38.5614708 66.1714327,38.5614708 C65.3781974,38.5614708 64.7129033,38.2800002 64.2267268,37.7682355 C63.7405503,37.2564708 63.484668,36.5655884 63.484668,35.7211767 M66.2226092,37.8450002 C66.8111386,37.8450002 67.2717268,37.6402943 67.5787857,37.2564708 C67.9114327,36.8726473 68.0649621,36.3352943 68.0649621,35.644412 C68.0649621,34.9535296 67.9114327,34.3905884 67.5787857,34.0067649 C67.2717268,33.6229414 66.8111386,33.4438237 66.2226092,33.4438237 C65.659668,33.4438237 65.1990798,33.6485296 64.8408445,34.0323531 C64.5081974,34.4417649 64.3290798,34.9791178 64.3290798,35.6700002 C64.3290798,36.3352943 64.5081974,36.847059 64.8408445,37.2564708 C65.1990798,37.6402943 65.659668,37.8450002 66.2226092,37.8450002" id="Fill-25" fill="#231F20"></path>
                <path d="M128.530986,36.9504355 C128.530986,35.9269061 129.142545,35.3102296 130.347751,35.1336708 L132.034015,34.9008178 C132.034015,33.9284649 131.652751,33.4448472 130.885104,33.4448472 C130.217251,33.4448472 129.605692,33.6751414 129.068339,34.1331708 L129.068339,33.2657296 C129.605692,32.9074943 130.245398,32.7283766 130.933721,32.7283766 C132.238721,32.7283766 132.878427,33.4167002 132.878427,34.7728767 L132.878427,38.4064061 L132.034015,38.4064061 L132.034015,37.5364061 L132.008427,37.5364061 C131.627162,38.2017002 131.061662,38.5624943 130.294015,38.5624943 C129.756662,38.5624943 129.324221,38.4064061 128.991574,38.0993473 C128.684515,37.8204355 128.530986,37.4340531 128.530986,36.9504355 M130.475692,37.8204355 C130.933721,37.8204355 131.291957,37.6643473 131.599015,37.3572884 C131.883045,37.0246414 132.034015,36.6433767 132.034015,36.1546414 L132.034015,35.594259 L130.680398,35.7733767 C130.191662,35.8475825 129.861574,35.9499355 129.679898,36.131612 C129.503339,36.2825826 129.400986,36.5410237 129.400986,36.8967002 C129.400986,37.1807296 129.503339,37.3854355 129.708045,37.5619943 C129.910192,37.7436708 130.168633,37.8204355 130.475692,37.8204355" id="Fill-27" fill="#231F20"></path>
                <path d="M113.178045,33.7769825 C113.584898,33.0835414 114.199015,32.7278649 114.994809,32.7278649 C115.606368,32.7278649 116.069515,32.9325708 116.402162,33.3138355 C116.734809,33.7002178 116.88578,34.2606002 116.88578,35.0308061 L116.88578,38.4084532 L116.041368,38.4084532 L116.041368,35.2329531 C116.041368,34.0328649 115.606368,33.4443355 114.736368,33.4443355 C114.278339,33.4443355 113.891957,33.6208943 113.584898,33.9535414 C113.305986,34.2887472 113.149898,34.7237472 113.149898,35.2329531 L113.149898,38.4084532 L112.305486,38.4084532 L112.305486,32.8558061 L113.149898,32.8558061 L113.149898,33.7769825 L113.178045,33.7769825 Z" id="Fill-29" fill="#231F20"></path>
                <path d="M149.973671,33.7769825 C150.408671,33.0835414 150.994642,32.7278649 151.816024,32.7278649 C152.430142,32.7278649 152.89073,32.9325708 153.197789,33.3138355 C153.530436,33.7002178 153.681407,34.2606002 153.681407,35.0308061 L153.681407,38.4084532 L152.839554,38.4084532 L152.839554,35.2329531 C152.839554,34.0328649 152.401995,33.4443355 151.531995,33.4443355 C151.073966,33.4443355 150.687583,33.6208943 150.408671,33.9535414 C150.101613,34.2887472 149.945524,34.7237472 149.945524,35.2329531 L149.945524,38.4084532 L149.12926,38.4084532 L149.12926,32.8558061 L149.945524,32.8558061 L149.945524,33.7769825 L149.973671,33.7769825 Z" id="Fill-31" fill="#231F20"></path>
                <path d="M70.6488622,33.5720208 L69.6765092,33.5720208 L69.6765092,32.8555502 L70.6488622,32.8555502 L70.6488622,31.4968149 L71.4676857,31.2179031 L71.4676857,32.8555502 L72.8750386,32.8555502 L72.8750386,33.5720208 L71.4676857,33.5720208 L71.4676857,36.7705502 C71.4676857,37.1518149 71.5444504,37.4358443 71.6723916,37.5893737 C71.8003327,37.7429031 72.0050386,37.8196679 72.3120975,37.8196679 C72.5423916,37.8196679 72.7215092,37.7684914 72.8750386,37.6405502 L72.8750386,38.3570208 C72.6703328,38.484962 72.4144504,38.5335796 72.0818033,38.5335796 C71.1094504,38.5335796 70.6488622,37.9962267 70.6488622,36.9240796 L70.6488622,33.5720208 Z" id="Fill-33" fill="#231F20"></path>
                <polygon id="Fill-35" fill="#231F20" points="57.4197444 26.2028648 57.4197444 9.97992358 61.9232739 8.62374711 61.9232739 18.5263942 65.7615092 13.1272765 70.7000386 13.1272765 66.1965092 18.9869825 70.9303327 26.2028648 65.5312151 26.2028648 61.9232739 19.6497178 61.9232739 26.2028648"></polygon>
                <path d="M109.672201,31.2432355 C109.595436,31.1408825 109.541701,31.0129413 109.541701,30.8594119 C109.541701,30.7058825 109.595436,30.5523531 109.697789,30.4500002 C109.800142,30.3476472 109.928083,30.2964708 110.079054,30.2964708 C110.235142,30.2964708 110.363083,30.3476472 110.465436,30.4500002 C110.590818,30.5779413 110.644554,30.7058825 110.644554,30.8594119 C110.644554,31.0129413 110.590818,31.1408825 110.465436,31.2432355 C110.363083,31.3455884 110.235142,31.3967649 110.079054,31.3967649 C109.928083,31.3967649 109.800142,31.3455884 109.672201,31.2432355" id="Fill-37" fill="#231F20"></path>
                <path d="M123.540768,12.4617265 C123.336062,12.1290795 123.259298,11.7708442 123.259298,11.4126089 C123.259298,11.0543736 123.336062,10.6961383 123.540768,10.3634912 C123.717327,10.0052559 123.975768,9.74937358 124.334004,9.57025593 C124.664092,9.39113829 124.996739,9.28878535 125.357533,9.28878535 C125.715768,9.28878535 126.071445,9.39113829 126.406651,9.57025593 C126.739298,9.74937358 127.01821,10.0052559 127.199886,10.3634912 C127.379004,10.6961383 127.481357,11.0543736 127.481357,11.4126089 C127.481357,11.7708442 127.379004,12.1290795 127.199886,12.4617265 C127.01821,12.7943736 126.764886,13.0758442 126.432239,13.2549618 C126.071445,13.4340795 125.738798,13.5364324 125.357533,13.5364324 C124.996739,13.5364324 124.641062,13.4340795 124.308415,13.2549618 C123.975768,13.0758442 123.717327,12.7943736 123.540768,12.4617265 M124.487533,9.87731476 C124.206062,10.0308442 124.001357,10.2355501 123.847827,10.5170206 C123.66871,10.8240795 123.591945,11.1055501 123.591945,11.4126089 C123.591945,11.7196677 123.66871,12.0011383 123.81968,12.2826089 C124.001357,12.5640795 124.206062,12.7943736 124.487533,12.947903 C124.766445,13.1014324 125.076062,13.1781971 125.357533,13.1781971 C125.664592,13.1781971 125.971651,13.1014324 126.253121,12.947903 C126.534592,12.7943736 126.739298,12.5640795 126.892827,12.2826089 C127.046357,12.0011383 127.120562,11.7196677 127.120562,11.4126089 C127.120562,11.1055501 127.046357,10.8240795 126.892827,10.5170206 C126.739298,10.2355501 126.509004,10.0308442 126.227533,9.87731476 C125.943504,9.72378535 125.664592,9.64702064 125.357533,9.64702064 C125.076062,9.64702064 124.766445,9.72378535 124.487533,9.87731476" id="Fill-39" fill="#231F20"></path>
                <g id="Group-43" transform="translate(154.529413, 30.170588)">
                    <mask id="mask-2" fill="white">
                        <use xlink:href="#path-1"></use>
                    </mask>
                    <g id="Clip-42"></g>
                    <polygon id="Fill-41" fill="#231F20" mask="url(#mask-2)" points="4.09257062 2.68419414 5.19286474 2.68419414 2.58286473 5.37095886 5.42315886 8.23684123 4.22051179 8.23684123 1.7103059 5.57566474 1.68727649 5.57566474 1.68727649 8.23684123 0.840305892 8.23684123 0.840305892 0.0230176527 1.68727649 0.0230176527 1.68727649 5.24301768 1.7103059 5.24301768"></polygon>
                </g>
                <path d="M137.281907,30.6283502 L139.456907,30.6283502 C140.096613,30.6283502 140.633965,30.7844384 141.017789,31.1145266 C141.399054,31.4471737 141.60376,31.8821737 141.60376,32.4195266 C141.60376,32.8545267 141.501407,33.240909 141.248083,33.5479678 C141.017789,33.8806149 140.71073,34.1083502 140.27573,34.2618796 L140.27573,34.2900267 C140.784936,34.3386443 141.222495,34.5203208 141.526995,34.8759972 C141.834054,35.2086443 141.990142,35.6436443 141.990142,36.1809973 C141.990142,36.8488502 141.759848,37.3862031 141.296701,37.7930561 C140.813083,38.2024679 140.221995,38.4071737 139.479936,38.4071737 L137.281907,38.4071737 L137.281907,30.6283502 Z M140.71073,32.5756149 C140.71073,31.805409 140.221995,31.4241443 139.201024,31.4241443 L138.126318,31.4241443 L138.126318,33.9829678 L139.070524,33.9829678 C139.582289,33.9829678 139.99426,33.8550267 140.27573,33.6221737 C140.582789,33.3662914 140.71073,33.0106149 140.71073,32.5756149 L140.71073,32.5756149 Z M141.120142,36.1809973 C141.120142,35.2342325 140.452289,34.7736443 139.172877,34.7736443 L138.126318,34.7736443 L138.126318,37.6139384 L139.377583,37.6139384 C139.914936,37.6139384 140.349936,37.4885561 140.656995,37.2301149 C140.964054,36.9742326 141.120142,36.6159973 141.120142,36.1809973 L141.120142,36.1809973 Z" id="Fill-44" fill="#231F20"></path>
                <path d="M91.8878652,26.4329031 C87.844924,26.4329031 86.7164828,24.6161384 86.7164828,21.4687854 L86.7164828,16.2743736 L84.2369828,16.2743736 L84.2369828,13.1270207 L86.9493358,13.1270207 L86.9493358,10.2099618 L91.2225711,8.62349122 L91.2225711,13.1270207 L94.369924,13.1270207 L94.369924,16.2743736 L91.2225711,16.2743736 L91.2225711,21.0081972 C91.2225711,22.5946678 91.6575711,23.490256 93.0111887,23.490256 C93.4743358,23.490256 93.9093358,23.2599619 94.369924,23.2599619 L94.6002182,26.202609 C93.7046299,26.202609 93.0111887,26.4329031 91.8878652,26.4329031" id="Fill-46" fill="#231F20"></path>
                <mask id="mask-4" fill="white">
                    <use xlink:href="#path-3"></use>
                </mask>
                <g id="Clip-49"></g>
                <polygon id="Fill-48" fill="#231F20" mask="url(#mask-4)" points="109.645589 38.4079414 110.490001 38.4079414 110.490001 32.8552943 109.645589 32.8552943"></polygon>
                <path d="M74.2309592,34.1341943 L74.2309592,33.2641943 C74.7683122,32.9085178 75.4080181,32.7268414 76.0989004,32.7268414 C77.3783122,32.7268414 78.0436063,33.4177237 78.0436063,34.7739002 L78.0436063,38.4074296 L77.1991945,38.4074296 L77.1991945,37.5374296 L77.1736063,37.5374296 C76.7897828,38.2027237 76.2012534,38.560959 75.4591945,38.560959 C74.8962534,38.560959 74.4612533,38.4074296 74.1541945,38.1003708 C73.8471357,37.8189002 73.6936063,37.4350767 73.6936063,36.951459 C73.6936063,35.9253708 74.2821357,35.3112531 75.510371,35.1346943 L77.1991945,34.9018414 C77.1991945,33.9294884 76.815371,33.4433119 76.0221357,33.4433119 C75.3568416,33.4433119 74.7683122,33.6736061 74.2309592,34.1341943 L74.2309592,34.1341943 Z M77.1991945,35.5927237 L75.8174298,35.7744002 C75.3568416,35.8486061 75.0241945,35.950959 74.8450769,36.1300767 C74.640371,36.2836061 74.5636063,36.5394884 74.5636063,36.8977237 C74.5636063,37.1791943 74.6659592,37.386459 74.8450769,37.5630179 C75.0497828,37.7421355 75.3056651,37.8189002 75.6383122,37.8189002 C76.0733122,37.8189002 76.4571357,37.6653708 76.7386063,37.358312 C77.0456651,37.0256649 77.1991945,36.6418414 77.1991945,36.1556649 L77.1991945,35.5927237 Z" id="Fill-50" fill="#231F20" mask="url(#mask-4)"></path>
                <path d="M24.3855884,0.000255882354 C37.819412,0.000255882354 48.796765,9.41672652 48.796765,20.9826089 C48.796765,32.5484914 37.819412,41.964962 24.3855884,41.964962 C10.9517648,41.964962 -1.42108547e-13,32.5484914 -1.42108547e-13,20.9826089 C-1.42108547e-13,9.41672652 10.9517648,0.000255882354 24.3855884,0.000255882354 Z M27.0211766,4.88760885 L21.5964707,6.6531971 L21.5452942,13.3573148 C20.4961766,12.4873148 19.6517648,11.6173148 18.4491177,11.0031971 C16.8114707,10.1843736 15.1994118,9.92849123 13.6641177,10.2099618 C6.75529415,11.7196677 5.50147062,17.3746677 6.78088239,24.897609 C9.26294123,32.9067267 16.5300001,34.1093737 21.4173531,29.8873149 L21.3405884,37.6661384 L27.277059,35.6446678 L27.2002943,27.8914325 C32.9064708,35.004962 41.3505885,33.162609 42.7579414,23.2343737 L40.0455885,23.1064325 C38.0497061,27.6867266 32.4202943,26.970256 27.174706,24.1043737 L27.174706,22.9017266 C31.0385296,18.270256 36.1050002,13.8690795 40.1735296,18.9611383 L42.6555885,18.9611383 C41.6832355,13.7923148 39.0732355,10.5426089 34.0067649,10.0820206 C31.4735296,10.1331971 29.1705884,11.0543736 27.0979413,12.7943736 L27.0211766,4.88760885 Z M15.8132736,15.9921354 L15.8644501,15.9921354 C17.9370972,16.1968413 19.8562148,16.7341942 21.4938619,17.7321354 L21.4938619,19.9583119 C19.6259207,22.5171354 17.1950383,25.2039001 14.3547442,25.6133119 C9.77445005,26.2530178 7.11327357,22.2382237 9.10915593,18.7556648 C10.311803,16.6574295 13.5615089,15.7618413 15.8132736,15.9921354 Z" id="Combined-Shape" fill="#231F20" mask="url(#mask-4)"></path>
            </g>
        </g>
    </g>
</svg>