<?xml version="1.0" encoding="UTF-8"?>
<svg width="111px" height="36px" viewBox="0 0 111 36" version="1.1" xmlns="http://www.w3.org/2000/svg" xmlns:xlink="http://www.w3.org/1999/xlink">
    <!-- Generator: Sketch 62 (91390) - https://sketch.com -->
    <title>logo-google</title>
    <desc>Created with Sketch.</desc>
    <g id="FINAL-LAYOUT" stroke="none" stroke-width="1" fill="none" fill-rule="evenodd">
        <g id="assets" transform="translate(-22.000000, -957.000000)">
            <g id="logo-google" transform="translate(22.000000, 957.440000)">
                <path d="M37.6757781,23.4925445 C35.0115271,23.4925445 32.7110956,21.2974862 32.7110956,18.1644762 C32.7110956,15.0006782 35.0115271,12.8364079 37.6757781,12.8364079 C40.3400291,12.8364079 42.6404606,15.0006782 42.6404606,18.1644762 C42.6404606,21.2974862 40.3400291,23.4925445 37.6757781,23.4925445 M37.6757781,9.36993298 C32.8169025,9.36993298 28.8508804,13.0631988 28.8508804,18.1644762 C28.8508804,23.220222 32.8169025,26.9590194 37.6757781,26.9590194 C42.5346537,26.9590194 46.5006758,23.2349655 46.5006758,18.1644762 C46.5006758,13.0631988 42.5346537,9.36993298 37.6757781,9.36993298" id="Fill-4" fill="#FF2D1E"></path>
                <path d="M13.8199346,12.3971794 L13.8199346,16.1207997 L22.7202846,16.1207997 C22.4479621,18.2096176 21.7519786,19.7386132 20.6921756,20.8131597 C19.3904046,22.1149307 17.3618619,23.5376858 13.8199346,23.5376858 C8.34052781,23.5376858 4.05665164,19.118082 4.05665164,13.6382417 C4.05665164,8.15926855 8.34052781,3.73879748 13.8199346,3.73879748 C16.7716852,3.73879748 18.9363891,4.90440727 20.5256599,6.40304844 L23.1443793,3.78432911 C20.9341437,1.63523606 17.9672158,3.55271368e-14 13.8199346,3.55271368e-14 C6.31198517,3.55271368e-14 -7.10542736e-15,6.1155487 -7.10542736e-15,13.6230645 C-7.10542736e-15,21.1314475 6.31198517,27.2465625 13.8199346,27.2465625 C17.8765862,27.2465625 20.9341437,25.9144371 23.3260722,23.431879 C25.7782758,20.9796754 26.5501454,17.513634 26.5501454,14.728399 C26.5501454,13.8654662 26.4894365,13.0632422 26.3532753,12.3971794 L13.8199346,12.3971794 Z" id="Fill-1" fill="#0072FE"></path>
                <path d="M76.5021622,23.4925445 C73.8379113,23.4925445 71.8098023,21.2220337 71.8098023,18.1644762 C71.8098023,15.061387 73.8379113,12.8364079 76.5021622,12.8364079 C79.1356251,12.8364079 81.1946003,15.106485 81.1946003,18.194397 C81.2092658,21.2675654 79.1356251,23.4925445 76.5021622,23.4925445 L76.5021622,23.4925445 Z M80.9373769,11.3377668 L80.800782,11.3377668 C79.9382828,10.3083182 78.2731259,9.36993298 76.1686972,9.36993298 C71.7790142,9.36993298 67.9495871,13.1997937 67.9495871,18.1644762 C67.9495871,23.0992379 71.7790142,26.9590194 76.1686972,26.9590194 C78.2731259,26.9590194 79.9382828,26.0206342 80.800782,24.9608312 L80.9373769,24.9608312 L80.9373769,26.1871499 C80.9373769,29.5473843 79.1356251,31.3487024 76.2445833,31.3487024 C73.8834429,31.3487024 72.4151562,29.6531912 71.8098023,28.2156925 L68.4491342,29.6080932 C69.4178739,31.9393128 71.9758843,34.8000002 76.2445833,34.8000002 C80.7708612,34.8000002 84.6002883,32.1357492 84.6002883,25.6420712 L84.6002883,9.8239484 L80.9373769,9.8239484 L80.9373769,11.3377668 Z" id="Fill-6" fill="#0074F5"></path>
                <path d="M57.353639,23.4925445 C54.6893881,23.4925445 52.3889566,21.2974862 52.3889566,18.1644762 C52.3889566,15.0006782 54.6893881,12.8364079 57.353639,12.8364079 C60.0183236,12.8364079 62.3187552,15.0006782 62.3187552,18.1644762 C62.3187552,21.2974862 60.0183236,23.4925445 57.353639,23.4925445 M57.353639,9.36993298 C52.4947634,9.36993298 48.5287414,13.0631988 48.5287414,18.1644762 C48.5287414,23.220222 52.4947634,26.9590194 57.353639,26.9590194 C62.2129483,26.9590194 66.1789703,23.2349655 66.1789703,18.1644762 C66.1789703,13.0631988 62.2129483,9.36993298 57.353639,9.36993298" id="Fill-9" fill="#FFB200"></path>
                <polygon id="Fill-11" fill="#009C36" points="87.6275348 26.9589327 91.4270411 26.9589327 91.4270411 0.363255701 87.6275348 0.363255701"></polygon>
                <path d="M102.885705,12.6698922 C104.445055,12.6698922 105.776747,13.4721162 106.216019,14.6073716 L98.2692313,17.8921537 C98.2692313,14.1984542 100.887951,12.6698922 102.885705,12.6698922 M103.158028,23.4925445 C101.190628,23.4925445 99.7977932,22.5992572 98.8893288,20.8282935 L110.6508,15.9694179 L110.257493,14.9707574 C109.530722,13.0029236 107.290565,9.36993298 102.734367,9.36993298 C98.2085225,9.36993298 94.4389369,12.9270376 94.4389369,18.1644762 C94.4389369,23.0992379 98.1629908,26.9590194 103.158028,26.9590194 C107.184759,26.9590194 109.515545,24.4916386 110.484284,23.0684498 L107.487002,21.0706953 C106.488341,22.5238048 105.125862,23.4925445 103.158028,23.4925445" id="Fill-13" fill="#FF0000"></path>
            </g>
        </g>
    </g>
</svg>