<?xml version="1.0" encoding="UTF-8"?>
<svg width="129px" height="43px" viewBox="0 0 129 43" version="1.1" xmlns="http://www.w3.org/2000/svg" xmlns:xlink="http://www.w3.org/1999/xlink">
    <!-- Generator: Sketch 62 (91390) - https://sketch.com -->
    <title>logo-easeMyTrip</title>
    <desc>Created with Sketch.</desc>
    <g id="FINAL-LAYOUT" stroke="none" stroke-width="1" fill="none" fill-rule="evenodd">
        <g id="assets" transform="translate(-186.000000, -953.000000)" fill-rule="nonzero">
            <g id="logo-easeMyTrip" transform="translate(186.371964, 953.960000)">
                <path d="M56.0242608,23.8564527 C55.5398792,25.6085609 55.087357,27.3304706 54.5860645,29.0380362 C53.9612607,31.1664157 53.2774191,33.2775821 52.6634867,35.4089815 C52.529255,35.875546 52.3130349,35.9816932 51.8744038,35.985317 C50.081377,35.9999632 50.0753373,36.0137034 49.6120947,34.3007021 C48.7029734,30.9385692 47.8012508,27.5744733 46.883674,24.16357 C46.6848179,28.1748164 46.4868677,32.1632632 46.2868037,36.1942895 L43.4043714,36.1942895 C43.7676576,30.8301571 44.1285278,25.5048296 44.4970986,20.0630873 C45.7279833,20.0630873 46.9486005,20.0419485 48.1661978,20.0914738 C48.308734,20.0973625 48.4973227,20.4766538 48.5602863,20.7108419 C49.4914522,24.1747434 50.4046503,27.6436275 51.32419,31.1108507 C51.3672226,31.2734688 51.4300351,31.4309532 51.4451343,31.4756467 C52.4296005,28.0426987 53.4581562,24.5304799 54.430845,21.0031619 C54.6293991,20.2836863 54.9146225,19.9705294 55.6976657,20.033493 C56.6448367,20.1094418 57.6028794,20.051461 58.6371728,20.051461 C58.9448939,25.4459428 59.2498973,30.795278 59.5579203,36.1935345 L56.5364247,36.1935345 C56.367012,32.112379 56.1966933,28.0108394 56.0242608,23.8564527" id="Fill-1" fill="#015999"></path>
                <path d="M106.378238,31.5975877 C106.560787,30.8198293 106.563354,30.0118725 106.385636,29.2330571 C106.301686,28.8655432 106.207013,28.5054279 106.073386,28.1599588 C105.672956,27.1240045 104.918148,26.6995667 103.976564,26.8200582 C103.020786,26.9425125 102.263714,27.6112549 102.173269,28.649172 C102.073916,29.7906696 102.090828,30.9504371 102.159378,32.0961624 C102.219473,33.1031263 102.904975,33.8478175 103.707949,33.9772174 C104.771988,34.148442 105.664954,33.7055833 106.061005,32.6765746 C106.194934,32.3288407 106.29172,31.9667625 106.378238,31.5975877 M102.040548,35.2142927 L102.040548,40.874369 L98.9139615,40.874369 L98.9139615,24.5050529 L101.511775,24.5050529 C101.589535,24.9557632 101.668957,25.415382 101.740678,25.8309113 C102.383752,25.3957531 102.996627,24.7683825 103.736184,24.5221149 C105.622373,23.8944423 107.52034,24.30061 108.655345,26.2882653 C110.087653,28.79654 110.079649,31.4112639 108.846953,33.9883908 C107.660007,36.469487 104.361743,37.4086556 102.040548,35.2142927" id="Fill-3" fill="#015999"></path>
                <polygon id="Fill-5" fill="#015999" points="3.16727816 33.640687 9.02228468 33.640687 9.02228468 36.2033187 -7.54958649e-05 36.2033187 -7.54958649e-05 20.1322113 8.64827819 20.1322113 8.64827819 22.6361073 3.1536889 22.6361073 3.1536889 26.5442264 8.34342587 26.5442264 8.34342587 29.1233162 3.16727816 29.1233162"></polygon>
                <path d="M60.8349179,24.4689809 C61.9176796,24.4689809 62.898069,24.4395375 63.8736266,24.4946495 C64.0622153,24.505219 64.3318865,24.8186778 64.395001,25.0406357 C65.0845803,27.4629961 65.7397335,29.8953219 66.4084758,32.323722 C66.4262928,32.3887995 66.4904644,32.4413447 66.588307,32.5757273 C66.9283403,31.1769398 67.2544825,29.8476086 67.573981,28.5169184 C67.8933286,27.1863792 68.2061835,25.8544811 68.5270409,24.5014441 L71.8017497,24.5014441 C71.2423253,26.2330174 70.7399757,27.9487365 70.1337439,29.6268586 C69.1692087,32.2972985 68.2002948,34.9697013 67.1075676,37.5888039 C66.4013792,39.2814213 65.1316897,40.5311799 63.3807895,41.2142665 C63.1281803,41.3130151 62.8560932,41.3619364 62.5015646,41.4587221 C62.2263067,40.5882547 61.9608632,39.7481367 61.7390564,39.0470821 C62.5936696,38.3845304 63.4254831,37.8314476 64.1426938,37.1566655 C64.7957331,36.5418272 64.9826608,35.813594 64.6100132,34.8517767 C63.3665963,31.6421453 62.2349132,28.3894814 61.0615565,25.1528225 C60.9945161,24.9678577 60.9374412,24.7791179 60.8349179,24.4689809" id="Fill-8" fill="#015999"></path>
                <path d="M17.0642707,30.3690133 C16.0231826,30.6679768 15.1628317,30.8213845 14.3870362,31.1653437 C13.661068,31.4874091 13.4240109,32.3998521 13.6772241,33.2559753 C13.8659638,33.8945193 14.3503452,34.1730991 14.9689584,34.2091861 C15.8318762,34.2594663 16.6701822,33.6669747 16.8489564,32.7956014 C16.9922476,32.0971137 16.9828862,31.3673706 17.0642707,30.3690133 M16.8183051,28.5451841 C16.874776,27.2048304 16.4408258,26.5768558 15.2289662,26.5806306 C14.1386548,26.5841034 13.0490984,26.8700817 11.8413155,27.0490069 C11.7075368,26.6043363 11.5071709,25.9387647 11.2962354,25.237559 C13.368446,24.2262164 15.4568126,23.9518644 17.5959126,24.6619786 C19.0621933,25.1489269 20.000758,26.7944348 20.0122333,28.6510293 C20.0235578,30.4359026 20.0019659,32.2212288 20.0232558,34.0059512 C20.0315603,34.7245208 20.1155117,35.4421846 20.1703217,36.2379111 C19.305743,36.2379111 18.5065438,36.257842 17.7102133,36.219188 C17.5690361,36.2123934 17.3964525,35.983037 17.3162759,35.818456 C17.2265868,35.634548 17.2255299,35.4074565 17.1702669,35.1157404 C15.9485927,36.3155208 14.5800037,36.7349758 13.0371701,36.3330358 C11.7214281,35.9902846 10.8758744,35.0980744 10.5935198,33.754248 C10.3140341,32.4249167 10.5814405,31.2088293 11.5631888,30.2230042 C12.7901476,28.9910626 14.3832614,28.6917971 16.0255985,28.5480529 C16.2712621,28.5266121 16.5202475,28.5451841 16.8183051,28.5451841" id="Fill-10" fill="#015999"></path>
                <path d="M34.5355245,29.0885279 L38.583311,29.0885279 C38.7371716,27.7543648 38.0441195,26.5040022 36.7122214,26.4395288 C35.5735927,26.3844168 34.6161541,27.5449393 34.5355245,29.0885279 M40.9809088,35.7522461 C39.8135917,36.3664805 38.5802912,36.4877269 37.3675255,36.4936155 C36.0927023,36.4999572 34.8281465,36.2955144 33.7176023,35.535724 C32.3739268,34.6163353 31.7219445,33.2780955 31.5413584,31.7479453 C31.3074722,29.7676887 31.5461901,27.8519055 32.826449,26.1831448 C34.1212032,24.4955102 35.8811629,24.024265 37.8473772,24.3507091 C39.6465947,24.6495218 40.739322,25.8662131 41.2155499,27.6005043 C41.5486376,28.8135718 41.7494567,30.0501942 41.397495,31.3817903 L34.5714605,31.3817903 C34.52722,32.7171612 35.4049349,33.8417476 36.7469495,33.94563 C37.7986069,34.0270145 38.8726112,33.8266485 39.9360459,33.743603 C40.1071196,33.7303158 40.2753243,33.6762608 40.5135893,33.6265845 C40.6668459,34.3240153 40.8154218,34.9994013 40.9809088,35.7522461" id="Fill-12" fill="#015999"></path>
                <polygon id="Fill-14" fill="#015999" points="72.1563538 22.7919912 72.1563538 20.1034324 83.2412611 20.1034324 83.2412611 22.759528 79.2510025 22.759528 79.2510025 36.1968866 76.1555209 36.1968866 76.1555209 22.7919912"></polygon>
                <path d="M22.6278179,33.6263882 C23.7157134,33.8089372 24.6843253,34.0047735 25.6622988,34.1229999 C26.2482977,34.1939661 26.7914151,33.9901273 26.9496543,33.3469024 C27.1094036,32.697789 26.8916735,32.1543698 26.2576593,31.8421188 C25.7204306,31.5777323 25.1718777,31.3362965 24.6378199,31.0658703 C22.6956132,30.0823102 21.9201197,28.4617158 22.5882581,26.7173083 C23.1090286,25.3582317 24.1788051,24.5227944 25.5632482,24.3852409 C26.7042928,24.2716951 27.8864071,24.5197746 29.0443627,24.658083 C29.4376962,24.7048904 29.6288517,24.9581036 29.4496246,25.4234601 C29.2543922,25.9298863 29.1533788,26.4728527 29.0122015,26.9963411 C28.2570918,26.8447453 27.54124,26.6635553 26.8140638,26.5657126 C26.1392817,26.4751175 25.5153839,26.6572136 25.3400825,27.4085484 C25.1708207,28.1343657 25.7086533,28.5026346 26.2591692,28.7851401 C26.7899051,29.0573782 27.359295,29.2545734 27.8894269,29.5280195 C29.5047365,30.3619469 30.2722275,31.8446857 29.9614866,33.4793222 C29.680038,34.9607022 28.3568973,36.1372298 26.7070106,36.3869701 C25.3224164,36.5966976 23.976929,36.4636739 22.6599791,35.9848791 C22.2107787,35.821657 22.0176603,35.5986422 22.2073059,35.0946318 C22.3987635,34.5857897 22.5104973,34.0470511 22.6278179,33.6263882" id="Fill-16" fill="#015999"></path>
                <path d="M87.6225281,26.3837977 C88.9669583,24.5367158 90.0506259,23.9573606 91.2627874,24.3928207 L91.2627874,27.2486784 C89.4714217,27.1736355 88.4526804,27.750273 88.1558303,29.0632971 C88.0350377,29.5969019 88.0074057,30.1596481 88.0018194,30.709711 C87.9835494,32.518441 87.9950247,34.327171 87.9950247,36.1876912 L84.880216,36.1876912 L84.880216,24.5249385 L87.4555307,24.5249385 C87.5089818,25.119846 87.5619805,25.7085627 87.6225281,26.3837977" id="Fill-18" fill="#015999"></path>
                <polygon id="Fill-20" fill="#015999" points="93.0145332 36.1937761 96.0597351 36.1937761 96.0597351 24.4899537 93.0145332 24.4899537"></polygon>
                <path d="M125.13955,41.2827261 C126.423131,41.2405994 126.824316,40.0448959 127.653412,39.5245784 C127.742346,39.6192502 127.807726,39.6603199 127.80244,39.6876494 C127.647523,40.4868487 126.123413,41.9076809 125.339765,41.9987289 C124.848288,42.0558038 124.45133,41.88775 124.376589,41.3899302 C124.285088,40.7808296 124.284031,40.1546669 124.285541,39.5360538 C124.2869,38.9443171 124.341559,38.3527315 124.258362,37.7093557 C122.871503,38.6785717 122.366587,40.3003739 121.321271,41.6839112 C120.673819,40.3412927 120.979124,39.0483505 120.83236,37.6232905 C120.491119,37.960455 120.191098,38.1713905 120.005379,38.4567648 C119.4606,39.294618 118.970179,40.1673502 118.439141,41.0147158 C118.272446,41.2804613 118.044901,41.5083077 117.84514,41.7536693 C117.747448,41.7122976 117.649606,41.6707749 117.551763,41.6294031 C117.615632,41.0326838 117.644924,40.4299248 117.751222,39.8407551 C117.914747,38.9342006 118.102429,38.0293072 118.339939,37.1399659 C118.430384,36.8006874 118.6309,36.442686 118.888039,36.2130276 C119.063492,36.0561472 119.42406,36.1067294 119.702036,36.0644518 C119.693278,36.3200807 119.733442,36.589601 119.665496,36.8283189 C119.526584,37.3158713 119.329539,37.7868144 119.291188,38.3284218 C119.620652,37.9586431 119.918709,37.5523243 120.291356,37.2331277 C120.509389,37.0462 120.924012,36.8396433 121.109279,36.9303893 C121.31644,37.0315538 121.444934,37.4534247 121.464864,37.7454427 C121.513937,38.4631064 121.48102,39.1863569 121.48102,40.1039336 C122.041653,39.3403684 122.480586,38.7256811 122.938544,38.1259419 C123.19523,37.7896833 123.436666,37.4096371 123.772924,37.1766569 C124.044106,36.9889741 124.523655,36.8351135 124.770979,36.95485 C125.021777,37.0765493 125.22471,37.5490025 125.231958,37.8727288 C125.251285,38.746216 125.15012,39.62227 125.108295,40.4977201 C125.09682,40.737948 125.126112,40.9798367 125.13955,41.2827261" id="Fill-22" fill="#000000"></path>
                <path d="M116.201549,38.9631458 C116.201549,38.8624343 116.232653,38.7484355 116.195963,38.6638801 C116.155044,38.5696613 116.112011,38.4761974 116.067619,38.3834885 C115.878276,37.9877392 115.361734,37.8421831 115.018378,38.1150252 C114.969155,38.1541321 114.931406,38.1979196 114.910117,38.2488038 C114.610851,38.9655617 114.340274,39.7307878 114.271271,40.4963159 C114.211629,41.1581126 114.806989,41.3740308 115.332592,40.9548778 C115.968267,40.4481495 116.193395,39.7499637 116.201549,38.9631458 M111.247057,38.5767579 C111.31606,38.3312454 111.41496,38.1044558 111.433684,37.8714755 C111.447877,37.6954192 111.412091,37.4165374 111.302622,37.3552347 C111.173977,37.2830608 110.904608,37.3424005 110.759958,37.4393372 C110.073097,37.900315 109.584337,39.8873662 109.951246,40.622847 C110.230581,41.1825733 110.81356,41.3042727 111.578485,40.9568407 C112.574274,40.5047714 113.141853,39.6660124 113.57988,38.7165763 C113.943015,37.9296074 114.341331,37.2203992 115.284275,36.9540497 C115.984121,36.7564016 116.358732,37.0718233 116.61436,37.5995395 C117.1685,38.7434528 116.555172,40.8013192 115.48766,41.5115843 C114.388742,42.2429883 113.491247,41.7880502 113.293901,40.3761265 C112.879731,40.7040805 112.50361,41.0709904 112.06498,41.333867 C111.298394,41.7936369 110.450123,42.1765519 109.598077,41.626187 C108.692881,41.041547 108.68352,40.0765588 108.798575,39.123801 C108.986258,37.5681331 110.069624,36.527951 111.296733,36.6701853 C111.879864,36.7379805 112.053957,37.1201407 112.066791,37.5987845 C112.085363,38.2871558 111.862651,38.5362921 111.247057,38.5767579" id="Fill-23" fill="#000000"></path>
                <path d="M94.5396859,22.9527619 C93.5284944,22.9481921 92.8272883,22.2453257 92.851296,21.2607085 C92.8756055,20.2634081 93.5666953,19.6230521 94.6038571,19.6366414 C95.5463481,19.6488717 96.2493655,20.3512853 96.2617465,21.2930208 C96.2742788,22.2456276 95.5360803,22.9571007 94.5396859,22.9527619" id="Fill-24" fill="#015999"></path>
                <path d="M107.354672,41.035447 C107.025661,41.3174995 106.77124,41.6456045 106.665998,41.6033269 C106.437095,41.5109199 106.189921,41.2516671 106.136168,41.017781 C106.10446,40.8796235 106.434528,40.5063719 106.589747,40.5133175 C106.808535,40.523132 107.015846,40.7872166 107.354672,41.035447" id="Fill-25" fill="#015999"></path>
                <path d="M81.1021612,2.54745708 C79.1274912,2.36385113 77.1508584,2.20138402 75.1745276,2.03468914 C72.5225087,1.81107038 69.8706409,1.5841298 67.2180181,1.36821161 C64.5151149,1.14821666 61.811004,0.943924836 59.1081009,0.725439797 C56.1551555,0.486721862 53.203418,0.235622605 50.2500197,0.00294433886 C50.0036011,-0.0163826034 49.749331,0.0628880582 49.3171927,0.12041591 C49.7565787,0.671082772 50.0677726,1.08691402 50.4055411,1.47994551 C52.1738054,3.53690593 53.9354259,5.60005702 55.7394752,7.62530917 C55.9522226,7.86402711 56.4370571,8.03464777 56.7523278,7.9810457 C60.5256113,7.3397838 64.2902882,6.64990256 68.057532,5.97361057 C69.4024155,5.73217478 70.7477518,5.49345685 72.0930882,5.25353098 C71.9174848,5.45223611 71.7150049,5.53377164 71.5078443,5.60156693 C67.3758044,6.95218801 63.2457274,8.30899976 59.1079499,9.64165282 C58.6249274,9.79732531 58.2563565,10.0337783 57.9644895,10.4112577 L65.3025369,18.5408038 C65.6313969,18.7401129 65.903786,18.646951 66.2910798,18.2679617 C71.3419043,13.3260022 76.3872932,8.37830497 81.4257364,3.42336014 C81.5863917,3.26527179 81.6522241,3.01069973 81.762146,2.8011232 C81.542453,2.71354799 81.3280448,2.56844493 81.1021612,2.54745708" id="Fill-26" fill="#00A3D6"></path>
                <path d="M57.7934007,10.6597146 C56.9985802,11.9932736 56.1725044,13.3085626 55.3340473,14.6150941 C55.2017785,14.8211978 54.9541521,15.0609727 54.735969,15.0873963 C52.4267014,15.3668819 50.1181888,15.6980069 47.7988047,15.8370702 C43.2883796,16.1074964 38.7542487,15.9311381 34.2637545,16.6075811 C31.2706452,17.0584424 28.4099559,17.8488842 25.8216555,19.4835207 C24.1708628,20.5259676 22.8444004,21.8865542 21.7255516,23.4636629 C23.9582665,21.0775405 26.8296764,19.9733379 29.9185143,19.3379647 C34.7054053,18.3531965 39.5942158,18.3965312 44.4356148,17.9582022 C46.7542439,17.7481726 49.0739299,17.4893728 51.3700613,17.1129505 C54.7379319,16.5607736 57.9578308,15.5192326 60.9412764,13.741154 C62.2387484,15.201697 63.5196113,16.645631 64.8030411,18.0868471 C64.9920828,18.2991415 65.1531909,18.4502842 65.3025217,18.5407283 L57.9644743,10.4111822 C57.9046817,10.488641 57.8468518,10.5697235 57.7934007,10.6597146" id="Fill-27" fill="#015999"></path>
            </g>
        </g>
    </g>
</svg>