<?xml version="1.0" encoding="UTF-8"?>
<svg width="181px" height="49px" viewBox="0 0 181 49" version="1.1" xmlns="http://www.w3.org/2000/svg" xmlns:xlink="http://www.w3.org/1999/xlink">
    <!-- Generator: Sketch 62 (91390) - https://sketch.com -->
    <title>logo-mwc</title>
    <desc>Created with Sketch.</desc>
    <defs>
        <polygon id="path-1" points="0 48.5303315 180.529081 48.5303315 180.529081 0.0855534709 0 0.0855534709"></polygon>
    </defs>
    <g id="Page-7" stroke="none" stroke-width="1" fill="none" fill-rule="evenodd">
        <g id="assets" transform="translate(-706.000000, -174.000000)">
            <g id="logo-mwc" transform="translate(706.000000, 174.000000)">
                <polygon id="Fill-1" fill="#FEFEFE" points="0 48.6949343 48.4377736 48.6949343 48.4377736 0.255909944 0 0.255909944"></polygon>
                <polygon id="Fill-2" fill="#2A2422" points="0.605378361 48.0888055 47.8328956 48.0888055 47.8328956 0.860537836 0.605378361 0.860537836"></polygon>
                <g id="Group-34" transform="translate(0.000000, 0.164603)">
                    <path d="M13.1489681,32.3548718 L13.1489681,33.0377986 C13.1489681,33.8755722 12.9500938,34.4141588 12.5280801,34.8504315 C12.0067542,35.3877674 10.9881176,35.80803 8.92507817,35.80803 C6.57460913,35.80803 5.62976861,35.3027142 5.08342714,34.7386116 C4.61188243,34.2520575 4.33020638,33.5593746 4.33020638,32.6790744 C4.33020638,31.8588118 4.57886179,31.1318574 5.08342714,30.6105316 C5.62976861,30.046429 6.72395247,29.5508693 8.92507817,29.5508693 C10.6814259,29.5508693 12.0390244,29.8670669 12.7429644,30.2342964 L12.7429644,31.4488055 C11.9061914,30.9780113 10.5243277,30.6195372 8.92507817,30.6195372 C7.31882427,30.6195372 6.46604128,30.9187242 6.08605378,31.3114697 C5.77911194,31.6274171 5.62226391,32.0644403 5.62226391,32.6790744 C5.62226391,33.3289806 5.79612258,33.756748 6.08605378,34.0549343 C6.46604128,34.4486804 7.17073171,34.7721326 8.92507817,34.7721326 C10.3171982,34.7721326 11.1947467,34.5169731 11.5254534,34.1747592 C11.7493433,33.9443652 11.8318949,33.7139712 11.8318949,33.4137836 L8.27191995,33.4137836 L8.27191995,32.3548718 L13.1489681,32.3548718 Z" id="Fill-3" fill="#FEFEFE"></path>
                    <path d="M20.4961101,34.3968981 C20.6116823,34.2770732 20.6534584,34.1317323 20.6534584,33.9778862 C20.6534584,33.7987742 20.6116823,33.6619387 20.5121201,33.5593746 C20.3300063,33.3715072 19.9905441,33.2947092 17.9450156,33.1831395 C15.6345716,33.0635647 14.931132,32.8674422 14.5341338,32.4569356 C14.3019887,32.217536 14.2034271,31.8838274 14.2034271,31.4565604 C14.2034271,31.0210381 14.2939837,30.6105316 14.6084303,30.2855785 C15.0134334,29.8670669 15.8101814,29.5763852 17.8467042,29.5763852 C19.4612133,29.5763852 20.678474,29.816035 21.4477048,30.131232 L21.4477048,31.2519325 C20.5709068,30.867192 19.1137461,30.5852658 17.8467042,30.5852658 C16.2647154,30.5852658 15.8101814,30.7391119 15.6178111,30.9349844 C15.5194997,31.0372983 15.4774734,31.1741338 15.4774734,31.3377361 C15.4774734,31.4913321 15.5194997,31.619162 15.6030519,31.7044653 C15.7761601,31.8838274 16.1654034,31.9866417 18.0533333,32.0807004 C20.4961101,32.2087805 21.1747842,32.3973984 21.5722827,32.8074046 C21.8041776,33.0463039 21.9292558,33.4137836 21.9292558,33.8410507 C21.9292558,34.286329 21.8369481,34.6963352 21.5227517,35.0210381 C21.1097436,35.4483052 20.2892308,35.7812633 18.1193746,35.7812633 C16.5128705,35.7812633 14.9388868,35.5173483 14.0450782,35.1148468 L14.0450782,33.9956473 C14.9073671,34.4229143 16.7367605,34.7726329 18.1193746,34.7726329 C19.7428893,34.7726329 20.2642151,34.636798 20.4961101,34.3968981" id="Fill-5" fill="#FEFEFE"></path>
                    <polygon id="Fill-7" fill="#FEFEFE" points="33.1348593 35.6708943 31.9538712 35.6708943 31.9538712 30.6625141 28.8604378 35.6708943 27.2609381 35.6708943 24.1677548 30.6625141 24.1677548 35.6708943 22.9942714 35.6708943 22.9942714 29.6876548 24.9219762 29.6876548 28.0847029 34.8503815 31.2536836 29.6876548 33.1348593 29.6876548"></polygon>
                    <path d="M36.8222139,33.2008505 L40.3804378,33.2008505 L38.5973233,30.404853 L36.8222139,33.2008505 Z M39.4733709,29.6531332 L43.384065,35.6711445 L41.9541714,35.6711445 L41.0546091,34.2602627 L36.1482927,34.2602627 L35.2484803,35.6711445 L33.873621,35.6711445 L37.7863164,29.6531332 L39.4733709,29.6531332 Z" id="Fill-9" fill="#FEFEFE"></path>
                    <polygon id="Fill-11" fill="#FEFEFE" points="42.0132083 29.8681926 41.6207129 29.8681926 41.6207129 29.6498061 42.6238399 29.6498061 42.6238399 29.8681926 42.2315947 29.8681926 42.2315947 30.993646 42.0132083 30.993646"></polygon>
                    <polygon id="Fill-13" fill="#FEFEFE" points="42.8535835 29.6498061 43.0844778 29.6498061 43.4614634 30.2847029 43.8379487 29.6498061 44.0695935 29.6498061 44.0695935 30.993646 43.8514572 30.993646 43.8514572 30.0300438 43.4614634 30.6636898 43.4539587 30.6636898 43.067217 30.0327955 43.067217 30.993646 42.8535835 30.993646"></polygon>
                    <mask id="mask-2" fill="white">
                        <use xlink:href="#path-1"></use>
                    </mask>
                    <g id="Clip-16"></g>
                    <polygon id="Fill-15" fill="#851919" mask="url(#mask-2)" points="4.51532208 26.6231395 8.68467792 26.6231395 8.68467792 21.7048155 4.51532208 21.7048155"></polygon>
                    <polygon id="Fill-17" fill="#AF1F24" mask="url(#mask-2)" points="10.2524078 26.622389 16.5058161 26.622389 16.5058161 19.2477799 10.2524078 19.2477799"></polygon>
                    <polygon id="Fill-18" fill="#D22027" mask="url(#mask-2)" points="18.0727955 26.6231395 27.443152 26.6231395 27.443152 15.559975 18.0727955 15.559975"></polygon>
                    <polygon id="Fill-19" fill="#E11F26" mask="url(#mask-2)" points="29.2012508 26.6231395 43.0699187 26.6231395 43.0699187 10.0310194 29.2012508 10.0310194"></polygon>
                    <polygon id="Fill-20" fill="#2A2422" mask="url(#mask-2)" points="55.062389 0.694459037 63.9809631 0.694459037 71.2467542 12.4850782 78.5125453 0.694459037 87.4316198 0.694459037 87.4316198 31.1494934 79.0346216 31.1494934 79.0346216 13.6595622 71.2467542 25.5805128 71.0728956 25.5805128 63.3285553 13.7466166 63.3285553 31.1494934 55.062389 31.1494934"></polygon>
                    <polygon id="Fill-21" fill="#2A2422" mask="url(#mask-2)" points="90.7800125 0.694459037 99.6988368 0.694459037 105.006904 18.3149719 110.880575 0.607404628 118.146116 0.607404628 124.019537 18.3149719 129.327355 0.694459037 138.07232 0.694459037 127.891707 31.3668793 120.538862 31.3668793 114.404278 13.833671 108.313221 31.3668793 100.960625 31.3668793"></polygon>
                    <path d="M138.636098,16.0089556 L138.636098,15.9219012 C138.636098,7.04660413 145.466867,0.0855034396 154.690131,0.0855034396 C160.91177,0.0855034396 164.914271,2.69588493 167.611957,6.43747342 L161.259737,11.3537961 C159.519149,9.17843652 157.517899,7.78631645 154.603327,7.78631645 C150.339412,7.78631645 147.337286,11.3970732 147.337286,15.8350969 L147.337286,15.9219012 C147.337286,20.4902564 150.339412,24.0579862 154.603327,24.0579862 C157.779062,24.0579862 159.649981,22.5788118 161.477373,20.359925 L167.829093,24.8842527 C164.958049,28.8437273 161.085629,31.7587992 154.341914,31.7587992 C145.640725,31.7587992 138.636098,25.1021388 138.636098,16.0089556" id="Fill-22" fill="#2A2422" mask="url(#mask-2)"></path>
                    <path d="M60.3420388,46.1571982 C61.7028893,46.1571982 62.529656,45.6221138 62.529656,44.6014759 L62.529656,44.5689556 C62.529656,43.6133583 61.7676798,43.0457536 60.1961976,43.0457536 L57.0364728,43.0457536 L57.0364728,46.1571982 L60.3420388,46.1571982 Z M59.7586742,41.3607004 C61.0389744,41.3607004 61.8975109,40.8583865 61.8975109,39.8219887 L61.8975109,39.7894684 C61.8975109,38.897661 61.1845654,38.3468168 59.9045153,38.3468168 L57.0364728,38.3468168 L57.0364728,41.3607004 L59.7586742,41.3607004 Z M55.0757473,36.5812133 L60.1639275,36.5812133 C61.4602376,36.5812133 62.4808755,36.9379362 63.1290306,37.5853408 C63.6310944,38.0876548 63.8907567,38.7032896 63.8907567,39.4652658 L63.8907567,39.4977861 C63.8907567,40.8583865 63.1130206,41.5875922 62.2702439,42.0251157 C63.5990744,42.4793996 64.5226517,43.2408755 64.5226517,44.7795872 L64.5226517,44.8123577 C64.5226517,46.8381238 62.8536085,47.9238024 60.3260288,47.9238024 L55.0757473,47.9238024 L55.0757473,36.5812133 Z" id="Fill-23" fill="#E11F26" mask="url(#mask-2)"></path>
                    <path d="M71.8299437,44.3420888 C71.3276298,44.1484678 70.6309443,44.0026266 69.8692183,44.0026266 C68.6376986,44.0026266 67.908743,44.5041901 67.908743,45.3304565 L67.908743,45.3629769 C67.908743,46.1732333 68.6376986,46.6275172 69.561526,46.6275172 C70.8573358,46.6275172 71.8299437,45.8983114 71.8299437,44.8281426 L71.8299437,44.3420888 Z M71.7814134,47.9230769 L71.7814134,46.8699187 C71.1980488,47.5673546 70.3067417,48.1014384 69.0104315,48.1014384 C67.3901689,48.1014384 65.9642777,47.1783615 65.9642777,45.460788 L65.9642777,45.4282677 C65.9642777,43.5325829 67.438449,42.6252658 69.431945,42.6252658 C70.468843,42.6252658 71.1332583,42.7711069 71.7974234,42.9817386 L71.7974234,42.819137 C71.7974234,41.6368981 71.0522076,40.988743 69.6911069,40.988743 C68.7350094,40.988743 68.0218136,41.1993746 67.2443277,41.5225766 L66.7092433,39.9510944 C67.6493308,39.5303315 68.5726579,39.2386492 69.9665291,39.2386492 C72.4941088,39.2386492 73.7258787,40.5667292 73.7258787,42.8514071 L73.7258787,47.9230769 L71.7814134,47.9230769 Z" id="Fill-24" fill="#E11F26" mask="url(#mask-2)"></path>
                    <path d="M76.0586617,39.3682802 L78.019137,39.3682802 L78.019137,41.2962351 C78.5539712,40.0164353 79.542339,39.1413884 81.0492808,39.2061789 L81.0492808,41.2802251 L80.93596,41.2802251 C79.2183865,41.2802251 78.019137,42.3976735 78.019137,44.6668418 L78.019137,47.923127 L76.0586617,47.923127 L76.0586617,39.3682802 Z" id="Fill-25" fill="#E11F26" mask="url(#mask-2)"></path>
                    <path d="M81.988868,43.6942339 L81.988868,43.6617136 C81.988868,41.2309443 83.868793,39.1894184 86.4286429,39.1894184 C88.0491557,39.1894184 89.0535335,39.7895435 89.8475297,40.6645904 L88.6322702,41.9771607 C88.0328956,41.3445153 87.4007505,40.9069919 86.4126329,40.9069919 C84.9864916,40.9069919 83.9493433,42.1385116 83.9493433,43.6291932 L83.9493433,43.6617136 C83.9493433,45.1854159 85.0027517,46.4166854 86.5096936,46.4166854 C87.433521,46.4166854 88.1136961,45.9794121 88.729581,45.3467667 L89.9123202,46.5137461 C89.0700438,47.4530832 88.0814259,48.1182489 86.4126329,48.1182489 C83.868793,48.1182489 81.988868,46.1252533 81.988868,43.6942339" id="Fill-26" fill="#E11F26" mask="url(#mask-2)"></path>
                    <path d="M97.3334334,43.0461038 C97.2036023,41.7820638 96.4583865,40.7936961 95.1618261,40.7936961 C93.9628268,40.7936961 93.1205503,41.7172733 92.9421889,43.0461038 L97.3334334,43.0461038 Z M90.9979737,43.6777486 L90.9979737,43.6454784 C90.9979737,41.1986992 92.7315572,39.1899437 95.1783365,39.1899437 C97.9005378,39.1899437 99.2776485,41.3287805 99.2776485,43.7913196 C99.2776485,43.9694309 99.2616385,44.1477924 99.2456285,44.3426642 L92.958449,44.3426642 C93.1693308,45.7362852 94.1576986,46.5132708 95.4212383,46.5132708 C96.377586,46.5132708 97.0577611,46.1575485 97.7386867,45.4926329 L98.8889056,46.5132708 C98.0786492,47.4858787 96.9607004,48.1175235 95.3892183,48.1175235 C92.9096685,48.1175235 90.9979737,46.3196498 90.9979737,43.6777486 L90.9979737,43.6777486 Z" id="Fill-27" fill="#E11F26" mask="url(#mask-2)"></path>
                    <polygon id="Fill-28" fill="#E11F26" mask="url(#mask-2)" points="101.367605 47.923202 103.32858 47.923202 103.32858 36.0945591 101.367605 36.0945591"></polygon>
                    <path d="M112.580263,43.6942339 L112.580263,43.6617136 C112.580263,42.155272 111.494584,40.9069919 109.955372,40.9069919 C108.38389,40.9069919 107.379012,42.1385116 107.379012,43.6291932 L107.379012,43.6617136 C107.379012,45.1523952 108.46444,46.4166854 109.987642,46.4166854 C111.575635,46.4166854 112.580263,45.1691557 112.580263,43.6942339 M105.418286,43.6942339 L105.418286,43.6617136 C105.418286,41.2154346 107.363002,39.1894184 109.987642,39.1894184 C112.612533,39.1894184 114.540738,41.1829143 114.540738,43.6291932 L114.540738,43.6617136 C114.540738,46.092733 112.596523,48.1182489 109.955372,48.1182489 C107.346492,48.1182489 105.418286,46.1252533 105.418286,43.6942339" id="Fill-29" fill="#E11F26" mask="url(#mask-2)"></path>
                    <path d="M116.533659,39.3682802 L118.494134,39.3682802 L118.494134,40.6971107 C119.045228,39.8861038 119.839225,39.1894184 121.167805,39.1894184 C123.09601,39.1894184 124.214209,40.4862289 124.214209,42.4794747 L124.214209,47.923127 L122.253483,47.923127 L122.253483,43.0628393 C122.253483,41.7337586 121.589068,40.9717824 120.422339,40.9717824 C119.28813,40.9717824 118.494134,41.7662789 118.494134,43.0946091 L118.494134,47.923127 L116.533659,47.923127 L116.533659,39.3682802 Z" id="Fill-30" fill="#E11F26" mask="url(#mask-2)"></path>
                    <path d="M131.862089,44.3420888 C131.359525,44.1484678 130.662839,44.0026266 129.901113,44.0026266 C128.669844,44.0026266 127.940638,44.5041901 127.940638,45.3304565 L127.940638,45.3629769 C127.940638,46.1732333 128.669844,46.6275172 129.593671,46.6275172 C130.889481,46.6275172 131.862089,45.8983114 131.862089,44.8281426 L131.862089,44.3420888 Z M131.813558,47.9230769 L131.813558,46.8699187 C131.230194,47.5673546 130.338637,48.1014384 129.042577,48.1014384 C127.422314,48.1014384 125.996423,47.1783615 125.996423,45.460788 L125.996423,45.4282677 C125.996423,43.5325829 127.470594,42.6252658 129.46409,42.6252658 C130.500988,42.6252658 131.165403,42.7711069 131.829318,42.9817386 L131.829318,42.819137 C131.829318,41.6368981 131.084353,40.988743 129.723002,40.988743 C128.767154,40.988743 128.053959,41.1993746 127.276473,41.5225766 L126.741388,39.9510944 C127.681476,39.5303315 128.604803,39.2386492 129.998674,39.2386492 C132.526254,39.2386492 133.758024,40.5667292 133.758024,42.8514071 L133.758024,47.9230769 L131.813558,47.9230769 Z" id="Fill-31" fill="#E11F26" mask="url(#mask-2)"></path>
                    <polygon id="Fill-32" fill="#2A2422" mask="url(#mask-2)" points="173.119074 1.59149468 171.787242 1.59149468 171.787242 0.703689806 175.413759 0.703689806 175.413759 1.59149468 174.081926 1.59149468 174.081926 5.08042527 173.119074 5.08042527"></polygon>
                    <polygon id="Fill-33" fill="#2A2422" mask="url(#mask-2)" points="176.15247 0.703739837 177.189869 0.703739837 178.340588 2.5543965 179.491307 0.703739837 180.529206 0.703739837 180.529206 5.0804753 179.572358 5.0804753 179.572358 2.22318949 178.340588 4.09260788 178.315322 4.09260788 177.09606 2.24170106 177.09606 5.0804753 176.15247 5.0804753"></polygon>
                </g>
            </g>
        </g>
    </g>
</svg>