<?xml version="1.0" encoding="UTF-8"?>
<svg width="103px" height="44px" viewBox="0 0 103 44" version="1.1" xmlns="http://www.w3.org/2000/svg" xmlns:xlink="http://www.w3.org/1999/xlink">
    <!-- Generator: Sketch 62 (91390) - https://sketch.com -->
    <title>logo-air-asia</title>
    <desc>Created with Sketch.</desc>
    <g id="FINAL-LAYOUT" stroke="none" stroke-width="1" fill="none" fill-rule="evenodd">
        <g id="assets" transform="translate(-978.000000, -953.000000)" fill="#EB0D06">
            <path d="M1004.361,953.090216 L1004.43934,953.092676 C1005.38551,953.178042 1005.2376,954.241945 1006.07443,955.204078 C1006.91091,956.166565 1007.02184,956.750195 1006.03056,959.298305 C1004.0004,964.516403 1004.16458,963.302404 1002.20979,971.44641 C1005.78464,970.837206 1008.90462,970.479338 1009.19512,970.436479 C1010.18835,970.290086 1011.88377,970.980953 1010.9905,972.974536 C1010.9905,972.974536 1010.04044,974.692266 1009.67616,975.424229 C1008.99998,976.646694 1008.13962,978.467781 1007.59913,979.69783 C1007.26899,980.423972 1007.12215,980.98238 1007.08977,981.386988 C1007.06837,981.65702 1007.1586,981.806058 1007.36612,981.767255 C1007.64229,981.71593 1008.04107,981.408506 1008.5253,980.886608 C1008.99485,980.320616 1010.58553,978.969572 1013.43111,974.018685 L1013.43111,974.018685 L1014.18461,972.420714 C1014.42682,971.943616 1014.77535,971.096832 1014.83975,970.719387 C1014.91971,970.139814 1014.93174,969.989188 1015.39881,969.685115 C1016.15338,969.193201 1017.50593,968.786124 1018.28685,969.311726 C1019.03115,969.811577 1018.83654,970.72309 1018.22723,971.837437 C1020.70145,968.952447 1021.33978,968.836391 1021.89159,968.73374 C1022.92852,968.539726 1025.27695,970.000652 1024.15033,971.358046 C1022.99398,972.750891 1021.68159,972.470276 1019.61764,973.361153 C1018.45546,973.863121 1017.55794,974.940252 1016.28341,976.838591 C1014.65805,979.30063 1013.92224,981.710462 1013.77681,983.530667 C1013.7685,984.063853 1013.73205,984.336355 1013.45942,984.520315 C1010.73326,986.358864 1009.89802,984.973427 1009.96224,983.290442 C1009.97746,982.892184 1010.12271,982.258111 1010.35695,981.485406 C1008.26788,984.734789 1006.41005,986.366095 1005.2008,986.592033 C1003.57721,986.894872 1002.65952,985.735373 1002.83202,983.577231 C1002.90987,982.599752 1003.2055,981.44819 1003.73024,979.988675 C1004.29002,978.52281 1005.16577,976.499243 1005.97801,974.853122 C1006.18713,974.42047 1006.38422,974.011277 1006.55813,973.637535 C1005.32924,973.885873 1003.57473,974.256969 1001.5168,974.739712 C1001.48849,974.810439 1001.46302,974.854709 1001.44179,974.860706 C1000.56833,979.076103 1000.49597,980.671076 1000.02483,984.352581 C999.8189,985.963075 1000.12285,987.696503 998.26979,987.964419 C996.416202,988.232158 995.795213,986.263091 995.779821,984.57411 C995.763898,982.857967 996.064308,980.79401 997.246132,975.802733 C995.315229,976.312637 993.278175,976.892386 991.25775,977.53669 C991.232451,977.578491 991.216174,977.603536 991.212636,977.604771 C987.867436,983.936686 984.557443,991.779089 984.011822,994.308856 C983.572884,996.343006 982.68227,996.968966 981.376071,996.376694 C980.069695,995.783893 979.308586,994.427205 979.786623,992.910896 C980.641323,990.198403 983.263098,984.089781 985.595786,979.711411 C985.575617,979.719877 985.596316,979.657087 985.646738,979.543677 C983.943708,980.234191 982.351253,980.972679 980.963671,981.754556 C980.051472,982.268341 978.897071,981.80059 978.675213,980.742332 C978.517578,979.989733 978.173115,978.51258 979.950982,977.707775 C982.62654,976.49695 985.528202,975.469028 988.429156,974.601609 C994.581366,963.900849 1002.22961,952.893018 1004.43934,953.092676 Z M1046.80445,953.090261 L1046.88261,953.092729 C1047.82878,953.178095 1047.68088,954.241821 1048.51753,955.204131 C1049.35401,956.166441 1049.46494,956.750247 1048.47365,959.298182 C1046.44244,964.519631 1046.60786,963.301046 1044.64936,971.462161 C1044.84291,971.431295 1045.03309,971.401487 1045.21815,971.373091 C1046.01465,971.250509 1048.59927,970.937088 1048.50267,972.051435 C1048.34592,973.866172 1047.68778,973.842008 1045.37225,974.350149 C1044.93933,974.445216 1044.47474,974.549454 1043.98874,974.660924 C1043.94893,974.77892 1043.91337,974.852645 1043.88524,974.860759 C1043.01143,979.076156 1042.93925,980.671128 1042.46793,984.352634 C1042.26235,985.962951 1042.5663,987.696556 1040.71271,987.964472 C1038.8593,988.232211 1038.21867,986.263144 1038.22292,984.573987 C1038.23017,981.592872 1039.69189,975.749873 1039.69595,975.71301 C1037.80964,976.206511 1035.78638,976.779382 1033.76649,977.425625 C1031.37453,981.636966 1027.00054,991.779142 1026.45492,994.308909 C1026.01616,996.343059 1025.12537,996.969019 1023.81917,996.37657 C1022.51279,995.783946 1021.78548,994.437311 1022.2299,992.910949 C1023.44994,988.721656 1028.04915,979.629802 1028.12398,979.46877 C1026.42131,980.174276 1024.82974,980.934459 1023.45525,981.745967 C1022.60214,982.249521 1021.5109,981.770307 1021.29116,980.712048 C1021.13494,979.95892 1020.79526,978.480886 1022.4599,977.69601 C1025.12095,976.441797 1028.0242,975.396414 1030.91348,974.529877 C1037.05896,963.851693 1044.67766,952.893423 1046.88261,953.092729 Z M1057.7169,971.897458 C1057.50371,972.840014 1056.99772,973.394718 1056.65131,973.766872 C1056.39973,974.037786 1055.67507,974.114686 1055.44932,973.784157 C1054.90175,972.98182 1054.5787,971.910862 1052.99084,972.551638 C1051.71649,973.066305 1051.6436,974.800085 1051.91729,975.643517 C1052.36295,976.99703 1054.16842,978.019485 1054.15321,979.970561 C1054.11322,985.013341 1049.67802,986.016394 1048.15456,986.179189 C1046.95841,986.306886 1044.34707,985.715319 1043.91043,983.629491 C1043.75651,982.954145 1044.7393,981.14223 1044.94612,980.827045 C1045.29961,980.287862 1045.84894,980.60728 1046.03524,980.880487 C1046.44587,981.481578 1048.64728,983.448352 1049.92217,982.176854 C1050.74007,981.361113 1049.47102,980.288215 1048.93973,979.415681 C1046.97557,976.192401 1049.62494,972.456571 1050.46354,971.632188 C1052.27379,969.853255 1053.54549,969.694163 1054.44247,969.667883 C1057.02037,969.583222 1057.91169,971.036212 1057.7169,971.897458 Z M1073.46062,966.310257 C1074.47066,966.170743 1075.29829,966.649958 1075.68769,967.61756 C1075.96351,968.403317 1076.02402,968.460815 1076.70427,968.762596 C1077.77534,969.207417 1078.13715,969.586274 1078.06408,970.156675 C1078.01259,970.559166 1077.86947,970.875762 1077.17983,971.992578 C1076.6933,972.850296 1076.16166,973.850704 1075.78234,974.624114 C1074.97382,976.272176 1074.52621,977.393578 1075.31067,977.67772 C1075.60861,977.78531 1076.15564,977.489174 1076.84386,976.740456 C1077.60267,975.914661 1078.13272,975.099625 1078.72487,974.136257 C1079.33312,973.146962 1080.61455,973.47414 1080.2731,974.386712 C1079.97587,975.177937 1079.40973,976.456313 1077.98977,978.201029 C1076.2342,980.42055 1074.62723,981.5065 1073.16517,981.707922 C1071.98104,981.8716 1071.15784,981.35905 1070.95544,980.266221 L1070.95544,980.266221 L1070.88113,980.046632 C1070.87193,979.84962 1070.78029,979.763725 1070.67626,979.777835 C1070.57152,979.792298 1070.49386,979.868669 1070.29783,980.060566 C1068.82479,981.681642 1067.67765,982.680109 1066.31961,982.867774 C1064.27636,983.149976 1063.08322,981.500504 1063.37584,979.10778 C1062.83093,979.949273 1062.25735,980.748258 1061.74552,981.336297 C1060.14228,983.172376 1058.83679,984.337695 1057.61781,984.505429 C1055.98148,984.731897 1055.12589,983.52848 1055.40118,981.381626 C1055.52555,980.408733 1055.87621,979.272516 1056.47013,977.839457 C1057.09855,976.401107 1058.07055,974.421811 1058.9601,972.816256 C1059.67592,971.498194 1060.36237,970.00799 1060.46179,969.499849 C1060.54831,969.092596 1060.59148,969.020634 1060.89136,968.814803 C1061.26943,968.531895 1062.02382,968.204188 1062.47921,968.166972 C1063.6368,968.072964 1065.16963,968.94003 1064.16826,970.73519 L1064.16826,970.73519 L1063.7732,971.416003 C1063.72119,971.554988 1063.02589,972.84818 1062.62694,973.562328 C1061.89308,974.750753 1060.94709,976.52898 1060.34892,977.731868 C1059.98393,978.442136 1059.81073,978.993136 1059.75907,979.39545 C1059.72457,979.663719 1059.80772,979.817519 1060.01666,979.788417 C1060.29531,979.75032 1060.70824,979.462121 1061.21671,978.963857 C1061.73402,978.398042 1062.05549,978.024476 1063.21467,976.446965 L1063.21467,976.446965 L1063.62742,975.895965 C1063.95543,975.444794 1066.60587,971.883401 1067.38661,971.005575 C1069.5169,968.380564 1071.92337,966.522438 1073.46062,966.310257 Z M1073.68978,969.462896 L1073.59898,969.470571 C1073.11174,969.537417 1072.03801,970.443992 1071.01754,971.738596 C1069.51443,973.594076 1067.50143,977.336608 1067.34274,978.577064 C1067.27816,979.080971 1067.47472,979.416087 1067.82272,979.368112 C1068.37984,979.290683 1069.34458,978.433141 1070.37408,977.071691 C1071.76379,975.297696 1073.91991,971.238745 1074.0618,970.131982 C1074.12655,969.62878 1073.98201,969.417834 1073.59898,969.470571 Z M1002.08082,959.829375 C999.297695,963.602773 996.311996,968.410619 993.611669,973.207177 C995.177409,972.82832 996.700689,972.494968 998.142939,972.203418 C999.303179,967.762964 1000.69571,963.21545 1002.08082,959.829375 Z M1044.52392,959.829428 C1041.75282,963.586423 1038.78057,968.369752 1036.08944,973.146027 C1037.66067,972.772991 1039.17599,972.452162 1040.59294,972.177367 C1041.75176,967.745203 1043.14182,963.208801 1044.52392,959.829428 Z M1012.49901,963.05657 C1013.83068,962.807879 1014.82798,963.64214 1014.72608,964.919635 C1014.62417,966.197129 1013.46145,967.433528 1012.12995,967.682043 C1010.79757,967.930381 1009.80063,967.095944 1009.90253,965.818626 C1010.00462,964.540954 1011.16698,963.30385 1012.49901,963.05657 Z M1065.12368,961.248288 C1066.45571,960.99995 1067.4523,961.834387 1067.3504,963.112058 C1067.24885,964.3892 1066.08631,965.625775 1064.75428,965.873761 C1063.42278,966.122275 1062.42566,965.288191 1062.52756,964.01052 C1062.62947,962.733378 1063.79201,961.496097 1065.12368,961.248288 Z" id="logo-air-asia"></path>
        </g>
    </g>
</svg>