<?xml version="1.0" encoding="UTF-8"?>
<svg width="131px" height="56px" viewBox="0 0 131 56" version="1.1" xmlns="http://www.w3.org/2000/svg" xmlns:xlink="http://www.w3.org/1999/xlink">
    <!-- Generator: Sketch 62 (91390) - https://sketch.com -->
    <title>logo-papa-johns-pizza</title>
    <desc>Created with Sketch.</desc>
    <defs>
        <polygon id="path-1" points="0.79 0.663 57.399 0.663 57.399 19.0722 0.79 19.0722"></polygon>
    </defs>
    <g id="FINAL-LAYOUT" stroke="none" stroke-width="1" fill="none" fill-rule="evenodd">
        <g id="assets" transform="translate(-794.000000, -947.000000)">
            <g id="logo-papa-johns-pizza" transform="translate(794.000000, 946.000000)">
                <path d="M82.3295,16.516 L82.1565,16.613 L82.5395,16.642 C83.0285,16.667 83.5145,16.731 83.9935,16.833 C84.7625,17 85.6545,17.248 86.6005,17.51 C87.4335,17.738 89.2355,18.206 89.2355,18.206 L88.5935,12.635 L91.5825,9.493 C91.5825,9.493 86.3285,8.082 84.8995,8.082 L84.8585,8.082 L83.0015,16.146 L82.3295,16.516 Z" id="Fill-1" fill="#077954"></path>
                <path d="M40.935,18.0668 C40.935,18.0668 42.738,17.5978 43.57,17.3698 C44.517,17.1068 45.409,16.8588 46.177,16.6938 C46.656,16.5938 47.141,16.5298 47.629,16.5028 L48.015,16.4748 L47.841,16.3788 L47.169,15.9928 L45.312,7.9308 L45.272,7.9308 C43.842,7.9308 38.589,9.3388 38.589,9.3388 L41.578,12.4948 L40.935,18.0668 Z" id="Fill-3" fill="#077954"></path>
                <path d="M48.186,15.0438 L48.264,14.9608 C48.751,14.2598 57.922,13.0538 65.27,13.1578 C72.605,13.0558 81.242,14.1018 81.917,14.7548 L82.089,14.8888 L82.288,13.9758 C82.305,13.8828 84.07,5.7058 84.183,5.2218 C84.208,5.1278 84.199,5.0268 84.156,4.9398 C83.765,4.4378 81.494,3.8288 78.323,3.2538 C74.014,2.4728 69.646,2.0698 65.268,2.0478 C55.207,2.0478 46.825,3.8488 46.11,4.7708 C46.051,4.8328 46.014,4.9118 46.004,4.9958 C46.117,5.4828 48.112,14.7238 48.129,14.8188 L48.186,15.0438 Z" id="Fill-5" fill="#077954"></path>
                <polygon id="Fill-7" fill="#FFFFFF" points="46.9213 31.4276 45.8213 41.2196 48.3203 41.2096 47.0093 31.4276"></polygon>
                <path d="M21.7524,34.4789 C21.5044,37.1839 20.9724,42.5929 20.9724,42.5929 L22.8174,42.5929 C22.8174,42.5929 22.1144,37.0869 21.8024,34.4789 L21.7524,34.4789 Z" id="Fill-9" fill="#FFFFFF"></path>
                <path d="M10.4623,30.3119 C8.8683,30.8539 7.2813,31.4209 5.7023,32.0109 L5.7023,49.4339 L10.2553,49.4139 C10.2393,47.2169 10.2253,45.0209 10.2103,42.8259 L10.5293,42.7879 C14.3823,42.3759 16.7333,40.0099 16.6693,35.1939 C16.6073,30.3279 14.2463,28.9889 10.4623,30.3119 M10.8053,39.0659 L10.1853,39.1829 C10.1733,37.6679 10.1623,36.1529 10.1533,34.6369 L10.7713,34.4749 C11.8983,34.1729 12.3893,34.8799 12.4023,36.2509 C12.4163,37.6219 11.9323,38.8559 10.8053,39.0659" id="Fill-11" fill="#DF2A27"></path>
                <path d="M34.0873,24.0077 C32.4463,24.3047 29.1763,24.9817 29.1763,24.9817 L29.2123,49.3417 L33.8893,49.3417 L33.8893,40.5827 L34.3023,40.5527 C38.1553,40.1527 41.1083,37.4427 41.0403,31.4457 C40.9693,25.3807 37.9863,23.2757 34.0873,24.0077 M33.8983,35.4727 C33.8783,33.4627 33.8983,29.4057 33.8983,29.4057 C33.8983,29.4057 34.2383,29.3387 34.4463,29.3087 C35.5933,29.1447 36.4683,29.9867 36.4583,31.9057 C36.4583,34.3457 35.9923,35.2957 33.8983,35.4727" id="Fill-13" fill="#DF2A27"></path>
                <path d="M112.8002,27.6429 C112.6492,29.1219 112.4532,30.6749 112.3022,32.1779 C112.9222,32.2879 113.5412,32.3999 114.1592,32.5139 C114.4992,31.1069 114.8992,29.7189 115.2352,28.3799 C114.4322,28.1389 113.6102,27.8689 112.8002,27.6429" id="Fill-15" fill="#DF2A27"></path>
                <path d="M107.7172,26.3133 L107.6702,26.2993 L107.6702,27.1883 L107.6702,37.9113 C106.5072,33.5413 105.2182,29.9743 103.8912,25.4733 C103.8162,25.4733 103.7392,25.4543 103.6652,25.4433 L99.5182,24.5553 L99.5182,38.9933 C99.4662,42.3503 99.4142,45.7393 99.3632,49.3233 L103.8052,49.3233 L103.8052,37.0913 C104.9322,41.2903 106.4072,45.3793 107.4942,49.3363 L108.4342,49.3363 L111.5152,49.3363 L111.5352,49.3363 L111.5352,47.1663 L111.5352,44.4303 L111.5352,27.3003 L111.4162,27.2693 C110.0362,26.9103 109.1622,26.6813 107.7172,26.3133" id="Fill-17" fill="#DF2A27"></path>
                <path d="M93.2543,23.5458 L93.2543,33.1828 L89.8083,33.1828 L89.8083,24.0098 L89.8083,23.1328 L89.2203,23.0538 L85.5103,22.5458 L84.9263,22.4638 L84.9263,22.7408 C84.8833,27.4178 84.9033,31.7558 84.9263,35.9798 L84.9263,49.3008 L89.8033,49.3008 L89.8033,39.4038 L93.2563,39.4038 L93.2563,49.1768 L93.2563,49.3008 L97.9653,49.3008 L97.9673,24.2938 L97.8633,24.2778 C96.2853,24.0048 93.2543,23.5458 93.2543,23.5458" id="Fill-19" fill="#DF2A27"></path>
                <path d="M120.3911,36.9808 C119.6521,36.1928 119.2141,35.5318 119.2141,34.9798 C119.2141,34.3718 119.4401,33.8388 120.1341,33.8758 C120.9511,33.9198 121.0831,34.9418 121.1211,35.6148 C121.1211,35.7658 121.1421,35.9218 121.1511,36.0658 L125.2551,36.0658 C125.1291,32.4598 123.8101,30.2418 120.6441,29.6058 C117.6301,29.0018 114.7391,30.3618 114.6911,34.1138 C114.6621,36.4268 115.6851,38.4958 117.3961,40.1768 C118.1711,40.9498 118.9491,41.7008 119.7271,42.4308 C120.4701,43.1258 120.8541,43.6118 120.8391,44.1218 C120.8391,44.7438 120.5041,45.2488 119.8141,45.2488 C118.9831,45.2488 118.6151,44.4058 118.5791,43.6998 C118.5661,43.4168 118.5541,43.0958 118.5521,42.7848 L114.4271,42.7848 L114.4271,43.3998 C114.3771,47.2178 116.5191,49.6048 119.6501,49.6048 C123.3081,49.6048 125.3401,47.2948 125.334113,44.1958 C125.334113,42.3638 124.2791,40.9498 122.6721,39.3208 C121.9091,38.5668 121.1491,37.7868 120.3911,36.9808" id="Fill-21" fill="#DF2A27"></path>
                <path d="M19.3452,27.3387 C18.1642,35.0407 16.9692,42.4057 15.7542,49.3907 L20.3102,49.3777 C20.3952,48.4947 20.5742,46.7137 20.5742,46.7137 L23.2622,46.7137 C23.2622,46.7137 23.4882,48.4507 23.5932,49.3667 L28.2972,49.3667 C26.9332,41.3137 25.5692,33.5507 24.2042,26.0787 C22.5802,26.4737 20.9602,26.8947 19.3452,27.3387 L19.3452,27.3387 Z M20.9722,42.5927 C20.9722,42.5927 21.5042,37.1837 21.7522,34.4787 L21.8022,34.4787 C22.1152,37.0877 22.8182,42.5927 22.8182,42.5927 L20.9722,42.5927 Z" id="Fill-23" fill="#DF2A27"></path>
                <path d="M43.7075,22.7836 C42.4325,31.8876 41.1745,40.5596 39.9255,49.3276 L45.0205,49.3276 L45.2985,46.1186 L48.6655,46.1186 C48.6655,46.1186 48.8915,48.2486 49.0115,49.3306 L54.1945,49.3306 C52.8285,40.0946 51.4765,31.1276 50.0615,22.1256 C48.3485,22.3126 45.4515,22.5986 43.7075,22.7836 L43.7075,22.7836 Z M45.8215,41.2216 L46.9215,31.4276 L47.0095,31.4276 L48.3205,41.2096 L45.8215,41.2216 Z" id="Fill-25" fill="#DF2A27"></path>
                <path d="M76.8373,21.6029 C73.1483,21.4749 70.2583,24.4269 70.2443,29.5499 C70.2313,33.5059 70.2183,37.4629 70.2062449,41.4179 C70.1913,46.5009 73.2423,49.6339 76.8663,49.6269117 C80.4903,49.6209 83.2543,46.3499 83.3063,41.4059 C83.3463,37.5439 83.3583,33.8909 83.3983,30.0299 C83.4503,25.0469 81.0293,21.7469 76.8373,21.6029 L76.8373,21.6029 Z M78.0363,42.9449 C78.0363,43.5669 77.5313,44.0719 76.9093,44.0719 L76.7063,44.0719 C76.0843,44.0719 75.5793,43.5669 75.5793,42.9449 L75.5793,28.2719 C75.5793,27.6499 76.0843,27.1449 76.7063,27.1449 L76.9093,27.1449 C77.5313,27.1449 78.0363,27.6499 78.0363,28.2719 L78.0363,42.9449 Z" id="Fill-27" fill="#DF2A27"></path>
                <path d="M63.8393,41.7054 L63.8393,43.4754 C63.8383,43.8714 63.5533,44.2104 63.1623,44.2794 C63.1423,44.2804 63.1223,44.2804 63.1023,44.2794 L63.0883,44.2794 L63.0323,44.2794 L62.9693,44.2794 C62.5193,44.2774 62.1543,43.9134 62.1523,43.4634 L62.1523,40.6804 C60.7603,40.6804 59.0333,40.7044 57.6453,40.7254 L57.6453,43.6344 C57.6453,47.1434 59.7883,49.5564 62.9933,49.5564 C63.2683,49.5554 63.5403,49.5374 63.8123,49.5014 C67.3183,49.2464 68.7713,46.9204 68.7713,41.6604 L68.8043,21.5194 L63.8393,21.5104 L63.8393,41.7054 Z" id="Fill-29" fill="#DF2A27"></path>
                <path d="M54.936,11.7171 L54.591,8.9331 L55.13,8.8681 C56.509,8.6971 57.409,7.7841 57.247,6.4721 C57.084,5.1601 56.011,4.5721 54.632,4.7411 L52.585,4.9941 L53.44,11.9041 L54.936,11.7171 Z M54.774,5.9521 C55.308,5.8861 55.696,6.1281 55.759,6.6461 C55.765,6.6751 55.768,6.7051 55.771,6.7351 C55.812,7.2101 55.46,7.6281 54.986,7.6691 L54.45,7.7351 L54.238,6.0171 L54.774,5.9521 Z" id="Fill-31" fill="#FFFFFF"></path>
                <polygon id="Fill-33" fill="#FFFFFF" points="60.1723 11.1717 59.7663 4.2227 58.2543 4.3107 58.6613 11.2617"></polygon>
                <polygon id="Fill-35" fill="#FFFFFF" points="61.7133 11.0658 66.1003 11.0168 66.0863 9.7768 63.4223 9.8078 65.9573 5.0068 65.9463 4.0538 61.7133 4.1038 61.7293 5.3428 64.2083 5.3138 61.7023 10.0338"></polygon>
                <polygon id="Fill-37" fill="#FFFFFF" points="71.8852 9.9774 69.2262 9.8444 72.0572 5.2074 72.1042 4.2564 67.8752 4.0454 67.8152 5.2824 70.2822 5.4084 67.4902 9.9664 67.4392 10.9984 71.8242 11.2144"></polygon>
                <path d="M74.7768,10.7167 L76.1768,10.8967 L76.2268,11.7597 L77.7958,11.9587 L77.0858,4.8497 L75.5728,4.6557 L73.0118,11.3497 L74.5128,11.5417 L74.7768,10.7167 Z M75.9988,7.0267 L76.0208,7.0267 L76.1498,9.7657 L75.1418,9.6367 L75.9988,7.0267 Z" id="Fill-39" fill="#FFFFFF"></path>
                <path d="M96.0737,14.1356393 C96.0947,14.1356393 96.1167,14.1356393 96.1377,14.1356393 C97.2687,14.1156 98.1707,13.1816 98.1497,12.0506 L98.1497,12.0326 C98.1417,10.8786 97.2007,9.9496 96.0477,9.9565607 C94.8927,9.9646 93.9647,10.9066 93.9706711,12.0596 C93.9787,13.2136 94.9207,14.1426 96.0737,14.1356393 M96.0737,10.2636 C96.1047,10.2626 96.1357,10.2636 96.1657,10.2646 C97.1177,10.2996 97.8597,11.0996 97.8257,12.0506 C97.8257,12.0626 97.8257,12.0746 97.8247,12.0866 C97.8047,13.0736 96.9887,13.8576 96.0027,13.8376 C95.0147,13.8176 94.2307,13.0016 94.2507,12.0146 C94.2707,11.0276 95.0877,10.2436 96.0737,10.2636" id="Fill-41" fill="#077954"></path>
                <path d="M95.8217,12.1883 L96.1757,12.1883 C96.3487,12.1883 96.4217,12.3033 96.4217,12.4633 L96.4217,12.7023 C96.4217,12.9343 96.5157,13.0063 96.7907,13.0063 L96.8837,13.0153 L96.8837,12.7633 C96.8107,12.7633 96.7817,12.7403 96.7817,12.6823 L96.7817,12.4563 C96.7967,12.2603 96.6527,12.0863 96.4577,12.0643 C96.6887,12.0213 96.7677,11.8863 96.7677,11.6613 L96.7677,11.6023 C96.7677,11.2913 96.6247,11.0883 96.2117,11.0883 L95.4597,11.0883 L95.4597,12.9833 L95.8217,12.9833 L95.8217,12.1883 Z M95.8217,11.3703 L96.1817,11.3703 C96.1997,11.3683 96.2177,11.3683 96.2357,11.3703 C96.3447,11.3843 96.4227,11.4853 96.4077,11.5953 L96.4077,11.6833 C96.4117,11.7063 96.4117,11.7293 96.4087,11.7513 C96.3897,11.8753 96.2757,11.9603 96.1527,11.9423 L95.8217,11.9423 L95.8217,11.3703 Z" id="Fill-43" fill="#077954"></path>
                <path d="M125.5952,25.4164 C119.6702,22.0034 108.7752,18.5594 99.3632,16.3424 C95.8932,15.5254 92.6192,14.8704 89.8782,14.4524 L90.0652,16.0114 C92.7732,16.4354 95.9782,17.0834 99.3632,17.8864 C108.5762,20.0704 119.1562,23.4264 124.9212,26.7504 C128.4692,28.7944 128.9582,29.8614 128.9582,35.5224 L128.9582,50.4614 L128.9452,50.4614 C128.9452,51.4054 128.8432,52.7704 127.9532,53.7114 C126.9112,54.8124 125.4502,54.8124 123.4272,54.8104 L6.9602,54.8104 C4.9312,54.8104 3.4762,54.8104 2.4342,53.7114 C1.5432,52.7704 1.4422,51.4054 1.4422,50.4614 L1.4422,35.5224 C1.4422,29.8614 1.9312,28.7944 5.4792,26.7504 C10.3352,23.9514 18.6102,21.1264 26.6052,18.9994 C31.4992,17.6974 36.2892,16.6564 40.1252,16.0444 L39.8152,18.6234 L39.7292,19.4094 L39.7382,19.4074 L40.4532,13.3174 L40.3132,14.4904 C36.4582,15.0884 31.5972,16.1334 26.6052,17.4514 C18.3802,19.6234 9.8022,22.5374 4.7842,25.4254 C0.4692,27.9044 0.0002,29.6714 0.0002,35.5314 L0.0002,50.4704 C0.0002,51.6854 0.1462,53.4524 1.4122,54.7934 C2.8732,56.3374 4.7642,56.3374 6.9552,56.3374 L123.4272,56.3374 C125.6162,56.3374 127.5072,56.3374 128.9672,54.7934 C130.2342,53.4524 130.3802,51.6854 130.3802,50.4704 L130.3802,35.5224 C130.3802,29.6624 129.9112,27.9044 125.5952,25.4164" id="Fill-45" fill="#077954"></path>
                <g id="Group-49" transform="translate(36.000000, 0.337400)">
                    <mask id="mask-2" fill="white">
                        <use xlink:href="#path-1"></use>
                    </mask>
                    <g id="Clip-48"></g>
                    <path d="M50.601,17.1722 C49.655,16.9112 48.762,16.6632 47.994,16.4962 C47.514,16.3942 47.029,16.3302 46.539,16.3042 L46.157,16.2752 L46.33,16.1782 L47.001,15.8092 L48.859,7.7442 L48.9,7.7442 C50.329,7.7442 55.582,9.1552 55.582,9.1552 L52.593,12.2972 L53.236,17.8692 C53.236,17.8692 51.433,17.4002 50.601,17.1722 L50.601,17.1722 Z M46.089,14.5512 L45.917,14.4182 C45.242,13.7642 36.605,12.7182 29.27,12.8202 C21.922,12.7162 12.751,13.9222 12.264,14.6232 L12.186,14.7062 L12.129,14.4812 C12.112,14.3862 10.117,5.1452 10.004,4.6582 C10.014,4.5742 10.051,4.4952 10.11,4.4332 C10.825,3.5112 19.206,1.7112 29.268,1.7112 C33.646,1.7322 38.014,2.1352 42.323,2.9162 C45.494,3.4912 47.765,4.1002 48.156,4.6022 C48.199,4.6902 48.208,4.7902 48.183,4.8842 C48.07,5.3682 46.305,13.5462 46.288,13.6382 L46.089,14.5512 Z M11.629,16.1652 C11.141,16.1932 10.656,16.2562 10.177,16.3562 C9.409,16.5212 8.517,16.7692 7.57,17.0322 C6.738,17.2602 4.935,17.7292 4.935,17.7292 L5.578,12.1572 L2.589,9.0022 C2.589,9.0022 7.842,7.5932 9.272,7.5932 L9.312,7.5932 L11.169,15.6552 L11.841,16.0412 L12.015,16.1372 L11.629,16.1652 Z M53.878,14.1152 L53.778,13.2712 L53.773,13.2312 L53.778,13.2712 L53.687,12.5052 L56.901,9.0922 L57.399,8.5152 L56.556,8.2492 C56.33,8.1862 50.894,6.7122 49.086,6.6712 L49.497,4.4942 C49.52,4.3202 49.465,4.1442 49.348,4.0142 C48.581,2.9702 40.578,0.6622 29.099,0.6622 C17.762,0.6622 9.47,2.7992 8.688,3.7392 C8.574,3.8592 8.524,4.0262 8.552,4.1902 L9.1,6.6692 C7.297,6.7212 1.868,8.1932 1.631,8.2472 L0.79,8.5102 L1.299,9.0942 L4.511,12.5052 L4.454,12.9802 L3.738,19.0702 L4.464,18.8902 C5.14,18.7232 5.886,18.5002 6.679,18.2632 C8.517,17.7172 10.599,17.1002 12.057,17.1002 C12.069,17.1002 13.15,17.0772 14.216,16.9852 C14.591,16.9512 14.793,16.8432 14.838,16.6542 C14.96,16.1532 13.711,15.3012 13.387,15.1012 C13.59,14.9232 14.847,14.6872 16.67,14.4602 C17.831,14.3322 18.904,14.2192 19.894,14.1222 C22.772,13.8692 26.158,13.6822 29.099,13.6962 L29.38,13.6962 C35.854,13.6962 44.322,14.6232 44.818,15.0962 C44.497,15.3012 43.24,16.1512 43.359,16.6542 C43.405,16.8432 43.607,16.9512 43.982,16.9852 C45.047,17.0772 46.129,17.1002 46.143,17.1002 C47.599,17.1002 49.681,17.7172 51.518,18.2632 C52.312,18.4882 53.062,18.7142 53.732,18.8902 L54.468,19.0722 L54.064,15.6732 L54.065,15.6732 L53.878,14.1152 Z" id="Fill-47" fill="#DF2A27" mask="url(#mask-2)"></path>
                </g>
            </g>
        </g>
    </g>
</svg>