<?xml version="1.0" encoding="UTF-8"?>
<svg width="159px" height="27px" viewBox="0 0 159 27" version="1.1" xmlns="http://www.w3.org/2000/svg" xmlns:xlink="http://www.w3.org/1999/xlink">
    <!-- Generator: Sketch 62 (91390) - https://sketch.com -->
    <title>logo-uber-eats</title>
    <desc>Created with Sketch.</desc>
    <g id="FINAL-LAYOUT" stroke="none" stroke-width="1" fill="none" fill-rule="evenodd">
        <g id="assets" transform="translate(-367.000000, -961.000000)">
            <g id="logo-uber-eats" transform="translate(367.983128, 961.790000)">
                <path d="M9.8367638,21.9882714 C13.2852263,21.9882714 15.9637388,19.3434714 15.9637388,15.3817088 L15.9637388,0.000108750001 L19.6645014,0.000108750001 L19.6645014,24.9277839 L16.0061513,24.9277839 L16.0061513,22.5700839 C14.2792013,24.3557589 11.8975763,25.3562589 9.4126388,25.3380231 C4.09476377,25.3380231 0.000326250001,21.4619214 0.000326250001,15.5828963 L0.000326250001,0.000108750001 L3.76960127,0.000108750001 L3.76960127,15.4023713 C3.76960127,19.3858839 6.33718878,21.9882714 9.8367638,21.9882714 L9.8367638,21.9882714 Z M32.7275514,22.1590895 C29.2562514,22.1764089 26.4287514,19.3750089 26.412368,15.9037088 C26.3961264,12.4324088 29.1964389,9.6049088 32.6677389,9.58852539 C36.1390389,9.5722838 38.966539,12.3725963 38.9828594,15.8449838 L38.9828594,15.8950088 C38.988289,19.3402089 36.1988514,22.1372589 32.7536514,22.1426964 L32.7275514,22.1426964 L32.7275514,22.1590895 Z M32.9842014,6.39243379 C30.5721264,6.39460879 28.2622764,7.36030879 26.5668639,9.0752963 L26.5668639,0.000108750001 L22.9933389,0.000108750001 L22.9933389,24.9277839 L26.5233639,24.9277839 L26.5233639,22.6255464 C28.2340014,24.3557589 30.5601639,25.3355964 32.9929014,25.3519089 C38.2281265,25.4617464 42.5629015,21.3085839 42.6738265,16.0733588 C42.7847515,10.8381338 38.631589,6.50335879 33.3963639,6.39243379 C33.2615139,6.38917129 33.1277514,6.38917129 32.9929014,6.39243379 L32.9842014,6.39243379 Z M48.0025765,14.1876338 C48.6398515,11.4199463 50.8518265,9.5461838 53.534689,9.5461838 C56.2175516,9.5461838 58.4251766,11.4199463 59.0243891,14.1876338 L48.0025765,14.1876338 Z M62.6403266,15.8525963 C62.6403266,10.4401088 58.7894891,6.39243379 53.578189,6.39243379 C48.419089,6.42723379 44.2659265,10.6369463 44.3007265,15.7960463 C44.3007265,15.8145338 44.3007265,15.8341088 44.301814,15.8525963 C44.301814,21.2607339 48.473464,25.3519089 53.915314,25.3519089 C57.0005516,25.4095464 59.9215766,23.9631714 61.7453141,21.4738839 L59.1527141,19.5751089 C57.9455891,21.2596464 55.9880891,22.2460089 53.915314,22.2144714 C50.9105515,22.2003339 48.364714,19.9937964 47.925364,17.0205713 L62.6490266,17.0205713 L62.6403266,15.8525963 Z M72.6823016,9.9735713 C70.3420016,9.9735713 68.6813891,11.8049213 68.6813891,14.6161088 L68.6813891,24.9277839 L65.1089516,24.9277839 L65.1089516,6.77740879 L68.6389766,6.77740879 L68.6389766,8.9937338 C69.5252891,7.49733379 71.1532766,6.60014629 72.8911016,6.64908379 L74.1754392,6.64908379 L74.1754392,9.9735713 L72.6823016,9.9735713 Z" id="Fill-1" fill="#262626"></path>
                <path d="M112.576261,21.3553464 C109.469273,21.3901464 106.922348,18.8997714 106.886461,15.7927838 C106.850573,12.6857963 109.340948,10.1388713 112.447936,10.1029838 C115.554923,10.0670963 118.102936,12.5574713 118.137736,15.6655463 C118.138823,15.6872963 118.138823,15.7101338 118.138823,15.7329713 C118.167098,18.8040714 115.699561,21.3183714 112.628461,21.3455589 C112.607798,21.3466464 112.588223,21.3466464 112.567561,21.3466464 L112.576261,21.3553464 Z M118.065961,6.52945879 L118.065961,8.19007129 C116.423836,6.80133379 114.341273,6.04225878 112.191286,6.04987128 C106.849486,5.93785878 102.428798,10.1769338 102.315698,15.5187338 C102.203686,20.8605339 106.442761,25.2812214 111.783473,25.3943214 C111.919411,25.3975839 112.055348,25.3975839 112.191286,25.3943214 C114.342361,25.4041089 116.424923,24.6439464 118.065961,23.2541214 L118.065961,24.9190839 L122.717198,24.9190839 L122.717198,6.52075879 L118.065961,6.52945879 Z M138.176011,24.9277839 L133.157198,24.9277839 C130.007798,24.9277839 128.262361,22.9670214 128.262361,20.4951339 L128.262361,10.6967588 L124.732336,10.6967588 L124.732336,6.52075879 L128.278673,6.52075879 L128.278673,1.27900876 L132.944048,1.27900876 L132.944048,6.52075879 L138.176011,6.52075879 L138.176011,10.6967588 L132.944048,10.6967588 L132.944048,19.3010589 C132.944048,20.2808964 133.623736,20.7517839 134.688398,20.7517839 L138.176011,20.7517839 L138.176011,24.9277839 Z M148.843298,25.3943214 C154.203586,25.3943214 157.224661,22.8278214 157.224661,19.3010589 C157.224661,16.7900213 155.435723,14.9151713 151.692548,14.1028088 L147.734048,13.2937088 C145.437248,12.8663213 144.714061,12.4378463 144.714061,11.5819838 C144.714061,10.4738213 145.821136,9.7941338 147.862373,9.7941338 C150.074348,9.7941338 151.713211,10.3889963 152.141686,12.4334963 L156.778786,12.4334963 C156.527573,8.5826588 153.758798,6.04117128 148.145123,6.04117128 C143.292698,6.04117128 139.886648,8.04434629 139.886648,11.9245463 C139.886648,14.6074088 141.761498,16.3528463 145.804823,17.2054463 L150.228773,18.2276963 C151.975298,18.5691714 152.440748,19.0400589 152.440748,19.7632464 C152.440748,20.9149089 151.122698,21.6380964 148.992286,21.6380964 C146.313773,21.6380964 144.781486,21.0421464 144.186623,18.9976464 L139.523423,18.9976464 C140.204198,22.8397839 143.053448,25.3943214 148.843298,25.3943214 L148.843298,25.3943214 Z M83.0615105,0.000108750001 L100.548511,0.000108750001 L100.548511,4.27833377 L87.7856105,4.27833377 L87.7856105,10.3541963 L100.193986,10.3541963 L100.193986,14.4877838 L87.7856105,14.4877838 L87.7856105,20.6658714 L100.548511,20.6658714 L100.548511,24.9451839 L83.0615105,24.9451839 L83.0615105,0.000108750001 Z" id="Fill-3" fill="#5FB709"></path>
            </g>
        </g>
    </g>
</svg>