<?xml version="1.0" encoding="UTF-8"?>
<svg width="226px" height="70px" viewBox="0 0 226 70" version="1.1" xmlns="http://www.w3.org/2000/svg" xmlns:xlink="http://www.w3.org/1999/xlink">
    <!-- Generator: Sketch 62 (91390) - https://sketch.com -->
    <title>logo-ib</title>
    <desc>Created with Sketch.</desc>
    <g id="Page-7" stroke="none" stroke-width="1" fill="none" fill-rule="evenodd">
        <g id="assets" transform="translate(-706.000000, -60.000000)">
            <g id="logo-ib" transform="translate(706.000000, 60.000000)">
                <path d="M215.502394,24.3218233 C218.395446,24.3218233 220.767012,25.3543936 222.627494,27.4647952 C224.477012,29.5408996 225.430024,32.2186104 225.430024,35.5431888 C225.430024,38.8219438 224.477012,41.4996546 222.627494,43.6213012 C220.767012,45.6864418 218.395446,46.7299759 215.502394,46.7299759 C213.335205,46.7299759 211.440707,46.0381285 209.750024,44.6991325 L209.750024,44.6991325 L209.750024,55.1940723 L202.159663,55.1940723 L202.159663,24.8326265 L208.195687,24.8326265 L209.14898,26.8182088 C210.793839,25.1387711 212.904241,24.3218233 215.502394,24.3218233 Z M171.798217,15.8366426 L171.798217,26.3537912 C173.441108,25.0164819 175.333076,24.3364418 177.530627,24.3364418 C180.419462,24.3364418 182.798618,25.3678876 184.645325,27.475759 C186.503277,29.5496145 187.454884,32.2242329 187.454884,35.5448755 C187.454884,38.820257 186.503277,41.4948755 184.645325,43.613992 C182.798618,45.6766024 180.419462,46.7192932 177.530627,46.7192932 C174.947655,46.7192932 172.8291,45.8919438 171.198016,44.214755 L171.198016,44.214755 L170.24641,46.1980884 L164.207855,46.1980884 L164.207855,15.8366426 L171.798217,15.8366426 Z M149.810177,24.209992 C153.394233,24.209992 156.341261,25.2453735 158.594193,27.3616787 C160.892667,29.4439679 162.019133,32.1292691 162.019133,35.4631245 C162.019133,38.7514378 160.892667,41.436739 158.594193,43.5642892 C156.341261,45.6353333 153.394233,46.6819598 149.810177,46.6819598 C146.214594,46.6819598 143.31339,45.6353333 141.014635,43.5642892 C138.716442,41.436739 137.589695,38.7514378 137.589695,35.4631245 C137.589695,32.1748112 138.716442,29.48951 141.014635,27.3616787 C143.31339,25.2453735 146.214594,24.209992 149.810177,24.209992 Z M110.697663,24.3147952 C113.239309,24.3147952 115.26453,25.091261 116.857663,26.6883293 C118.453044,28.2423855 119.228104,30.228249 119.228104,32.6880884 L119.228104,32.6880884 L119.228104,46.1980884 L111.637743,46.1980884 L111.637743,33.9005783 C111.637743,32.0266024 110.129229,30.4683293 108.255253,30.4795743 C105.905896,30.4936305 104.328506,32.179253 104.328506,34.7228675 L104.328506,34.7228675 L104.328506,46.1980884 L96.7381446,46.1980884 L96.7381446,24.8326265 L102.769952,24.8326265 L103.718466,27.1628675 C105.483928,25.2635904 107.811076,24.3147952 110.697663,24.3147952 Z M92.5211647,24.8325703 L92.5211647,46.1980321 L84.9308032,46.1980321 L84.9308032,24.8325703 L92.5211647,24.8325703 Z M197.942851,24.8325703 L197.942851,46.1980321 L190.35249,46.1980321 L190.35249,24.8325703 L197.942851,24.8325703 Z M132.591245,15.2628112 C134.359518,15.2628112 136.126948,15.478996 137.895221,15.955502 L137.895221,15.955502 L136.946988,21.584739 C135.955462,21.4118474 135.135422,21.325261 134.44498,21.325261 C133.066064,21.325261 132.159719,22.1908434 132.159719,23.6203614 L132.159719,23.6203614 L132.159719,24.8325703 L136.657711,24.8325703 L136.657711,30.4550602 L132.159719,30.4550602 L132.159719,46.1980321 L124.569357,46.1980321 L124.569357,30.4550602 L120.914739,30.4550602 L120.914739,24.8325703 L124.569357,24.8325703 L124.569357,22.840241 C124.569357,20.5457028 125.302811,18.7268273 126.769157,17.3411647 C128.278795,15.955502 130.21996,15.2628112 132.591245,15.2628112 Z M149.810177,30.0925221 C147.204434,30.0925221 145.384153,32.2999116 145.384153,35.4631245 C145.384153,38.5807952 147.204434,40.7881847 149.810177,40.7881847 C152.404675,40.7881847 154.270498,38.5807952 154.270498,35.4631245 C154.270498,32.2999116 152.404675,30.0925221 149.810177,30.0925221 Z M213.326209,30.1835502 C211.027735,30.1835502 209.4689,31.9130281 209.4689,34.3366024 L209.4689,34.3366024 L209.4689,36.5895341 C209.4689,38.9675663 211.027735,40.6970442 213.326209,40.6970442 C215.795325,40.6970442 217.570345,38.5351968 217.570345,35.4630683 C217.570345,32.3453976 215.795325,30.1835502 213.326209,30.1835502 Z M175.655526,30.1835502 C173.357052,30.1835502 171.798217,31.9130281 171.798217,34.3366024 L171.798217,34.3366024 L171.798217,36.5895341 C171.798217,38.9675663 173.357052,40.6970442 175.655526,40.6970442 C178.113116,40.6970442 179.888418,38.5351968 179.888418,35.4630683 C179.888418,32.3453976 178.113116,30.1835502 175.655526,30.1835502 Z M194.188321,14.7206064 C196.786193,14.7206064 198.561775,16.5397631 198.561775,19.0943414 C198.561775,21.5626145 196.786193,23.4247831 194.188321,23.4247831 C191.719205,23.4247831 189.858161,21.5626145 189.858161,19.0943414 C189.858161,16.5397631 191.719205,14.7206064 194.188321,14.7206064 Z M92.5211647,14.7120884 L92.5211647,22.3024498 L84.9308032,22.3024498 L84.9308032,14.7120884 L92.5211647,14.7120884 Z" id="Combined-Shape" fill="#373A3B"></path>
                <path d="M34.2985936,0 C53.0840805,0 68.3400106,15.4081894 68.5969113,34.5083523 C68.854088,54.0874694 53.0170269,70.2590008 33.8294945,69.9968571 C15.1000237,69.7347135 -4.26325641e-14,54.1674359 -4.26325641e-14,34.9985694 C-4.26325641e-14,15.6700514 15.3569244,0 34.2985936,0 Z M34.3055778,9.8 C25.6705711,9.8 18.2428813,12.068774 14.4616843,15.8616843 C10.668774,19.6543158 8.4,27.0705711 8.4,35.7055778 C8.4,44.3408634 10.668774,51.7571187 14.4616843,55.5497502 C18.2428813,59.3426606 25.6705711,61.6 34.3055778,61.6 C42.9408634,61.6 50.3571187,59.3426606 54.1497502,55.5497502 C57.931226,51.7571187 60.2,44.3408634 60.2,35.7055778 C60.2,27.0705711 57.931226,19.6543158 54.1497502,15.8616843 C50.3571187,12.068774 42.9408634,9.8 34.3055778,9.8 Z M34.9427912,14.0863052 L35.4043013,14.0886772 C42.4631078,14.1613017 48.6886367,15.8961728 51.3388153,18.5466265 C54.0468876,21.2546988 55.7991365,27.6946988 55.7991365,34.9426506 C55.7991365,38.561004 55.3670482,41.9859438 54.5818675,44.8418876 C53.8079317,47.6978313 52.692992,49.9847791 51.3388153,51.3389558 C48.6310241,54.046747 42.190743,55.7992771 34.9427912,55.7992771 C27.6948394,55.7992771 21.2660843,54.046747 18.558012,51.3389558 C15.8386948,48.6308835 14.0976908,42.1906024 14.0976908,34.9426506 C14.0976908,27.6946988 15.8386948,21.2546988 18.558012,18.5466265 C21.2660843,15.8385542 27.6948394,14.0863052 34.9427912,14.0863052 L34.9427912,14.0863052 Z M34.897249,22.4491968 L34.4977662,22.4507045 C27.2728844,22.5057195 25.4657519,24.0515917 24.8553934,24.6621233 L24.7629126,24.7553807 C24.1656284,25.3549579 22.5064056,27.1469035 22.5064056,34.8290763 C22.5064056,42.645743 24.2243574,44.3639759 24.7933534,44.9329719 C25.3511044,45.5016867 27.0690562,47.2199197 34.897249,47.2199197 L34.897249,47.2199197 L35.2961604,47.2184021 C42.5107556,47.1630257 44.3179529,45.607029 44.9380085,44.9957874 L45.0011446,44.9329719 C45.5586145,44.3639759 47.2768474,42.645743 47.2768474,34.8290763 C47.2768474,27.0121285 45.5586145,25.2938956 45.0011446,24.7248996 C44.4324297,24.1561847 42.7141968,22.4491968 34.897249,22.4491968 L34.897249,22.4491968 Z M39.6630402,28.2059518 C40.7523976,28.2059518 41.6376586,29.0906506 41.6376586,30.1904096 L41.6376586,39.715751 C41.6376586,40.765521 40.8310468,41.6190812 39.8102599,41.6945086 L39.6630402,41.6999277 L39.6630402,41.6999277 L30.1183012,41.6999277 C29.0289438,41.6999277 28.1436827,40.81551 28.1436827,39.715751 L28.1436827,30.1904096 C28.1436827,29.0906506 29.0289438,28.2059518 30.1183012,28.2059518 L39.6630402,28.2059518 Z" id="Combined-Shape" fill="#FF5A00"></path>
            </g>
        </g>
    </g>
</svg>