<?xml version="1.0" encoding="UTF-8"?>
<svg width="131px" height="56px" viewBox="0 0 131 56" version="1.1" xmlns="http://www.w3.org/2000/svg" xmlns:xlink="http://www.w3.org/1999/xlink">
    <!-- Generator: Sketch 62 (91390) - https://sketch.com -->
    <title>papa-johns-pizza</title>
    <desc>Created with Sketch.</desc>
    <defs>
        <polygon id="path-1" points="9.01554409e-05 0.108186529 130.380545 0.108186529 130.380545 55.4455511 9.01554409e-05 55.4455511"></polygon>
    </defs>
    <g id="Page-7" stroke="none" stroke-width="1" fill="none" fill-rule="evenodd">
        <g id="assets" transform="translate(-1470.000000, -460.000000)">
            <g id="papa-johns-pizza" transform="translate(1470.000000, 460.000000)">
                <g id="Group-3" transform="translate(0.000000, 0.117202)">
                    <mask id="mask-2" fill="white">
                        <use xlink:href="#path-1"></use>
                    </mask>
                    <g id="Clip-2"></g>
                    <path d="M128.958207,49.5696702 L128.944684,49.5696702 C128.944684,50.5140485 128.843259,51.8776495 127.9532,52.8197739 C126.911904,53.9196702 125.451161,53.9196702 123.427397,53.9176074 L6.96009019,53.9176074 C4.93159277,53.9176074 3.4755824,53.9176074 2.43428706,52.8197739 C1.54377669,51.8776495 1.44235182,50.5140485 1.44235182,49.5696702 L1.44235182,34.6309137 C1.44235182,28.9693774 1.93144509,27.9030639 5.47906169,25.8587893 C13.3097379,21.3449317 30.0245566,16.7625561 40.1255722,15.153056 L39.8147614,17.7312763 L39.7291137,18.5178825 L40.4641059,18.3353177 C41.1402717,18.1685302 41.886308,17.9453954 42.6796759,17.7089628 C44.516593,17.163297 46.5991837,16.5457322 48.0574479,16.5457322 C48.068492,16.5457322 49.1503573,16.5231934 50.2166707,16.430784 C50.5908158,16.3969757 50.7936656,16.2887892 50.8385179,16.0994628 C50.9602277,15.5991001 49.7115749,14.7471312 49.3872407,14.5465353 C49.5900904,14.3687037 50.8468573,14.1327218 52.6707018,13.9053047 C53.8312278,13.777284 54.9034013,13.6650405 55.8939842,13.5676726 C58.7717459,13.3143358 62.1579843,13.1279395 65.0990801,13.1423643 L65.3808159,13.1423643 C71.8539766,13.1423643 80.3218263,14.0687115 80.8174559,14.5420275 C80.4974041,14.7471312 79.2397357,15.5970716 79.3591916,16.0994628 C79.4044947,16.2887892 79.6073445,16.3969757 79.9814896,16.430784 C81.0475776,16.5231934 82.1292175,16.5457322 82.1429663,16.5457322 C83.5989766,16.5457322 85.6813419,17.163297 87.5184844,17.7089628 C88.3116269,17.9343514 89.062171,18.15974 89.7318005,18.3353177 L90.4685958,18.5178825 L90.0642487,15.1192478 C100.144078,16.6980949 117.03808,21.3133773 124.921723,25.8587893 C128.469114,27.9030639 128.958207,28.9693774 128.958207,34.6309137 L128.958207,49.5696702 Z M38.5888728,8.44751974 C38.5888728,8.44751974 43.8424557,7.03884097 45.2716448,7.03884097 L45.3122148,7.03884097 L47.1694168,15.1009913 L47.8410749,15.4864058 L48.0146241,15.5833229 L47.6289842,15.6103695 C47.1412433,15.6380923 46.656207,15.7021027 46.177707,15.8019498 C45.4091319,15.9664835 44.516593,16.214411 43.5697355,16.4781156 C42.7382769,16.7057581 40.9351681,17.1747918 40.9351681,17.1747918 L41.5775256,11.6029602 L38.5888728,8.44751974 Z M46.1100904,3.87889277 C46.8245723,2.95705338 55.206549,1.15619845 65.2681216,1.15619845 C69.6462952,1.17783576 74.0145517,1.58128136 78.3226294,2.36202747 C81.4936217,2.93676841 83.7655388,3.54531764 84.1556865,4.04793422 C84.1987357,4.135385 84.2084274,4.23568292 84.1827331,4.32966997 C84.0700388,4.81425547 82.305246,12.991354 82.287215,13.0837633 L82.088873,13.9965871 L81.9175777,13.8636078 C81.2414118,13.2099809 72.6045206,12.1641778 65.2703755,12.2656027 C57.9224817,12.1619239 48.7516448,13.3677529 48.2645801,14.0687115 L48.1859194,14.1521053 L48.1295723,13.9267167 C48.1115412,13.8320534 46.1168521,4.59112075 46.0041578,4.10428137 C46.0143003,4.01976064 46.0514894,3.94087463 46.1100904,3.87889277 L46.1100904,3.87889277 Z M84.8994689,7.18985133 C86.3282072,7.18985133 91.5822409,8.60078398 91.5822409,8.60078398 L88.5933627,11.7427011 L89.2359456,17.3145327 C89.2359456,17.3145327 87.4328367,16.8457244 86.6009274,16.6178566 C85.6545207,16.3566312 84.7617564,16.1084783 83.9931813,15.9416908 C83.5144559,15.8395897 83.0285181,15.7755794 82.5396502,15.7501104 L82.1564896,15.7208099 L82.3300388,15.6241182 L83.0016968,15.2542555 L84.8588989,7.18985133 L84.8994689,7.18985133 Z M125.595409,24.5244887 C117.485702,19.8530846 100.053472,15.1124861 89.8783031,13.5604602 L89.6867228,11.9500586 L92.9007642,8.53767518 L93.3986477,7.96068035 L92.5556943,7.6947218 C92.3303057,7.631613 86.894158,6.15757154 85.0865414,6.11700159 L85.4967487,3.93974769 C85.5199637,3.76574769 85.465645,3.59016997 85.3479922,3.45966997 C84.5814455,2.41612074 76.5781217,0.108141451 65.0990801,0.108141451 C53.7620335,0.108141451 45.4697614,2.2448254 44.6876629,3.18469587 C44.5738417,3.30505339 44.5238054,3.47229173 44.5526552,3.63547308 L45.1001241,6.1147477 C43.2970153,6.16658708 37.8676292,7.63837465 37.6309712,7.69246792 L36.7900463,7.95617258 L37.2994246,8.53992906 L40.5112121,11.9500586 L40.3126448,13.5987762 C30.1090774,15.1810042 12.8474659,19.891626 4.78486479,24.5335043 C0.468898448,27.0127789 9.01554409e-05,28.7798255 9.01554409e-05,34.6399292 L9.01554409e-05,49.5786858 C9.01554409e-05,50.7935303 0.146367358,52.5608024 1.4130513,53.9016392 C2.87379483,55.4455511 4.76457982,55.4455511 6.95558242,55.4455511 L123.427397,55.4455511 C125.61592,55.4455511 127.50693,55.4455511 128.967448,53.9016392 C130.233907,52.5608024 130.380635,50.7935303 130.380635,49.5786858 L130.380635,34.6309137 C130.380635,28.77081 129.911601,27.0127789 125.595409,24.5244887 L125.595409,24.5244887 Z" id="Fill-1" fill="#000000" mask="url(#mask-2)"></path>
                </g>
                <path d="M10.805062,38.2913373 L10.1852433,38.4085393 C10.1732977,36.8939279 10.1627045,35.378415 10.1536889,33.8624512 L10.7714791,33.7001714 C11.8984221,33.3981507 12.3895439,34.1058709 12.4032926,35.4762336 C12.4165905,36.8465963 11.932005,38.0815005 10.805062,38.2913373 M10.4624713,29.5372439 C8.86829772,30.0795289 7.28156196,30.6461559 5.70226402,31.236674 L5.70226402,48.659213 L10.2553392,48.638928 C10.2400128,46.4420653 10.2251371,44.2461041 10.2100361,42.0508191 L10.5300879,42.0125031 C14.3819791,41.6020704 16.7327822,39.2354901 16.6698988,34.4189357 C16.6065646,29.5527958 14.2469713,28.2142128 10.4624713,29.5372439" id="Fill-26" fill="#000000"></path>
                <path d="M33.8983782,34.6985302 C33.8780932,32.6880639 33.8983782,28.6310691 33.8983782,28.6310691 C33.8983782,28.6310691 34.2389403,28.5634525 34.4462979,28.534152 C35.5935258,28.3696183 36.4678082,29.2125717 36.4587927,31.1306287 C36.4587927,33.5715872 35.9922383,34.5204732 33.8983782,34.6985302 M34.0877046,23.233012 C32.447101,23.530525 29.1767123,24.2066908 29.1767123,24.2066908 L29.2127745,48.5666909 L33.889588,48.5666909 L33.889588,39.8080899 L34.3018238,39.7787893 C38.1561943,39.3775976 41.1085596,36.6684266 41.040943,30.6708359 C40.9688186,24.6056286 37.9871528,22.5004991 34.0877046,23.233012" id="Fill-28" fill="#000000"></path>
                <path d="M112.800234,26.8684851 C112.649223,28.3472597 112.453135,29.8999618 112.302125,31.4033038 C112.92262,31.513068 113.541762,31.6250862 114.159327,31.7391328 C114.499664,30.3327079 114.898827,28.9443141 115.234431,27.6057312 C114.432047,27.36434 113.609379,27.0938737 112.800234,26.8684851" id="Fill-30" fill="#000000"></path>
                <path d="M107.717766,25.5388276 L107.670434,25.5250789 L107.670434,26.4133354 L107.670434,37.1373251 C106.507429,32.7668147 105.218206,29.1991385 103.890667,24.6981281 C103.816064,24.6981281 103.739657,24.6798716 103.665279,24.6688276 L99.5181285,23.7807965 L99.5181285,38.2191904 C99.4662891,41.5750013 99.4142244,44.9648458 99.3626104,48.54875 L103.80502,48.54875 L103.80502,36.3166852 C104.931963,40.5159002 106.408033,44.6044495 107.494631,48.5620479 L108.434502,48.5620479 L111.515564,48.5620479 L111.535623,48.5620479 L111.535623,46.3917811 L111.535623,43.6555635 L111.535623,26.5260297 L111.416393,26.4944753 C110.037015,26.135882 109.162507,25.906211 107.717766,25.5388276" id="Fill-32" fill="#000000"></path>
                <path d="M93.2545793,22.7709879 L93.2545793,32.4086046 L89.8083875,32.4086046 L89.8083875,23.2355139 L89.8083875,22.3585268 L89.2201233,22.2796408 L85.5102269,21.7704879 L84.9264704,21.6891227 L84.9264704,21.9663506 C84.8834212,26.6431641 84.9039316,30.9818947 84.9264704,35.2056771 L84.9264704,48.5261435 L89.8036544,48.5261435 L89.8036544,38.62933 L93.2568332,38.62933 L93.2568332,48.4021798 L93.2568332,48.5261435 L97.9649757,48.5261435 L97.9674549,23.5192781 L97.8637762,23.5035009 C96.286056,23.2307807 93.2545793,22.7709879 93.2545793,22.7709879" id="Fill-34" fill="#000000"></path>
                <path d="M120.391254,36.2064927 C119.652205,35.4176326 119.214726,34.7570186 119.214726,34.2050419 C119.214726,33.5964927 119.440114,33.0645756 120.134311,33.1006377 C120.950218,33.1457155 121.083197,34.1667258 121.121513,34.8404124 C121.121513,34.9914227 121.141798,35.1471663 121.150814,35.2911896 L125.25514,35.2911896 C125.129148,31.6849719 123.810399,29.4673735 120.64369,28.8315522 C117.630244,28.2277362 114.738508,29.5868294 114.691402,33.3393243 C114.661876,35.6520367 115.68514,37.7211041 117.396065,39.4025031 C118.171177,40.1746844 118.948316,40.9259046 119.726583,41.6563891 C120.470366,42.350586 120.853526,42.8374254 120.839778,43.3468036 C120.839778,43.9686508 120.503949,44.4737466 119.814259,44.4737466 C118.982576,44.4737466 118.615192,43.6305679 118.579355,42.9253269 C118.565607,42.6413373 118.554563,42.3212855 118.552309,42.0102492 L114.427472,42.0102492 L114.427472,42.6253347 C114.377886,46.443643 116.519078,48.8305083 119.649726,48.8305083 C123.307783,48.8305083 125.340788,46.5202751 125.334267,43.4211818 C125.334267,41.5887725 124.279208,40.1753606 122.672187,38.5460264 C121.908796,37.7916507 121.14856,37.0118062 120.391254,36.2064927" id="Fill-36" fill="#000000"></path>
                <path d="M20.9724094,41.8185336 C20.9724094,41.8185336 21.5043265,36.4092072 21.752254,33.704544 L21.8018395,33.704544 C22.1151297,36.3122901 22.8181167,41.8185336 22.8181167,41.8185336 L20.9724094,41.8185336 Z M19.3451037,26.564233 C18.1640675,34.2657616 16.9695079,41.6314611 15.7546633,48.6162539 L20.3099923,48.602956 C20.3951892,47.7194326 20.5734716,45.9386373 20.5734716,45.9386373 L23.2623576,45.9386373 C23.2623576,45.9386373 23.4877462,47.6763834 23.5936789,48.5916865 L28.297539,48.5916865 C26.9330364,40.5390026 25.5689846,32.7768445 24.204482,25.3043108 C22.5801063,25.699417 20.9602385,26.1195413 19.3451037,26.564233 L19.3451037,26.564233 Z" id="Fill-38" fill="#000000"></path>
                <path d="M45.8215028,40.4459396 L46.9213992,30.6528048 L47.0093008,30.6528048 L48.3210624,40.4346702 L45.8215028,40.4459396 Z M43.7073578,22.0091519 C42.4316583,31.1125976 41.1739899,39.785551 39.925337,48.5531676 L45.0213733,48.5531676 L45.2986013,45.3436339 L48.665907,45.3436339 C48.665907,45.3436339 48.8912956,47.4735562 49.0107516,48.5554215 L54.1946894,48.5554215 C52.8288345,39.3189966 51.4765029,30.353038 50.0612878,21.3510172 C48.3481091,21.5380898 45.4518655,21.8243333 43.7073578,22.0091519 L43.7073578,22.0091519 Z" id="Fill-40" fill="#000000"></path>
                <path d="M78.0362281,42.1702526 C78.0362281,42.7925505 77.5318085,43.2971956 76.9092851,43.2971956 L76.7066608,43.2971956 C76.0841375,43.2971956 75.5797178,42.7925505 75.5797178,42.1702526 L75.5797178,27.4972292 C75.5797178,26.8751566 76.0841375,26.3702862 76.7066608,26.3702862 L76.9092851,26.3702862 C77.5318085,26.3702862 78.0362281,26.8751566 78.0362281,27.4972292 L78.0362281,42.1702526 Z M76.8373862,20.8282058 C73.1477748,20.6997343 70.2580675,23.652325 70.2447696,28.7751825 C70.2310209,32.7316541 70.2181737,36.6881256 70.2061672,40.6441463 C70.1904509,45.7266593 73.2422126,48.8597863 76.8666867,48.8528109 C80.4909354,48.846263 83.2539743,45.575649 83.3060391,40.6308484 C83.346609,36.7699417 83.357653,33.1163924 83.398223,29.2554857 C83.4502878,24.2721437 81.0293888,20.9724545 76.8373862,20.8282058 L76.8373862,20.8282058 Z" id="Fill-42" fill="#000000"></path>
                <path d="M63.838955,40.9306153 L63.838955,42.6999158 C63.8385042,43.0963743 63.5533877,43.4355842 63.1627892,43.5045531 C63.1425042,43.50568 63.1222193,43.50568 63.1019343,43.5045531 L63.0886364,43.5045531 L63.0322892,43.5045531 L62.9691804,43.5045531 C62.5190794,43.5032008 62.1544006,43.1387474 62.1532737,42.6886463 L62.1532737,39.9050971 C60.7603721,39.9050971 59.0338954,39.9298899 57.6455016,39.9499494 L57.6455016,42.8599417 C57.6455016,46.3692422 59.7887218,48.7809003 62.9937478,48.7809003 C63.2675949,48.7804495 63.5407659,48.7624184 63.8121338,48.726807 C67.318955,48.4721179 68.770683,46.1461075 68.770683,40.8855375 L68.8042659,20.7445866 L63.838955,20.7355711 L63.838955,40.9306153 Z" id="Fill-44" fill="#000000"></path>
                <path d="M54.773893,5.17715366 C55.308064,5.11179096 55.6957324,5.35295677 55.7588412,5.87135055 C55.7647013,5.90065107 55.7685329,5.93040236 55.7712376,5.96015366 C55.8122583,6.43504744 55.4608775,6.85336869 54.9857583,6.8946148 L54.4495588,6.9599775 L54.2374682,5.24251635 L54.773893,5.17715366 Z M54.9361728,10.9425941 L54.5913283,8.15904486 L55.130007,8.09368217 C56.5093853,7.92238683 57.4086858,7.00956299 57.246406,5.69780133 C57.0841262,4.38603966 56.0112765,3.79777541 54.6318982,3.96681686 L52.5853697,4.2192521 L53.4395925,11.1296666 L54.9361728,10.9425941 Z" id="Fill-46" fill="#000000"></path>
                <polygon id="Fill-48" fill="#000000" points="60.1719951 10.3971762 59.7662957 3.44844561 58.2539381 3.53634717 58.6618915 10.4873317"></polygon>
                <polygon id="Fill-50" fill="#000000" points="61.7136081 10.2911985 66.0996703 10.241613 66.086147 9.0019757 63.4220537 9.0335301 65.9576755 4.23275287 65.9464061 3.27935909 61.7136081 3.32894458 61.7293853 4.56858189 64.2086599 4.53928137 61.7023387 9.2589187"></polygon>
                <polygon id="Fill-52" fill="#000000" points="71.8853732 9.20266171 69.2257877 9.06968243 72.0568939 4.43343888 72.1042255 3.48229898 67.87571 3.2704337 67.814855 4.50781712 70.2830856 4.63403474 67.4902954 9.19139228 67.4386815 10.2236721 71.8245183 10.4400451"></polygon>
                <path d="M75.9987152,6.25225729 L76.0214794,6.25225729 L76.1497255,8.99072881 L75.1422385,8.8622573 L75.9987152,6.25225729 Z M74.777109,9.94186871 L76.1767722,10.1221796 L76.2265831,10.9854179 L77.7952877,11.1837599 L77.0850882,4.07500339 L75.5727307,3.88116919 L73.0123162,10.5752107 L74.5134043,10.766791 L74.777109,9.94186871 Z" id="Fill-54" fill="#000000"></path>
                <path d="M96.0741456,9.48890523 C96.1047985,9.48845446 96.1352259,9.48867984 96.1656534,9.48980679 C97.1172441,9.52474202 97.8603503,10.3246462 97.8256404,11.2762368 C97.8256404,11.2879571 97.825415,11.2999027 97.8251897,11.3118482 C97.8051301,12.2988249 96.9889979,13.0827265 96.0020213,13.0626669 C95.01527,13.0430581 94.231143,12.2264752 94.2509772,11.2397239 C94.2710368,10.2529726 95.0871689,9.46907104 96.0741456,9.48890523 M96.0741456,13.3610814 C96.0953321,13.3613068 96.1165187,13.3613068 96.1377052,13.360856 C97.269156,13.3410218 98.1700342,12.4074622 98.1499746,11.2762368 L98.1499746,11.2582058 C98.1425368,10.1042161 97.2010886,9.17493891 96.047099,9.18237673 C94.8933347,9.18981456 93.9640575,10.1314881 93.9712282,11.2852524 C93.9787078,12.439242 94.920156,13.3685192 96.0741456,13.3610814" id="Fill-56" fill="#000000"></path>
                <path d="M95.8216878,10.5954957 L96.1823096,10.5954957 C96.1998899,10.5932418 96.217921,10.5932418 96.2355013,10.5954957 C96.3452656,10.6101459 96.4223485,10.71112 96.4076982,10.8208843 L96.4076982,10.9087858 C96.4113044,10.9313247 96.4115298,10.9545397 96.4083744,10.9770786 C96.3903433,11.1003661 96.2762966,11.1857884 96.1530091,11.1679827 L95.8216878,11.1679827 L95.8216878,10.5954957 Z M95.8216878,11.4136563 L96.1755479,11.4136563 C96.3490972,11.4136563 96.4212215,11.5286045 96.4212215,11.6886304 L96.4212215,11.9275423 C96.4212215,12.1596926 96.5158847,12.2318169 96.7908588,12.2318169 L96.8832681,12.2408325 L96.8832681,11.9883972 C96.8113692,11.9883972 96.7818433,11.9658584 96.7818433,11.9072573 L96.7818433,11.6818687 C96.7964935,11.4853299 96.6531464,11.3122314 96.4572837,11.2896925 C96.6894339,11.2468687 96.76832,11.1116356 96.76832,10.886247 L96.76832,10.8276459 C96.76832,10.5166096 96.6242966,10.3137599 96.2116101,10.3137599 L95.4590376,10.3137599 L95.4590376,12.209278 L95.8216878,12.209278 L95.8216878,11.4136563 Z" id="Fill-58" fill="#000000"></path>
            </g>
        </g>
    </g>
</svg>