<?xml version="1.0" encoding="UTF-8"?>
<svg width="159px" height="26px" viewBox="0 0 159 26" version="1.1" xmlns="http://www.w3.org/2000/svg" xmlns:xlink="http://www.w3.org/1999/xlink">
    <!-- Generator: Sketch 62 (91390) - https://sketch.com -->
    <title>Combined Shape</title>
    <desc>Created with Sketch.</desc>
    <g id="Page-7" stroke="none" stroke-width="1" fill="none" fill-rule="evenodd">
        <g id="assets" transform="translate(-1050.000000, -482.000000)" fill="#241F20">
            <path d="M1162.89895,488.612553 L1163.17441,488.614483 C1165.3244,488.60687 1167.40696,489.365945 1169.04909,490.754683 L1169.04909,490.754683 L1169.04909,489.09407 L1173.70033,489.08537 L1173.70033,507.483695 L1169.04909,507.483695 L1169.04909,505.818733 C1167.40805,507.208558 1165.32549,507.96872 1163.17441,507.958933 C1163.03848,507.962195 1162.90254,507.962195 1162.7666,507.958933 C1157.42589,507.845833 1153.18681,503.425145 1153.29883,498.083345 C1153.41193,492.741545 1157.83261,488.50247 1163.17441,488.614483 Z M1199.12825,488.605783 C1204.74193,488.605783 1207.5107,491.14727 1207.76191,494.998108 L1207.76191,494.998108 L1203.12481,494.998108 C1202.69634,492.953608 1201.05748,492.358745 1198.8455,492.358745 C1196.80426,492.358745 1195.69719,493.038433 1195.69719,494.146595 C1195.69719,495.002458 1196.42038,495.430933 1198.71718,495.85832 L1198.71718,495.85832 L1202.67568,496.66742 C1206.41885,497.479783 1208.20779,499.354633 1208.20779,501.86567 C1208.20779,505.392433 1205.18671,507.958933 1199.82643,507.958933 C1194.03658,507.958933 1191.18733,505.404395 1190.50655,501.562258 L1190.50655,501.562258 L1195.16975,501.562258 C1195.76461,503.606758 1197.2969,504.202708 1199.97541,504.202708 C1202.10583,504.202708 1203.42388,503.47952 1203.42388,502.327858 C1203.42388,501.60467 1202.95843,501.133783 1201.2119,500.792308 L1201.2119,500.792308 L1196.78795,499.770058 C1192.74463,498.917458 1190.86978,497.17202 1190.86978,494.489158 C1190.86978,490.608958 1194.27583,488.605783 1199.12825,488.605783 Z M1077.54999,482.56472 L1077.54999,491.639908 C1079.2454,489.92492 1081.55525,488.95922 1083.96733,488.957045 L1083.96733,488.957045 C1084.11088,488.953783 1084.24464,488.953783 1084.37949,488.957045 C1089.61472,489.06797 1093.76788,493.402745 1093.65695,498.63797 C1093.54603,503.873195 1089.21125,508.026358 1083.97603,507.91652 C1081.54329,507.900208 1079.21713,506.92037 1077.50649,505.190158 L1077.50649,505.190158 L1077.50649,507.492395 L1073.97647,507.492395 L1073.97647,482.56472 L1077.54999,482.56472 Z M1104.56132,488.957045 C1109.77262,488.957045 1113.62346,493.00472 1113.62346,498.417208 L1113.62346,498.417208 L1113.63216,499.585183 L1098.90849,499.585183 C1099.34784,502.558408 1101.89368,504.764945 1104.89844,504.779083 C1106.97122,504.81062 1108.92872,503.824258 1110.13584,502.13972 L1110.13584,502.13972 L1112.72844,504.038495 C1110.90471,506.527783 1107.98368,507.974158 1104.89844,507.91652 C1099.45659,507.91652 1095.28494,503.825345 1095.28494,498.417208 C1095.28385,498.39872 1095.28385,498.379145 1095.28385,498.360658 C1095.24905,493.201558 1099.40222,488.991845 1104.56132,488.957045 Z M1054.75273,482.56472 L1054.75273,497.966983 C1054.75273,501.950495 1057.32032,504.552883 1060.81989,504.552883 C1064.26835,504.552883 1066.94687,501.908083 1066.94687,497.94632 L1066.94687,482.56472 L1070.64763,482.56472 L1070.64763,507.492395 L1066.98928,507.492395 L1066.98928,505.134695 C1065.26233,506.92037 1062.8807,507.92087 1060.39577,507.902635 C1055.07789,507.902635 1050.98345,504.026533 1050.98345,498.147508 L1050.98345,482.56472 L1054.75273,482.56472 Z M1151.53164,482.56472 L1151.53164,486.842945 L1138.76874,486.842945 L1138.76874,492.918808 L1151.17711,492.918808 L1151.17711,497.052395 L1138.76874,497.052395 L1138.76874,503.230483 L1151.53164,503.230483 L1151.53164,507.509795 L1134.04464,507.509795 L1134.04464,482.56472 L1151.53164,482.56472 Z M1123.87423,489.213695 L1125.15857,489.213695 L1125.15857,492.538183 L1123.66543,492.538183 C1121.32513,492.538183 1119.66452,494.369533 1119.66452,497.18072 L1119.66452,507.492395 L1116.09208,507.492395 L1116.09208,489.34202 L1119.62211,489.34202 L1119.62211,491.558345 C1120.50842,490.061945 1122.13641,489.164758 1123.87423,489.213695 Z M1183.92718,483.84362 L1183.92718,489.08537 L1189.15914,489.08537 L1189.15914,493.26137 L1183.92718,493.26137 L1183.92718,501.86567 C1183.92718,502.845508 1184.60686,503.316395 1185.67153,503.316395 L1189.15914,503.316395 L1189.15914,507.492395 L1184.14033,507.492395 C1180.99093,507.492395 1179.24549,505.531633 1179.24549,503.059745 L1179.24549,493.26137 L1175.71546,493.26137 L1175.71546,489.08537 L1179.2618,489.08537 L1179.2618,483.84362 L1183.92718,483.84362 Z M1083.65087,492.153137 C1080.17957,492.16952 1077.37925,494.99702 1077.3955,498.46832 C1077.41188,501.93962 1080.23938,504.74102 1083.71068,504.723701 L1083.71068,504.723701 L1083.71068,504.707308 L1083.73678,504.707308 C1087.18198,504.70187 1089.97142,501.90482 1089.96599,498.45962 L1089.96599,498.45962 L1089.96599,498.409595 C1089.94967,494.937208 1087.12217,492.136895 1083.65087,492.153137 Z M1163.43106,492.667595 C1160.32408,492.703483 1157.8337,495.250408 1157.86959,498.357395 C1157.90548,501.464383 1160.4524,503.954758 1163.55939,503.919958 L1163.55939,503.919958 L1163.55069,503.911258 C1163.57135,503.911258 1163.59093,503.911258 1163.61159,503.91017 C1166.68269,503.882983 1169.15023,501.368683 1169.12195,498.297583 C1169.12195,498.274745 1169.12195,498.251908 1169.12086,498.230158 C1169.08606,495.122083 1166.53805,492.631708 1163.43106,492.667595 Z M1104.51782,492.110795 C1101.83495,492.110795 1099.62298,493.984558 1098.9857,496.752245 L1098.9857,496.752245 L1110.00752,496.752245 C1109.4083,493.984558 1107.20068,492.110795 1104.51782,492.110795 Z" id="Combined-Shape"></path>
        </g>
    </g>
</svg>