<svg width="103" height="45" xmlns="http://www.w3.org/2000/svg"><path d="M26.361.865l.078.002c.947.086.799 1.15 1.635 2.112.837.962.948 1.546-.043 4.094C26 12.29 26.165 11.077 24.21 19.22c3.575-.61 6.695-.967 6.985-1.01.993-.146 2.689.545 1.796 2.538 0 0-.95 1.718-1.315 2.45C31 24.42 30.14 26.242 29.6 27.472c-.33.727-.477 1.285-.51 1.69-.02.27.07.419.277.38.276-.051.675-.359 1.16-.88.469-.567 2.06-1.918 4.905-6.869l.754-1.598c.242-.477.59-1.324.655-1.701.08-.58.092-.73.559-1.034.754-.492 2.107-.9 2.888-.374.744.5.55 1.412-.06 2.526 2.474-2.885 3.113-3.001 3.665-3.104 1.037-.194 3.385 1.267 2.258 2.625-1.156 1.393-2.468 1.112-4.532 2.003-1.163.502-2.06 1.579-3.335 3.477-1.625 2.462-2.36 4.872-2.506 6.692-.009.533-.045.806-.318.99-2.726 1.838-3.561.453-3.497-1.23.015-.398.16-1.032.395-1.805-2.09 3.25-3.947 4.88-5.156 5.107-1.624.302-2.541-.857-2.369-3.015.078-.978.374-2.13.898-3.589a65.83 65.83 0 012.248-5.135c.21-.433.406-.842.58-1.216-1.229.248-2.983.62-5.041 1.102-.029.071-.054.115-.075.121-.874 4.216-.946 5.81-1.417 9.492-.206 1.61.098 3.344-1.755 3.612-1.854.268-2.475-1.701-2.49-3.39-.016-1.716.284-3.78 1.466-8.772-1.93.51-3.968 1.09-5.988 1.734a.43.43 0 01-.045.068c-3.346 6.332-6.656 14.175-7.201 16.704-.44 2.035-1.33 2.66-2.636 2.068-1.306-.592-2.067-1.95-1.59-3.465.855-2.713 3.477-8.822 5.81-13.2-.02.008 0-.054.05-.168-1.702.69-3.295 1.43-4.682 2.211-.913.514-2.067.046-2.289-1.012-.157-.753-.502-2.23 1.276-3.035 2.676-1.21 5.577-2.238 8.478-3.106C16.581 11.676 24.23.668 26.44.867zm42.443 0l.079.002c.946.086.798 1.15 1.635 2.112.836.962.947 1.546-.044 4.094-2.032 5.221-1.866 4.003-3.825 12.164l.57-.09c.796-.122 3.38-.435 3.284.679-.157 1.815-.815 1.79-3.13 2.299-.434.095-.898.2-1.384.31-.04.119-.076.192-.104.2-.874 4.216-.946 5.81-1.417 9.492-.206 1.61.098 3.344-1.755 3.612-1.854.268-2.494-1.701-2.49-3.39.007-2.982 1.469-8.825 1.473-8.861a115.74 115.74 0 00-5.93 1.712c-2.391 4.212-6.765 14.354-7.311 16.884-.439 2.034-1.33 2.66-2.636 2.067-1.306-.592-2.034-1.94-1.59-3.465 1.22-4.19 5.82-13.282 5.895-13.443-1.703.706-3.294 1.466-4.669 2.278-.853.503-1.944.024-2.164-1.034-.156-.753-.496-2.232 1.169-3.016 2.66-1.255 5.564-2.3 8.453-3.167C59.06 11.626 66.678.668 68.883.867zm10.913 18.807c-.213.943-.72 1.497-1.066 1.87-.251.27-.976.347-1.202.017-.547-.803-.87-1.874-2.458-1.233-1.275.515-1.347 2.249-1.074 3.092.446 1.354 2.251 2.376 2.236 4.327-.04 5.043-4.475 6.046-5.998 6.209-1.197.127-3.808-.464-4.245-2.55-.153-.675.83-2.487 1.036-2.802.354-.54.903-.22 1.09.053.41.601 2.611 2.568 3.886 1.296.818-.815-.451-1.888-.982-2.76-1.964-3.224.685-6.96 1.524-7.784 1.81-1.78 3.081-1.938 3.978-1.965 2.578-.084 3.47 1.369 3.275 2.23zm15.744-5.587c1.01-.14 1.837.34 2.227 1.307.276.786.336.843 1.016 1.145 1.071.445 1.433.824 1.36 1.394-.051.403-.195.72-.884 1.836a53.622 53.622 0 00-1.398 2.632c-.808 1.648-1.256 2.77-.471 3.053.298.108.845-.188 1.533-.937.759-.826 1.289-1.64 1.88-2.604.61-.99 1.89-.662 1.55.25-.298.792-.864 2.07-2.284 3.815-1.756 2.22-3.363 3.305-4.825 3.507-1.184.163-2.007-.35-2.21-1.442l-.074-.22c-.01-.197-.1-.283-.205-.269-.104.015-.182.091-.378.283-1.473 1.621-2.62 2.62-3.978 2.807-2.044.283-3.237-1.367-2.944-3.76-.545.842-1.119 1.64-1.63 2.229-1.604 1.836-2.91 3.001-4.128 3.169-1.637.227-2.492-.977-2.217-3.124.125-.973.475-2.109 1.07-3.542a65.553 65.553 0 012.49-5.023c.715-1.318 1.401-2.808 1.5-3.317.087-.407.13-.479.43-.685.378-.282 1.133-.61 1.588-.647 1.158-.094 2.69.773 1.69 2.568l-.396.68c-.052.14-.747 1.433-1.146 2.147-.734 1.188-1.68 2.967-2.278 4.17-.365.71-.538 1.26-.59 1.663-.034.268.049.422.258.393.278-.038.691-.326 1.2-.825.517-.565.838-.939 1.998-2.516l.412-.551c.328-.452 2.979-4.013 3.76-4.89 2.13-2.626 4.536-4.484 6.074-4.696zm.229 3.153l-.091.007c-.487.067-1.561.974-2.581 2.268-1.504 1.856-3.517 5.598-3.675 6.839-.065.504.132.839.48.79.557-.077 1.522-.934 2.551-2.296 1.39-1.774 3.546-5.833 3.688-6.94.065-.503-.08-.714-.463-.66zM24.08 7.604c-2.782 3.773-5.768 8.581-8.468 13.378 1.565-.38 3.089-.712 4.53-1.004 1.161-4.44 2.554-8.988 3.939-12.374zm42.444 0c-2.771 3.757-5.743 8.54-8.435 13.317 1.572-.373 3.087-.694 4.504-.969 1.159-4.432 2.549-8.969 3.93-12.348zm-32.025 3.227c1.332-.249 2.329.586 2.227 1.863-.102 1.278-1.265 2.514-2.596 2.763-1.332.248-2.33-.586-2.227-1.864.102-1.277 1.264-2.515 2.596-2.762zm52.625-1.808c1.332-.248 2.328.586 2.226 1.864-.101 1.277-1.264 2.513-2.596 2.761-1.331.249-2.328-.585-2.226-1.863.101-1.277 1.264-2.514 2.596-2.762z" fill="#000" fill-rule="evenodd"/></svg>