<svg width="431" height="431" xmlns="http://www.w3.org/2000/svg" xmlns:xlink="http://www.w3.org/1999/xlink"><defs><path id="a" d="M.086.452h215.462v215.462H.086z"/><path id="c" d="M0 .452h215.462v215.462H0z"/></defs><g fill="none" fill-rule="evenodd"><path d="M163.133 181c14.13.036 28.908 4.66 41.867 13.045l-12.045 19.789c-8.53-5.754-16.901-9.05-25.774-9.074-19.225-.048-32.404 13.514-32.454 33.169-.05 19.655 13.06 33.283 32.285 33.33 8.873.024 17.261-3.231 25.82-8.943l11.945 19.85c-13.002 8.32-27.802 12.869-41.933 12.834-34.835-.088-58.928-23.899-58.844-57.149.084-33.413 24.298-56.939 59.133-56.851M247.858 236.643L210.248 183l32.987.083 23.872 34.997 24.05-34.876 33.152.083-38.047 53.452L326 293l-33.808-.085-25.179-37.613-25.37 37.486-33.643-.085zM117.88 138c3.079.008 6.297 1.022 9.12 2.861l-2.624 4.34c-1.857-1.262-3.681-1.985-5.614-1.99-4.187-.01-7.059 2.963-7.069 7.274-.01 4.31 2.845 7.299 7.033 7.31 1.932.004 3.76-.71 5.624-1.962l2.601 4.352c-2.832 1.825-6.055 2.823-9.134 2.815-7.587-.019-12.835-5.24-12.817-12.533.019-7.327 5.293-12.486 12.88-12.467M140.964 157.864c3.76.01 6.393-3.038 6.403-7.348.01-4.31-2.606-7.37-6.366-7.38-3.76-.009-6.358 3.038-6.368 7.348-.01 4.31 2.57 7.37 6.33 7.38m.05-19.864c7.627.02 13.006 5.206 12.987 12.533-.018 7.328-5.422 12.486-13.05 12.467-7.626-.02-12.968-5.205-12.95-12.533.018-7.328 5.387-12.486 13.013-12.467M157.06 138l6.212.016 10.761 15.098.038-15.07 5.929.015-.06 23.941-6.211-.016-10.727-15.098-.037 15.071-5.965-.015zM185.06 138l6.211.016 10.762 15.098.038-15.071 5.929.015-.06 23.942-6.211-.016-10.727-15.098-.037 15.071-5.965-.015zM213.06 138l17.416.044-.013 4.848-10.87-.028-.012 4.492 9.727.025-.012 4.705-9.726-.024-.013 5.061 11.443.03-.013 4.847-17.987-.045zM246.88 138c3.078.008 6.297 1.022 9.12 2.861l-2.624 4.34c-1.858-1.262-3.681-1.985-5.614-1.99-4.187-.01-7.059 2.963-7.07 7.274-.01 4.31 2.846 7.299 7.034 7.31 1.932.004 3.76-.71 5.624-1.962l2.601 4.352c-2.832 1.825-6.056 2.823-9.134 2.815-7.587-.019-12.835-5.24-12.817-12.533.019-7.327 5.293-12.486 12.88-12.467M264.814 143.01l-6.814-.016.013-4.994 19.987.052-.013 4.993-6.779-.018-.047 18.973-6.394-.016zM281.06 138l17.416.044-.013 4.848-10.87-.028-.012 4.493 9.727.024-.012 4.705-9.726-.024-.013 5.062 11.443.029-.013 4.847-17.987-.045zM312.714 144.018l-3.139-.008-.035 13.986 3.139.008c3.887.01 6.641-2.874 6.652-6.976.01-4.103-2.73-7-6.617-7.01zM303.06 139l10.45.026c7.456.019 12.509 4.884 12.49 12.019-.017 7.063-5.095 11.974-12.549 11.955L303 162.974l.06-23.974z" fill="#373A3B"/><g transform="translate(215)"><mask id="b" fill="#fff"><use xlink:href="#a"/></mask><path d="M170.994 215.914h44.554C215.548 96.918 119.083.45.086.45v44.554c94.39 0 170.908 76.52 170.908 170.909" fill="#148997" mask="url(#b)"/></g><g><mask id="d" fill="#fff"><use xlink:href="#c"/></mask><path d="M215.462 45.006V.452C96.467.452 0 96.918 0 215.914h44.554c0-94.39 76.518-170.908 170.908-170.908" fill="#FF5A00" mask="url(#d)"/></g><path d="M430 216h-44.458c0 94.188-76.354 170.541-170.542 170.541V431c118.742 0 215-96.258 215-215" fill="#26CAD3"/><path d="M44.459 216H0c0 118.742 96.26 215 215 215v-44.459c-94.188 0-170.541-76.353-170.541-170.541" fill="#B8DBD2"/></g></svg>