<svg width="48" height="48" xmlns="http://www.w3.org/2000/svg"><g stroke-width="1.778" fill="none" fill-rule="evenodd"><path stroke="#FF5A00" d="M7.03 17.538l7.029 6.474M24.236 33.384l7.1 6.538"/><path d="M24.934 46.368l-6.8-6.37-.008-.24 15.11-16.338c.55-.57 1.131-1.212 1.791-2.063 1.315-1.697 2.339-5.462-1.226-8.62-3.446-3.057-6.525-2-8.274-1.037-.561.31-1.28 1.043-1.734 1.496L7.917 30.436l-.225.008-6.779-6.23a18.764 18.764 0 00-.009-.238l17.138-18.64.417-.406c.915-.783 4.371-3.494 9.036-3.964C32.313.48 37.044 2.31 40.633 5.641c3.426 3.181 5.825 7.81 5.687 11.694-.179 5.01-1.316 6.827-3.358 9.371-1.506 1.877-16.458 18.255-17.794 19.658a.164.164 0 01-.234.004z" stroke="#373A3B"/></g></svg>