<svg width="43" height="39" xmlns="http://www.w3.org/2000/svg"><g stroke-width="1.778" fill="none" fill-rule="evenodd" stroke-linecap="round" stroke-linejoin="round"><path d="M12.27.89h27.991c.68 0 1.23.55 1.23 1.23v26.76c0 1.014-1.157 1.593-1.968.985l-5.97-6.436a1.234 1.234 0 00-.904-.394H12.27c-.68 0-1.23-.55-1.23-1.23V2.12c0-.679.55-1.23 1.23-1.23z" stroke="#373A3B"/><path d="M30.11 8.502H2.12a1.23 1.23 0 00-1.23 1.23v26.762c0 1.013 1.156 1.59 1.967.984l5.972-6.435c.232-.251.56-.394.902-.394h20.38c.68 0 1.23-.551 1.23-1.23V9.732c0-.68-.55-1.23-1.23-1.23z" stroke="#373A3B"/><path d="M21.19 13.578a2.537 2.537 0 110 5.074 2.537 2.537 0 010-5.075z" stroke="#FF5A00"/></g></svg>