<svg width="47" height="47" xmlns="http://www.w3.org/2000/svg"><g stroke-width="1.778" fill="none" fill-rule="evenodd" stroke-linecap="round" stroke-linejoin="round"><path d="M27.604 15.095c.053 2.384-1.685 4.41-3.997 4.731a2.937 2.937 0 01-.573.055 3.774 3.774 0 01-.78-.055 4.655 4.655 0 01-4.006-4.507 4.676 4.676 0 014.57-4.785 4.673 4.673 0 014.785 4.561z" stroke="#373A3B"/><path d="M23.607 19.827a3.016 3.016 0 01-.573.054 3.707 3.707 0 01-.78-.054h1.353z" stroke="#373A3B"/><path d="M30.723 25.696v7.635a.532.532 0 01-.53.538H15.66a.532.532 0 01-.53-.538v-7.635a5.867 5.867 0 015.87-5.87h1.255c.25.045.51.063.78.055.197 0 .385-.018.573-.055h1.246a5.867 5.867 0 015.87 5.87z" stroke="#373A3B"/><path d="M16.403 2.012A22.575 22.575 0 0122.816.898C35.27.548 45.652 10.362 46 22.816 46.35 35.27 36.538 45.652 24.083 46 11.629 46.35 1.248 36.538.898 24.083a22.548 22.548 0 01.82-6.713" stroke="#373A3B"/><path d="M7.462 2.627a5.107 5.107 0 110 10.214 5.107 5.107 0 010-10.214z" stroke="#FF5A00"/></g></svg>