<svg width="30" height="29" xmlns="http://www.w3.org/2000/svg"><g fill="none" fill-rule="evenodd"><path d="M25.766 28.074H3.434A2.835 2.835 0 01.6 25.239V5.908a2.834 2.834 0 012.834-2.834h22.332A2.834 2.834 0 0128.6 5.908v19.33a2.835 2.835 0 01-2.834 2.836z" stroke="#373A3B" stroke-width="1.2"/><path stroke="#373A3B" stroke-width="1.2" stroke-linecap="round" d="M6.905.6v4.946M14.6.6v4.946M22.295.6v4.946"/><path d="M6.923 10.747a1.176 1.176 0 110 2.352 1.176 1.176 0 010-2.352M17.16 10.747a1.176 1.176 0 110 2.35 1.176 1.176 0 010-2.35M22.277 10.747a1.176 1.176 0 11.002 2.352 1.176 1.176 0 01-.002-2.352M6.923 15.865a1.176 1.176 0 110 2.353 1.176 1.176 0 010-2.353M6.923 20.983a1.177 1.177 0 110 2.354 1.177 1.177 0 010-2.354M12.04 10.747a1.176 1.176 0 11.002 2.352 1.176 1.176 0 01-.001-2.352M12.04 15.865a1.176 1.176 0 11.002 2.353 1.176 1.176 0 01-.001-2.353M12.04 20.983a1.177 1.177 0 110 2.354 1.177 1.177 0 010-2.354" fill="#373A3B"/><path d="M17.16 15.865a1.177 1.177 0 11-.002 2.354 1.177 1.177 0 01.001-2.354" fill="#FF5A00"/><path d="M22.277 15.865a1.176 1.176 0 11.002 2.353 1.176 1.176 0 01-.002-2.353M17.16 20.983a1.176 1.176 0 11-.001 2.352 1.176 1.176 0 010-2.352" fill="#373A3B"/></g></svg>