<svg width="19" height="18" xmlns="http://www.w3.org/2000/svg"><g fill="#000" fill-rule="evenodd"><path d="M9.228 0C4.132 0 0 4.13 0 9.228a9.23 9.23 0 006.311 8.756c.462.085.631-.2.631-.444 0-.22-.009-.946-.013-1.718-2.567.559-3.108-1.09-3.108-1.09-.42-1.065-1.026-1.35-1.026-1.35-.837-.571.064-.56.064-.56.927.066 1.415.95 1.415.95.822 1.412 2.158 1.004 2.684.768.083-.596.323-1.003.586-1.233-2.048-.234-4.204-1.025-4.204-4.561 0-1.007.361-1.83.952-2.477-.096-.232-.413-1.171.088-2.442 0 0 .776-.248 2.538.946a8.86 8.86 0 012.311-.311 8.872 8.872 0 012.312.31c1.76-1.193 2.535-.945 2.535-.945.502 1.27.186 2.21.09 2.442.591.647.95 1.47.95 2.477 0 3.544-2.159 4.324-4.214 4.553.331.287.626.848.626 1.709 0 1.234-.01 2.228-.01 2.532 0 .246.165.533.633.443a9.228 9.228 0 006.306-8.755A9.228 9.228 0 009.228 0"/><path d="M3.495 13.249c-.02.046-.092.06-.158.028-.067-.03-.105-.092-.082-.138.019-.047.092-.061.158-.03.067.032.105.094.082.14M3.869 13.666c-.044.04-.13.022-.188-.042-.061-.064-.072-.151-.028-.192.046-.041.129-.022.19.043.06.064.072.15.026.19M4.233 14.197c-.057.04-.149.003-.207-.079-.056-.082-.056-.18.002-.22.057-.04.148-.004.206.077.057.083.057.182 0 .222M4.731 14.71c-.05.057-.158.042-.237-.034-.08-.074-.103-.18-.053-.236.052-.056.16-.041.24.036.08.074.104.18.05.235M5.419 15.01c-.022.07-.126.104-.23.074-.105-.032-.173-.116-.152-.19.022-.072.126-.107.232-.073.103.03.17.115.15.189M6.175 15.064c.002.076-.087.14-.196.141-.112.003-.2-.06-.202-.134 0-.077.087-.14.197-.142.11-.002.2.06.2.135M6.877 14.945c.014.074-.063.15-.172.17-.107.02-.206-.025-.22-.1-.013-.076.065-.152.17-.172.11-.018.208.026.222.102"/></g></svg>