<svg width="18" height="19" xmlns="http://www.w3.org/2000/svg"><path d="M9.983.037c1.567.003 1.912.016 2.724.053.957.044 1.611.196 2.184.418a4.41 4.41 0 011.593 1.038c.5.5.808 1.002 1.038 1.593.222.573.375 1.227.418 2.184.044.96.054 1.266.054 3.71v.283c0 2.186-.012 2.505-.054 3.426-.043.958-.196 1.612-.418 2.184a4.41 4.41 0 01-1.038 1.594c-.5.5-1.002.808-1.593 1.038-.573.222-1.227.374-2.184.418-.96.044-1.266.054-3.71.054h-.283c-2.186 0-2.505-.012-3.426-.054-.958-.044-1.612-.196-2.184-.418A4.41 4.41 0 011.51 16.52a4.41 4.41 0 01-1.038-1.594C.25 14.354.098 13.7.054 12.742c-.037-.806-.05-1.15-.053-2.689V8.047C.004 6.48.017 6.135.054 5.323.098 4.366.25 3.712.472 3.14A4.41 4.41 0 011.51 1.546 4.41 4.41 0 013.104.508C3.676.286 4.33.134 5.288.09 6.094.053 6.438.04 7.977.037zm-.708 1.62H8.72c-2.148 0-2.447.01-3.357.052-.878.04-1.354.187-1.671.31-.42.163-.72.358-1.035.673-.314.315-.51.615-.673 1.035-.123.317-.27.793-.31 1.67-.043.949-.052 1.234-.052 3.636v.278c0 2.148.011 2.447.053 3.358.04.877.186 1.353.31 1.67.163.42.358.72.672 1.035.315.315.615.51 1.035.673.317.123.793.27 1.67.31.95.043 1.234.052 3.636.052 2.403 0 2.687-.01 3.636-.053.877-.04 1.353-.186 1.67-.31.42-.163.72-.357 1.035-.672.315-.315.51-.615.673-1.035.123-.317.27-.793.31-1.67.036-.797.048-1.126.051-2.634V8.03c-.003-1.509-.015-1.837-.051-2.634-.04-.877-.187-1.353-.31-1.67a2.789 2.789 0 00-.673-1.035 2.788 2.788 0 00-1.035-.673c-.317-.123-.793-.27-1.67-.31-.949-.043-1.233-.052-3.636-.052zm-.278 2.756a4.62 4.62 0 110 9.24 4.62 4.62 0 010-9.24zm0 1.62a3 3 0 100 5.999 3 3 0 000-5.998zM13.8 3.152a1.08 1.08 0 110 2.159 1.08 1.08 0 010-2.16z" fill="#000" fill-rule="evenodd"/></svg>