<svg width="37" height="48" xmlns="http://www.w3.org/2000/svg"><g stroke-width="1.778" fill="none" fill-rule="evenodd" stroke-linejoin="round"><path d="M35.196 23.76c0 13.017-12.501 20.478-16.16 22.382a2.172 2.172 0 01-1.987 0C13.389 44.238.889 36.777.889 23.76V2.101c0-.669.61-1.212 1.365-1.212h31.578c.754 0 1.364.543 1.364 1.212v21.66z" stroke="#373A3B"/><path stroke="#FF5A00" stroke-linecap="round" d="M18.079 21.813v1.984L17 25.29M19.233 25.29l-1.154-1.493 1.526-.713M18.079 23.797l-1.657-.713M27.202 21.813v1.984l-1.077 1.493M28.356 25.29l-1.154-1.493 1.526-.713M27.202 23.797l-1.656-.713M8.955 21.813v1.984L7.877 25.29M10.109 25.29l-1.154-1.493 1.527-.713M8.955 23.797l-1.656-.713"/></g></svg>