<svg width="18" height="15" xmlns="http://www.w3.org/2000/svg"><path d="M18 1.776c-.67.3-1.383.5-2.126.597A3.748 3.748 0 0017.497.282c-.713.436-1.5.744-2.34.916A3.655 3.655 0 0012.462 0c-2.043 0-3.688 1.7-3.688 3.786 0 .3.025.588.085.863C5.792 4.495 3.077 2.987 1.253.69a3.885 3.885 0 00-.505 1.913c0 1.31.658 2.473 1.64 3.145A3.575 3.575 0 01.72 5.282v.042C.72 7.164 2 8.69 3.677 9.043c-.3.084-.628.124-.968.124-.236 0-.475-.014-.699-.064.479 1.499 1.835 2.6 3.448 2.636A7.298 7.298 0 010 13.302 10.201 10.201 0 005.661 15c6.79 0 10.503-5.77 10.503-10.77 0-.167-.006-.329-.014-.49A7.469 7.469 0 0018 1.777z" fill="#000" fill-rule="nonzero"/></svg>