<svg width="20" height="14" xmlns="http://www.w3.org/2000/svg"><path d="M10.247 14c1.176-.006 6.193-.05 7.567-.418a2.504 2.504 0 001.768-1.768c.376-1.404.414-4.18.418-4.721v-.186c-.004-.54-.042-3.317-.418-4.72a2.505 2.505 0 00-1.768-1.77C16.44.05 11.423.007 10.247.002h-.494C8.577.006 3.56.05 2.186.418c-.86.23-1.538.908-1.768 1.768C.056 3.538.008 6.162 0 6.838v.324c.006.676.055 3.3.417 4.652.23.86.908 1.538 1.768 1.768 1.374.368 6.391.412 7.567.417zM8 10V4l5 3-5 3z" fill="#000" fill-rule="evenodd"/></svg>