<svg width="160" height="42" xmlns="http://www.w3.org/2000/svg" xmlns:xlink="http://www.w3.org/1999/xlink"><defs><path id="a" d="M.84.023h4.583v8.214H.84z"/><path id="c" d="M0 41.965h159.952V0H0z"/></defs><g fill="none" fill-rule="evenodd"><path d="M59.468 34.364l3.608 4.043h-1.203l-3.07-3.557c-.103-.125-.154-.204-.205-.255h-.026v3.812h-.844v-7.779h.844v3.662h.026c.05-.08.128-.156.204-.258l2.969-3.404h1.074l-3.377 3.736zM120.855 33.445c-.566 0-1.001.204-1.334.611-.307.41-.458.975-.458 1.666 0 .64.151 1.151.458 1.533.284.386.694.59 1.203.59.512 0 .924-.18 1.23-.562.333-.361.484-.819.484-1.356v-.845c0-.46-.15-.844-.46-1.177a1.54 1.54 0 00-1.123-.46m-1.948.128c.463-.563 1.075-.845 1.845-.845.768 0 1.328.307 1.66.921h.026v-3.457h.845v8.214h-.845v-.947h-.025c-.41.72-1.05 1.103-1.92 1.103-.688 0-1.253-.258-1.66-.77-.41-.484-.64-1.177-.64-2.019 0-.921.23-1.663.714-2.2M105.781 33.445c-.435 0-.819.176-1.123.509-.31.335-.435.77-.435 1.307v3.145h-.844v-8.214h.844v3.585h.023c.412-.693 1.023-1.049 1.817-1.049 1.256 0 1.868.742 1.868 2.275v3.403h-.817v-3.198c0-1.177-.435-1.763-1.333-1.763M95.061 22.365c0-4.043 4.504-4.504 6.96-4.504.689 0 1.587 0 2.047.23 0-1.816-1.358-2.251-2.945-2.251-1.558 0-2.917.23-4.273.895v-3.147c1.586-.691 3.38-.921 5.171-.921 3.404 0 6.318 1.356 6.318 5.424v4.965c0 1.125 0 2.021.23 3.147h-4.068c0-.694-.205-1.356-.205-2.022-1.123 1.559-2.275 2.252-4.296 2.252-2.482 0-4.939-1.128-4.939-4.068m4.274-.435c0 .895.895 1.558 2.021 1.558 1.586 0 2.712-1.558 2.712-3.145h-1.816c-1.564 0-2.917.435-2.917 1.587M125.1 38.407v-5.552h.844v1.151h.028c.128-.384.333-.69.586-.92.256-.206.538-.334.87-.334.23 0 .41.026.538.077v.896c-.151-.128-.382-.177-.666-.177-.409 0-.716.177-.972.56-.256.359-.384.845-.384 1.462v2.837h-.844zM124.435 10.312h.796c.253 0 .458.025.56.05.128.052.23.129.308.231a.726.726 0 01.102.333c0 .153-.077.307-.18.435-.127.128-.28.179-.485.204a.557.557 0 01.204.128c.077.077.205.23.333.435l.281.46h-.46l-.205-.357c-.153-.282-.281-.46-.384-.538-.05-.05-.153-.076-.281-.076h-.23v.972h-.359v-2.277zm.359.997h.46a.827.827 0 00.435-.102c.08-.077.128-.153.128-.256a.276.276 0 00-.077-.179.262.262 0 00-.153-.128c-.051-.025-.18-.025-.356-.025h-.437v.69zM143.064 36.95c0-1.023.614-1.64 1.843-1.816l1.663-.233c0-.973-.384-1.456-1.152-1.456-.665 0-1.279.23-1.816.688v-.867a3.412 3.412 0 011.893-.538c1.28 0 1.92.689 1.92 2.045v3.633h-.82v-.87h-.053c-.381.666-.944 1.026-1.686 1.026-.566 0-.998-.156-1.308-.463-.33-.279-.484-.665-.484-1.149m1.97.87c.433 0 .82-.156 1.1-.463.308-.332.436-.714.436-1.202v-.56l-1.356.178c-.46.075-.793.177-.998.359-.18.15-.282.409-.282.765 0 .284.103.488.307.665.205.182.461.258.794.258M87.922 30.628h1.1l2.431 5.479c.205.435.333.742.382.918h.028c.102-.255.23-.586.381-.946l2.482-5.45h1.077v7.778h-.872v-5.245c0-.41.028-.893.08-1.51h-.026c-.08.358-.157.617-.23.742l-2.716 6.013h-.38l-2.716-5.987c-.074-.151-.125-.41-.228-.768h-.025c.048.284.048.768.048 1.484v5.271h-.816v-7.779zM80.603 35.414l2.38-2.56h1.1l-2.61 2.688 2.815 2.865h-1.203l-2.482-2.66h-.026v2.66h-.844v-8.213h.844v5.22zM100.791 37.538c-.381.665-.947 1.023-1.686 1.023-.566 0-1-.153-1.308-.46-.332-.282-.483-.666-.483-1.15 0-1.025.611-1.64 1.84-1.816l1.69-.233c0-.972-.411-1.458-1.176-1.458-.666 0-1.28.23-1.817.69v-.87a3.406 3.406 0 011.893-.537c1.28 0 1.945.691 1.945 2.047v3.634h-.844v-.87h-.054zm-2.3.025c.204.18.458.256.79.256.435 0 .82-.153 1.103-.46.305-.333.46-.717.46-1.203v-.563l-1.384.182c-.458.074-.793.176-.995.355-.18.154-.284.41-.284.768 0 .281.105.486.31.665zM69.37 19.651c0-4.273 3.377-6.983 7.65-6.983 4.274 0 7.651 2.71 7.651 6.983 0 4.301-3.377 6.78-7.65 6.78-4.274 0-7.652-2.479-7.652-6.78m7.651-3.813c-2.021 0-2.917 1.792-2.917 3.813 0 1.817.896 3.608 2.917 3.608 2.022 0 2.943-1.791 2.943-3.608 0-2.021-.921-3.813-2.943-3.813M110.132 26.203V10.21l4.529-1.586v9.902h.205l3.608-5.399h4.964l-4.504 5.86 4.964 7.216h-5.424l-3.608-6.553h-.205v6.553zM63.485 35.721c0-.947.256-1.663.742-2.2.511-.538 1.202-.794 2.072-.794.82 0 1.459.256 1.92.768.46.512.69 1.228.69 2.124 0 .87-.23 1.586-.742 2.124-.511.537-1.177.818-1.996.818-.793 0-1.458-.281-1.944-.793s-.742-1.202-.742-2.047m2.738 2.124c.588 0 1.049-.205 1.356-.589.332-.383.486-.92.486-1.612 0-.69-.154-1.253-.486-1.637-.307-.384-.768-.563-1.356-.563-.563 0-1.024.205-1.382.588-.333.41-.512.947-.512 1.638 0 .665.18 1.177.512 1.586.358.384.819.589 1.382.589M128.531 36.95c0-1.023.612-1.64 1.817-1.816l1.686-.233c0-.973-.381-1.456-1.149-1.456-.668 0-1.28.23-1.817.688v-.867c.538-.359 1.177-.538 1.866-.538 1.305 0 1.944.689 1.944 2.045v3.633h-.844v-.87h-.026c-.38.666-.946 1.026-1.714 1.026-.537 0-.97-.156-1.302-.463-.307-.279-.461-.665-.461-1.149m1.945.87c.458 0 .816-.156 1.123-.463.284-.332.435-.714.435-1.202v-.56l-1.354.178c-.488.075-.818.177-1 .359-.177.15-.279.409-.279.765 0 .284.102.488.307.665.202.182.46.258.768.258M113.178 33.777c.407-.693 1.021-1.05 1.817-1.05.611 0 1.075.206 1.407.587.333.386.484.947.484 1.717v3.377h-.845v-3.175c0-1.2-.435-1.789-1.305-1.789-.458 0-.844.177-1.151.51-.279.335-.435.77-.435 1.279v3.175h-.845v-5.552h.845v.921h.028zM149.974 33.777c.435-.693 1.02-1.05 1.842-1.05.614 0 1.075.206 1.382.587.332.386.483.947.483 1.717v3.377h-.841v-3.175c0-1.2-.438-1.789-1.308-1.789-.458 0-.844.177-1.123.51-.307.335-.463.77-.463 1.279v3.175h-.817v-5.552h.817v.921h.028zM70.649 33.572h-.972v-.716h.972v-1.36l.819-.278v1.638h1.407v.716h-1.407v3.199c0 .38.076.665.204.818.128.154.333.23.64.23.23 0 .41-.05.563-.178v.716c-.205.128-.46.177-.793.177-.973 0-1.433-.538-1.433-1.61v-3.352z" fill="#231F20"/><path fill="#231F20" d="M57.42 26.203V9.98l4.503-1.356v9.902l3.839-5.399H70.7l-4.503 5.86 4.733 7.216h-5.399l-3.608-6.553v6.553zM109.672 31.243a.63.63 0 01-.13-.384c0-.153.053-.307.156-.409a.519.519 0 01.381-.154c.156 0 .284.052.386.154.126.128.18.256.18.41a.467.467 0 01-.18.383.523.523 0 01-.386.154.626.626 0 01-.407-.154M123.54 12.462a1.962 1.962 0 01-.28-1.05c0-.358.076-.716.28-1.049.177-.358.436-.614.794-.793a2.11 2.11 0 011.024-.281c.358 0 .713.102 1.049.281.332.18.611.435.793.793.179.333.281.691.281 1.05 0 .358-.102.716-.281 1.049a1.927 1.927 0 01-.768.793c-.36.18-.693.281-1.074.281-.361 0-.717-.102-1.05-.281a1.896 1.896 0 01-.767-.793m.947-2.585a1.542 1.542 0 00-.64.64c-.18.307-.256.589-.256.896 0 .307.077.588.228.87.181.281.386.511.668.665.278.153.588.23.87.23.307 0 .614-.077.895-.23.282-.154.486-.384.64-.665.153-.282.228-.563.228-.87a1.94 1.94 0 00-.228-.896 1.604 1.604 0 00-.665-.64 1.778 1.778 0 00-.87-.23c-.282 0-.592.077-.87.23"/><g transform="translate(154.53 30.17)"><mask id="b" fill="#fff"><use xlink:href="#a"/></mask><path fill="#231F20" mask="url(#b)" d="M4.093 2.684h1.1l-2.61 2.687 2.84 2.866H4.221L1.71 5.576h-.024v2.66H.84V.024h.847v5.22h.023z"/></g><path d="M137.282 30.628h2.175c.64 0 1.177.156 1.56.487.382.332.587.767.587 1.305 0 .435-.103.82-.356 1.128-.23.333-.537.56-.972.714v.028c.509.049.946.23 1.251.586.307.333.463.768.463 1.305 0 .668-.23 1.205-.693 1.612-.484.41-1.075.614-1.817.614h-2.198v-7.779zm3.429 1.948c0-.77-.489-1.152-1.51-1.152h-1.075v2.559h.945c.511 0 .923-.128 1.205-.36.307-.257.435-.612.435-1.047zm.41 3.605c0-.947-.669-1.407-1.948-1.407h-1.047v2.84h1.252c.537 0 .972-.125 1.279-.384.307-.256.463-.614.463-1.049zM91.888 26.433c-4.043 0-5.172-1.817-5.172-4.964v-5.195h-2.479v-3.147h2.712V10.21l4.274-1.587v4.504h3.147v3.147h-3.147v4.734c0 1.587.435 2.482 1.788 2.482.463 0 .898-.23 1.359-.23l.23 2.943c-.895 0-1.589.23-2.712.23" fill="#231F20"/><mask id="d" fill="#fff"><use xlink:href="#c"/></mask><path fill="#231F20" mask="url(#d)" d="M109.646 38.408h.844v-5.553h-.844zM74.231 34.134v-.87c.537-.355 1.177-.537 1.868-.537 1.28 0 1.945.69 1.945 2.047v3.633h-.845v-.87h-.025c-.384.666-.973 1.024-1.715 1.024-.563 0-.998-.154-1.305-.46-.307-.282-.46-.666-.46-1.15 0-1.026.588-1.64 1.816-1.816l1.69-.233c0-.973-.385-1.459-1.178-1.459-.665 0-1.254.23-1.791.691zm2.968 1.459l-1.382.181c-.46.075-.793.177-.972.356-.205.154-.281.41-.281.768 0 .281.102.488.281.665.205.18.46.256.793.256.435 0 .82-.154 1.1-.46.308-.333.461-.717.461-1.203v-.563zM24.386 0c13.433 0 24.41 9.417 24.41 20.983 0 11.565-10.977 20.982-24.41 20.982C10.952 41.965 0 32.548 0 20.983 0 9.417 10.952 0 24.386 0zm2.635 4.888l-5.425 1.765-.05 6.704c-1.05-.87-1.894-1.74-3.097-2.354-1.638-.819-3.25-1.075-4.785-.793-6.909 1.51-8.163 7.165-6.883 14.688 2.482 8.009 9.749 9.211 14.636 4.99l-.076 7.778 5.936-2.021-.077-7.754c5.706 7.114 14.15 5.272 15.558-4.657l-2.712-.128c-1.996 4.58-7.626 3.864-12.871.998v-1.202c3.864-4.632 8.93-9.033 12.999-3.94h2.482c-.973-5.17-3.583-8.42-8.65-8.88-2.532.051-4.835.972-6.908 2.712l-.077-7.906zM15.813 15.992h.051c2.073.205 3.992.742 5.63 1.74v2.226c-1.868 2.56-4.299 5.246-7.14 5.655-4.58.64-7.24-3.375-5.245-6.857 1.203-2.099 4.453-2.994 6.704-2.764z"/></g></svg>