<svg width="129" height="43" xmlns="http://www.w3.org/2000/svg"><g fill-rule="nonzero" fill="none"><path d="M56.396 24.816c-.484 1.753-.937 3.474-1.438 5.182-.625 2.128-1.309 4.24-1.923 6.371-.134.467-.35.573-.789.576-1.793.015-1.799.029-2.262-1.684-.91-3.362-1.81-6.727-2.728-10.137l-.597 12.03h-2.883l1.093-16.13c1.23 0 2.452-.022 3.67.027.142.006.33.386.393.62.931 3.464 1.845 6.933 2.764 10.4.043.162.106.32.121.365.985-3.433 2.013-6.946 2.986-10.473.198-.72.484-1.032 1.267-.97.947.076 1.905.018 2.94.018l.92 16.143h-3.022l-.512-12.338M106.75 32.558a5.24 5.24 0 00.008-2.365 7.74 7.74 0 00-.313-1.073c-.4-1.036-1.155-1.46-2.096-1.34-.956.123-1.713.791-1.804 1.83-.1 1.14-.082 2.3-.014 3.446.06 1.007.746 1.752 1.549 1.881 1.064.171 1.957-.271 2.353-1.3.134-.348.23-.71.317-1.08m-4.337 3.617v5.66h-3.127V25.465h2.598l.229 1.326c.643-.435 1.256-1.063 1.995-1.309 1.886-.628 3.784-.221 4.92 1.766 1.432 2.509 1.424 5.123.19 7.7-1.186 2.481-4.484 3.42-6.805 1.226M3.54 34.6h5.854v2.563H.372v-16.07H9.02v2.503H3.526v3.908h5.19v2.58H3.538zM61.207 25.429c1.083 0 2.063-.03 3.039.026.188.01.458.324.521.546.69 2.422 1.345 4.854 2.013 7.283.018.065.082.117.18.252.34-1.4.666-2.728.986-4.06.32-1.33.632-2.662.953-4.015h3.275c-.56 1.732-1.062 3.448-1.668 5.126-.965 2.67-1.934 5.343-3.026 7.962-.707 1.692-1.976 2.942-3.727 3.625-.253.099-.525.148-.88.245l-.762-2.412c.855-.662 1.686-1.216 2.404-1.89.653-.615.84-1.343.467-2.305-1.243-3.21-2.375-6.463-3.548-9.7-.068-.184-.125-.373-.227-.683M17.436 31.329c-1.04.299-1.901.452-2.677.796-.726.322-.963 1.235-.71 2.091.189.639.673.917 1.292.953.863.05 1.701-.542 1.88-1.413.143-.699.134-1.429.215-2.427m-.246-1.824c.057-1.34-.377-1.968-1.59-1.964-1.09.003-2.179.29-3.387.468l-.545-1.811c2.072-1.012 4.16-1.286 6.3-.576 1.466.487 2.405 2.132 2.416 3.989.012 1.785-.01 3.57.011 5.355.009.719.092 1.436.147 2.232-.864 0-1.663.02-2.46-.019-.141-.007-.314-.236-.394-.4-.09-.184-.09-.412-.146-.703-1.221 1.2-2.59 1.619-4.133 1.217-1.316-.343-2.161-1.235-2.444-2.579-.279-1.33-.012-2.545.97-3.531 1.227-1.232 2.82-1.531 4.463-1.675.245-.021.494-.003.792-.003M34.907 30.049h4.048c.154-1.335-.539-2.585-1.87-2.65-1.14-.055-2.097 1.106-2.178 2.65m6.446 6.663c-1.167.614-2.4.736-3.614.742-1.274.006-2.539-.198-3.65-.958-1.343-.92-1.995-2.258-2.176-3.788-.234-1.98.005-3.896 1.285-5.565 1.295-1.687 3.055-2.159 5.021-1.832 1.8.299 2.892 1.515 3.369 3.25.333 1.213.533 2.45.181 3.78h-6.826c-.044 1.336.834 2.46 2.176 2.565 1.052.081 2.126-.12 3.189-.202.171-.014.34-.068.578-.117l.467 2.125M72.528 23.752v-2.689h11.085v2.657h-3.99v13.437h-3.096V23.752zM23 34.586c1.088.183 2.056.379 3.034.497.586.071 1.13-.133 1.288-.776.16-.65-.058-1.193-.692-1.505-.538-.264-1.086-.506-1.62-.776-1.942-.984-2.718-2.604-2.05-4.349.521-1.359 1.59-2.194 2.975-2.332 1.141-.113 2.323.135 3.481.273.394.047.585.3.406.765-.196.507-.297 1.05-.438 1.573-.755-.151-1.47-.332-2.198-.43-.675-.09-1.299.091-1.474.843-.17.725.369 1.094.92 1.376.53.272 1.1.47 1.63.743 1.615.834 2.382 2.317 2.071 3.951-.281 1.482-1.604 2.658-3.254 2.908a8.099 8.099 0 01-4.047-.402c-.45-.163-.642-.386-.453-.89.192-.51.303-1.048.42-1.469M87.994 27.344c1.345-1.847 2.429-2.427 3.64-1.991v2.856c-1.79-.075-2.81.501-3.106 1.814-.121.534-.149 1.097-.154 1.647-.018 1.808-.007 3.617-.007 5.478h-3.115V25.485h2.575l.167 1.859M93.386 37.154h3.046V25.45h-3.046z" fill="#015999"/><path d="M125.512 42.243c1.283-.042 1.684-1.238 2.513-1.758.09.094.155.135.15.163-.156.799-1.68 2.22-2.463 2.31-.492.058-.889-.11-.963-.608-.092-.61-.093-1.235-.091-1.854 0-.592.056-1.183-.028-1.827-1.387.97-1.891 2.591-2.937 3.975-.647-1.343-.342-2.636-.489-4.06-.34.336-.64.547-.827.833-.544.838-1.035 1.71-1.566 2.558-.167.265-.394.493-.594.739l-.293-.125c.064-.596.093-1.2.2-1.788.163-.907.35-1.812.588-2.701.09-.34.29-.697.548-.927.175-.157.536-.106.814-.149-.009.256.031.526-.037.764-.138.488-.335.959-.374 1.5.33-.37.628-.776 1-1.095.218-.187.633-.393.818-.303.207.102.336.523.356.815.049.718.016 1.441.016 2.359.56-.764 1-1.378 1.458-1.978.256-.336.498-.716.834-.95.271-.187.75-.34.998-.221.25.122.454.594.46.918.02.873-.08 1.75-.123 2.625-.011.24.018.482.032.785M116.574 39.923c0-.1.03-.215-.006-.3a8.372 8.372 0 00-.128-.28c-.19-.395-.706-.54-1.05-.268a.344.344 0 00-.108.134c-.3.717-.57 1.482-.639 2.247-.06.662.536.878 1.062.459.635-.507.86-1.205.869-1.992m-4.955-.386c.069-.246.168-.473.187-.706.014-.176-.022-.454-.131-.516-.13-.072-.398-.013-.543.084-.687.461-1.176 2.448-.809 3.184.28.56.863.681 1.627.334.996-.452 1.564-1.291 2.002-2.24.363-.787.761-1.497 1.704-1.763.7-.198 1.075.118 1.33.646.554 1.143-.059 3.201-1.126 3.912-1.1.731-1.997.276-2.194-1.136-.414.328-.79.695-1.23.958-.766.46-1.614.843-2.466.292-.905-.584-.915-1.55-.8-2.502.188-1.556 1.272-2.596 2.499-2.454.583.068.757.45.77.929.018.688-.204.937-.82.978" fill="#000"/><path d="M94.912 23.913c-1.012-.005-1.713-.708-1.689-1.692.025-.998.716-1.638 1.753-1.624.942.012 1.645.714 1.658 1.656.012.953-.726 1.664-1.722 1.66M107.727 41.995c-.33.282-.584.61-.689.568-.229-.092-.476-.351-.53-.585-.032-.138.298-.512.454-.505.218.01.426.274.765.522" fill="#015999"/><path d="M81.474 3.507c-1.975-.183-3.951-.346-5.928-.512-2.652-.224-5.303-.45-7.956-.667-2.703-.22-5.407-.424-8.11-.643-2.953-.238-5.905-.49-8.858-.722-.246-.02-.5.06-.933.117.44.551.75.967 1.089 1.36 1.768 2.057 3.53 4.12 5.333 6.145.213.239.698.41 1.013.356C60.898 8.3 64.662 7.61 68.43 6.934c1.345-.242 2.69-.48 4.036-.72-.176.198-.378.28-.585.348-4.132 1.35-8.262 2.707-12.4 4.04-.483.155-.852.392-1.144.77l7.339 8.129c.328.2.6.106.988-.273 5.05-4.942 10.096-9.89 15.135-14.845.16-.158.226-.412.336-.622-.22-.087-.434-.233-.66-.254" fill="#00A3D6"/><path d="M58.165 11.62a140.889 140.889 0 01-2.459 3.955c-.132.206-.38.446-.598.472-2.31.28-4.618.611-6.937.75-4.51.27-9.045.094-13.535.77-2.993.451-5.854 1.242-8.442 2.877-1.651 1.042-2.978 2.403-4.096 3.98 2.232-2.386 5.104-3.49 8.192-4.126 4.787-.985 9.676-.941 14.518-1.38 2.318-.21 4.638-.469 6.934-.845 3.368-.552 6.588-1.594 9.571-3.372 1.298 1.46 2.579 2.905 3.862 4.346.189.212.35.363.5.454l-7.339-8.13c-.06.078-.117.159-.17.249" fill="#015999"/></g></svg>