<svg width="161" height="43" xmlns="http://www.w3.org/2000/svg" xmlns:xlink="http://www.w3.org/1999/xlink"><defs><path id="a" d="M.84.023h4.583v8.214H.84z"/></defs><g fill="none" fill-rule="evenodd"><path d="M59.86 34.454l3.607 4.043h-1.202l-3.07-3.557c-.103-.125-.154-.204-.206-.255h-.025v3.812h-.845v-7.779h.845v3.662h.025c.052-.08.128-.156.205-.258l2.968-3.404h1.075l-3.378 3.736zM121.246 33.535c-.565 0-1 .204-1.333.611-.307.41-.458.975-.458 1.666 0 .64.151 1.151.458 1.533.284.386.694.59 1.203.59.512 0 .924-.18 1.23-.562.333-.361.484-.819.484-1.356v-.845c0-.46-.15-.844-.46-1.177a1.54 1.54 0 00-1.124-.46m-1.947.128c.463-.563 1.075-.845 1.845-.845.768 0 1.328.307 1.66.921h.026v-3.457h.845v8.214h-.845v-.947h-.025c-.41.72-1.05 1.103-1.92 1.103-.688 0-1.253-.258-1.66-.77-.41-.484-.64-1.177-.64-2.019 0-.921.23-1.663.714-2.2M106.173 33.535c-.435 0-.819.176-1.123.509-.31.335-.435.77-.435 1.307v3.145h-.845v-8.214h.845v3.585h.023c.412-.693 1.023-1.049 1.817-1.049 1.256 0 1.867.742 1.867 2.275v3.403h-.816v-3.198c0-1.177-.435-1.763-1.333-1.763" fill="#003779"/><path d="M95.453 22.455c0-4.043 4.504-4.504 6.96-4.504.688 0 1.587 0 2.047.23 0-1.816-1.359-2.251-2.945-2.251-1.558 0-2.917.23-4.273.895v-3.147c1.586-.691 3.38-.921 5.171-.921 3.403 0 6.318 1.356 6.318 5.424v4.965c0 1.125 0 2.021.23 3.147h-4.068c0-.694-.205-1.356-.205-2.022-1.123 1.559-2.275 2.252-4.296 2.252-2.482 0-4.939-1.128-4.939-4.068m4.273-.435c0 .895.896 1.558 2.022 1.558 1.586 0 2.712-1.558 2.712-3.145h-1.817c-1.563 0-2.917.435-2.917 1.587" fill="#FF0003"/><path d="M125.492 38.497v-5.552h.844v1.151h.028c.128-.384.333-.69.586-.92.256-.206.538-.334.87-.334.23 0 .41.026.538.077v.896c-.151-.128-.382-.177-.666-.177-.41 0-.716.177-.972.56-.256.359-.384.845-.384 1.462v2.837h-.844zM124.827 10.402h.796c.253 0 .458.025.56.05.128.052.23.129.307.231a.726.726 0 01.103.333c0 .153-.077.307-.18.435-.127.128-.28.179-.486.204a.557.557 0 01.205.128c.077.077.205.23.333.435l.281.46h-.46l-.205-.357c-.154-.282-.282-.46-.384-.538-.051-.05-.153-.076-.281-.076h-.23v.972h-.359v-2.277zm.358.997h.461a.827.827 0 00.435-.102c.08-.077.128-.153.128-.256a.276.276 0 00-.077-.179.262.262 0 00-.153-.128c-.052-.025-.18-.025-.356-.025h-.438v.69zM143.456 37.04c0-1.023.614-1.64 1.842-1.816l1.664-.233c0-.973-.384-1.456-1.152-1.456-.665 0-1.28.23-1.817.688v-.867a3.412 3.412 0 011.894-.538c1.28 0 1.92.689 1.92 2.045v3.633h-.82v-.87h-.053c-.382.666-.945 1.026-1.687 1.026-.565 0-.998-.156-1.307-.463-.33-.279-.484-.665-.484-1.149m1.97.87c.433 0 .82-.156 1.1-.463.308-.332.436-.714.436-1.202v-.56l-1.356.178c-.461.075-.794.177-.998.359-.18.15-.282.409-.282.765 0 .284.102.488.307.665.205.182.46.258.793.258M88.314 30.718h1.1l2.431 5.479c.205.435.333.742.381.918h.029c.102-.255.23-.586.38-.946l2.483-5.45h1.077v7.778h-.872v-5.245c0-.41.028-.893.079-1.51h-.026c-.079.358-.156.617-.23.742l-2.715 6.013h-.381l-2.715-5.987c-.074-.151-.125-.41-.228-.768h-.025c.048.284.048.768.048 1.484v5.271h-.816v-7.779zM80.995 35.504l2.38-2.56h1.1l-2.61 2.688 2.814 2.865h-1.202l-2.482-2.66h-.026v2.66h-.844v-8.213h.844v5.22zM101.183 37.628c-.381.665-.947 1.023-1.686 1.023-.566 0-1-.153-1.308-.46-.333-.282-.484-.666-.484-1.15 0-1.025.612-1.64 1.84-1.816l1.692-.233c0-.972-.412-1.458-1.177-1.458-.666 0-1.28.23-1.817.69v-.87a3.406 3.406 0 011.893-.537c1.28 0 1.945.691 1.945 2.047v3.634h-.844v-.87h-.054zm-2.3.025c.204.18.457.256.79.256.435 0 .819-.153 1.103-.46.304-.333.46-.717.46-1.203v-.563l-1.384.182c-.458.074-.793.176-.995.355-.18.154-.284.41-.284.768 0 .281.105.486.31.665z" fill="#003779"/><path d="M69.761 19.741c0-4.273 3.378-6.983 7.651-6.983s7.651 2.71 7.651 6.983c0 4.301-3.378 6.78-7.65 6.78-4.274 0-7.652-2.479-7.652-6.78m7.651-3.813c-2.021 0-2.917 1.792-2.917 3.813 0 1.817.896 3.608 2.917 3.608 2.022 0 2.943-1.791 2.943-3.608 0-2.021-.921-3.813-2.943-3.813M110.524 26.293V10.3l4.529-1.586v9.902h.204l3.608-5.399h4.964l-4.503 5.86 4.964 7.216h-5.425l-3.608-6.553h-.204v6.553z" fill="#FF0003"/><path d="M63.876 35.811c0-.947.256-1.663.743-2.2.511-.538 1.202-.794 2.072-.794.819 0 1.459.256 1.92.768.46.512.69 1.228.69 2.124 0 .87-.23 1.586-.742 2.124-.512.537-1.177.818-1.996.818-.793 0-1.458-.281-1.944-.793-.487-.512-.743-1.202-.743-2.047m2.738 2.124c.589 0 1.05-.205 1.357-.589.332-.383.486-.92.486-1.612 0-.69-.154-1.253-.486-1.637-.307-.384-.768-.563-1.357-.563-.563 0-1.023.205-1.381.588-.333.41-.512.947-.512 1.638 0 .665.179 1.177.512 1.586.358.384.818.589 1.381.589M128.923 37.04c0-1.023.611-1.64 1.817-1.816l1.686-.233c0-.973-.381-1.456-1.15-1.456-.667 0-1.279.23-1.816.688v-.867c.537-.359 1.177-.538 1.866-.538 1.305 0 1.944.689 1.944 2.045v3.633h-.844v-.87h-.026c-.381.666-.947 1.026-1.714 1.026-.538 0-.97-.156-1.303-.463-.307-.279-.46-.665-.46-1.149m1.944.87c.459 0 .817-.156 1.124-.463.284-.332.435-.714.435-1.202v-.56l-1.354.178c-.489.075-.819.177-1 .359-.177.15-.28.409-.28.765 0 .284.103.488.308.665.202.182.46.258.767.258M113.57 33.867c.407-.693 1.02-1.05 1.817-1.05.611 0 1.074.206 1.407.587.333.386.484.947.484 1.717v3.377h-.845v-3.175c0-1.2-.435-1.789-1.305-1.789-.458 0-.844.177-1.151.51-.28.335-.435.77-.435 1.279v3.175h-.845v-5.552h.845v.921h.028zM150.365 33.867c.435-.693 1.021-1.05 1.843-1.05.614 0 1.075.206 1.382.587.332.386.483.947.483 1.717v3.377h-.842v-3.175c0-1.2-.437-1.789-1.307-1.789-.458 0-.845.177-1.124.51-.307.335-.463.77-.463 1.279v3.175h-.816v-5.552h.816v.921h.028zM71.04 33.662h-.972v-.716h.973v-1.36l.818-.278v1.638h1.408v.716h-1.408v3.199c0 .38.077.665.205.818.128.154.333.23.64.23.23 0 .41-.05.563-.178v.716c-.205.128-.46.177-.793.177-.973 0-1.433-.538-1.433-1.61v-3.352z" fill="#003779"/><path fill="#FF0003" d="M57.812 26.293V10.07l4.503-1.356v9.902l3.838-5.399h4.939l-4.504 5.86 4.734 7.216h-5.399l-3.608-6.553v6.553z"/><path d="M110.064 31.333a.63.63 0 01-.13-.384c0-.153.053-.307.156-.409a.519.519 0 01.38-.154c.157 0 .285.052.387.154.126.128.18.256.18.41a.467.467 0 01-.18.383.523.523 0 01-.386.154.626.626 0 01-.407-.154" fill="#003779"/><path d="M123.933 12.552a1.962 1.962 0 01-.282-1.05c0-.358.077-.716.282-1.049.176-.358.435-.614.793-.793a2.11 2.11 0 011.023-.281c.359 0 .714.102 1.05.281.332.18.611.435.793.793.179.333.281.691.281 1.05 0 .358-.102.716-.281 1.049a1.927 1.927 0 01-.768.793c-.36.18-.693.281-1.075.281-.36 0-.716-.102-1.049-.281a1.896 1.896 0 01-.767-.793m.946-2.585a1.542 1.542 0 00-.64.64c-.178.307-.255.589-.255.896 0 .307.077.588.227.87.182.281.387.511.668.665.28.153.589.23.87.23.307 0 .614-.077.896-.23.281-.154.486-.384.64-.665.153-.282.227-.563.227-.87a1.94 1.94 0 00-.227-.896 1.604 1.604 0 00-.666-.64 1.778 1.778 0 00-.87-.23c-.281 0-.59.077-.87.23" fill="#00367E"/><g transform="translate(154.921 30.26)"><mask id="b" fill="#fff"><use xlink:href="#a"/></mask><path fill="#003779" mask="url(#b)" d="M4.093 2.684h1.1l-2.61 2.687 2.84 2.866H4.221L1.71 5.576h-.024v2.66H.84V.024h.847v5.22h.023z"/></g><path d="M137.674 30.718h2.175c.64 0 1.177.156 1.56.487.382.332.587.767.587 1.305 0 .435-.103.82-.356 1.128-.23.333-.537.56-.972.714v.028c.509.049.946.23 1.25.586.308.333.464.768.464 1.305 0 .668-.23 1.205-.694 1.612-.483.41-1.074.614-1.816.614h-2.198v-7.779zm3.429 1.948c0-.77-.49-1.152-1.51-1.152h-1.075v2.559h.944c.512 0 .924-.128 1.206-.36.307-.257.435-.612.435-1.047zm.409 3.605c0-.947-.668-1.407-1.947-1.407h-1.047v2.84h1.251c.538 0 .973-.125 1.28-.384.307-.256.463-.614.463-1.049z" fill="#003779"/><path d="M92.28 26.523c-4.043 0-5.172-1.817-5.172-4.964v-5.195h-2.48v-3.147h2.713V10.3l4.273-1.587v4.504h3.148v3.147h-3.148v4.734c0 1.587.435 2.482 1.789 2.482.463 0 .898-.23 1.359-.23l.23 2.943c-.896 0-1.589.23-2.712.23" fill="#FF0003"/><path fill="#003779" d="M110.037 38.498h.845v-5.553h-.845zM74.623 34.224v-.87c.537-.355 1.177-.537 1.868-.537 1.28 0 1.944.69 1.944 2.047v3.633h-.844v-.87h-.026c-.383.666-.972 1.024-1.714 1.024-.563 0-.998-.154-1.305-.46-.307-.282-.46-.666-.46-1.15 0-1.026.588-1.64 1.816-1.816l1.689-.233c0-.973-.384-1.459-1.177-1.459-.665 0-1.254.23-1.791.691zm2.968 1.459l-1.382.181c-.46.075-.793.177-.972.356-.205.154-.282.41-.282.768 0 .281.103.488.282.665.205.18.46.256.793.256.435 0 .819-.154 1.1-.46.307-.333.461-.717.461-1.203v-.563z"/><path d="M40.437 23.197l2.712.128c-1.407 9.928-9.851 11.768-15.557 4.657l-.026-3.787c5.246 2.866 10.875 3.582 12.871-.998M34.399 10.172c5.066.46 7.676 3.71 8.648 8.879h-2.482c-4.068-5.092-9.135-.691-12.999 3.94l-.076-10.107c2.072-1.74 4.375-2.661 6.909-2.712" fill="#FEFEFE"/><path d="M27.592 27.982l.077 7.75-5.937 2.022.077-7.778a7.855 7.855 0 001.228-1.2c.717-.848 1.663-2.15 2.738-3.585a19.481 19.481 0 001.817 2.791" fill="#ED1B23"/><path d="M27.567 24.194l.025 3.787a19.45 19.45 0 01-1.816-2.79c.358-.434.716-.92 1.125-1.381.23.128.461.256.666.384" fill="#FEFEFE"/><path d="M27.567 22.992v1.203c-.205-.128-.435-.256-.666-.387a9.32 9.32 0 01.666-.816" fill="#FEFEFE"/><path d="M27.49 12.884l.076 10.107c-.256.282-.46.538-.665.82-.256-.154-.538-.308-.794-.487l-.69 1.177c.128.23.23.46.358.691-1.075 1.433-2.022 2.738-2.738 3.582-.384.461-.793.87-1.228 1.203l.076-9.928c.666-.896 1.229-1.766 1.74-2.533 1.177-1.92 2.482-3.48 3.864-4.632" fill="#FEFEFE"/><path d="M26.107 23.324c.256.18.538.333.794.484-.41.463-.768.95-1.126 1.382-.128-.228-.23-.458-.358-.689l.69-1.177z" fill="#FEFEFE"/><path d="M27.49 12.884c-1.383 1.152-2.688 2.712-3.865 4.632-.511.767-1.074 1.637-1.74 2.533v-2.226l.026-3.173.026-1.203.05-6.704 5.425-1.766.077 7.907z" fill="#ED1B23"/><path d="M21.912 14.65l-.026 3.172.026-3.173z" fill="#004A8F"/><path d="M21.886 20.048c-1.868 2.56-4.3 5.246-7.14 5.655-4.58.64-7.24-3.375-5.245-6.857 1.203-2.099 4.452-2.994 6.704-2.764h.051c2.073.205 3.992.742 5.63 1.74v2.226z" fill="#003779"/><path d="M21.912 14.65l-.026 3.172c-1.637-.998-3.556-1.535-5.629-1.74h-.051c-2.252-.23-5.502.666-6.704 2.764-1.996 3.48.665 7.497 5.245 6.858 2.84-.41 5.271-3.097 7.14-5.655l-.077 9.928c-4.888 4.222-12.155 3.02-14.637-4.987-1.28-7.526-.025-13.18 6.883-14.69 1.536-.282 3.148-.026 4.785.793 1.203.614 2.047 1.484 3.097 2.354l-.026 1.202z" fill="#FEFEFE"/><path d="M43.15 23.324l-2.713-.128c-1.996 4.58-7.625 3.864-12.87.998v-1.202c3.863-4.632 8.93-9.033 12.998-3.94h2.482c-.972-5.17-3.582-8.42-8.648-8.88-2.534.051-4.837.972-6.91 2.712l-.076-7.906-5.425 1.765-.05 6.704c-1.05-.87-1.894-1.74-3.097-2.354-1.638-.819-3.25-1.075-4.785-.793-6.909 1.51-8.163 7.165-6.883 14.688 2.482 8.009 9.749 9.211 14.636 4.99l-.077 7.778 5.937-2.021-.077-7.754c5.706 7.114 14.15 5.272 15.558-4.657m6.039-2.251c0 11.565-10.978 20.982-24.412 20.982-13.433 0-24.385-9.417-24.385-20.982C.392 9.507 11.344.09 24.777.09 38.211.09 49.19 9.507 49.19 21.073" fill="#013875"/></g></svg>