<svg width="111" height="36" xmlns="http://www.w3.org/2000/svg"><g fill="none" fill-rule="evenodd"><path d="M37.676 23.933c-2.664 0-4.965-2.196-4.965-5.329 0-3.163 2.3-5.328 4.965-5.328 2.664 0 4.964 2.165 4.964 5.328 0 3.133-2.3 5.329-4.964 5.329m0-14.123c-4.86 0-8.825 3.693-8.825 8.794 0 5.056 3.966 8.795 8.825 8.795 4.859 0 8.825-3.724 8.825-8.795 0-5.1-3.966-8.794-8.825-8.794" fill="#FF2D1E"/><path d="M13.82 12.837v3.724h8.9c-.272 2.089-.968 3.618-2.028 4.692-1.302 1.302-3.33 2.725-6.872 2.725-5.48 0-9.763-4.42-9.763-9.9 0-5.479 4.284-9.9 9.763-9.9 2.952 0 5.116 1.166 6.706 2.665l2.618-2.619C20.934 2.075 17.967.44 13.82.44 6.312.44 0 6.556 0 14.063c0 7.508 6.312 13.624 13.82 13.624 4.057 0 7.114-1.333 9.506-3.815 2.452-2.452 3.224-5.918 3.224-8.704 0-.863-.06-1.665-.197-2.33H13.82z" fill="#0072FE"/><path d="M76.502 23.933c-2.664 0-4.692-2.271-4.692-5.329 0-3.103 2.028-5.328 4.692-5.328 2.634 0 4.693 2.27 4.693 5.358.014 3.074-2.06 5.299-4.693 5.299zm4.435-12.155h-.136c-.863-1.03-2.528-1.968-4.632-1.968-4.39 0-8.22 3.83-8.22 8.794 0 4.935 3.83 8.795 8.22 8.795 2.104 0 3.77-.938 4.632-1.998h.136v1.226c0 3.36-1.801 5.162-4.692 5.162-2.362 0-3.83-1.696-4.435-3.133l-3.36 1.392c.968 2.331 3.526 5.192 7.795 5.192 4.526 0 8.355-2.664 8.355-9.158V10.264h-3.663v1.514z" fill="#0074F5"/><path d="M57.354 23.933c-2.665 0-4.965-2.196-4.965-5.329 0-3.163 2.3-5.328 4.965-5.328 2.664 0 4.965 2.165 4.965 5.328 0 3.133-2.3 5.329-4.965 5.329m0-14.123c-4.86 0-8.825 3.693-8.825 8.794 0 5.056 3.966 8.795 8.825 8.795 4.859 0 8.825-3.724 8.825-8.795 0-5.1-3.966-8.794-8.825-8.794" fill="#FFB200"/><path fill="#009C36" d="M87.628 27.399h3.799V.803h-3.8z"/><path d="M102.886 13.11c1.56 0 2.89.802 3.33 1.937l-7.947 3.285c0-3.694 2.619-5.222 4.617-5.222m.272 10.823c-1.967 0-3.36-.894-4.269-2.665l11.762-4.859-.394-.998c-.726-1.968-2.966-5.601-7.523-5.601-4.525 0-8.295 3.557-8.295 8.794 0 4.935 3.724 8.795 8.719 8.795 4.027 0 6.358-2.467 7.326-3.89l-2.997-1.998c-.999 1.453-2.361 2.422-4.329 2.422" fill="red"/></g></svg>