<svg width="226" height="70" xmlns="http://www.w3.org/2000/svg"><g fill="none" fill-rule="evenodd"><path d="M215.502 24.322c2.893 0 5.265 1.032 7.125 3.143 1.85 2.076 2.803 4.754 2.803 8.078 0 3.279-.953 5.957-2.803 8.078-1.86 2.065-4.232 3.109-7.125 3.109-2.167 0-4.061-.692-5.752-2.03v10.494h-7.59V24.833h6.036l.953 1.985c1.645-1.68 3.755-2.496 6.353-2.496zm-43.704-8.485v10.517c1.643-1.338 3.535-2.018 5.733-2.018 2.888 0 5.268 1.032 7.114 3.14 1.858 2.074 2.81 4.748 2.81 8.069 0 3.275-.952 5.95-2.81 8.069-1.846 2.063-4.226 3.105-7.114 3.105-2.583 0-4.702-.827-6.333-2.504l-.952 1.983h-6.038V15.837h7.59zM149.81 24.21c3.584 0 6.531 1.035 8.784 3.152 2.299 2.082 3.425 4.767 3.425 8.101 0 3.288-1.126 5.974-3.425 8.101-2.253 2.071-5.2 3.118-8.784 3.118-3.595 0-6.497-1.047-8.795-3.118-2.299-2.127-3.425-4.813-3.425-8.1 0-3.29 1.126-5.974 3.425-8.102 2.298-2.117 5.2-3.152 8.795-3.152zm-39.112.105c2.541 0 4.567.776 6.16 2.373 1.595 1.554 2.37 3.54 2.37 6v13.51h-7.59V33.901c0-1.874-1.509-3.433-3.383-3.421-2.35.014-3.926 1.7-3.926 4.243v11.475h-7.59V24.833h6.031l.948 2.33c1.766-1.9 4.093-2.848 6.98-2.848zm-18.177.518v21.365h-7.59V24.833h7.59zm105.422 0v21.365h-7.59V24.833h7.59zm-65.352-9.57c1.769 0 3.536.216 5.304.693l-.948 5.629c-.992-.173-1.812-.26-2.502-.26-1.379 0-2.285.866-2.285 2.295v1.213h4.498v5.622h-4.498v15.743h-7.59V30.455h-3.655v-5.622h3.654V22.84c0-2.294.734-4.113 2.2-5.499 1.51-1.385 3.451-2.078 5.822-2.078zm17.22 14.83c-2.607 0-4.427 2.207-4.427 5.37 0 3.118 1.82 5.325 4.426 5.325 2.595 0 4.46-2.207 4.46-5.325 0-3.163-1.865-5.37-4.46-5.37zm63.515.09c-2.298 0-3.857 1.73-3.857 4.154v2.253c0 2.378 1.559 4.107 3.857 4.107 2.47 0 4.244-2.162 4.244-5.234 0-3.118-1.775-5.28-4.244-5.28zm-37.67 0c-2.299 0-3.858 1.73-3.858 4.154v2.253c0 2.378 1.56 4.107 3.858 4.107 2.457 0 4.232-2.162 4.232-5.234 0-3.118-1.775-5.28-4.232-5.28zm18.532-15.462c2.598 0 4.374 1.819 4.374 4.373 0 2.469-1.776 4.33-4.374 4.33-2.469 0-4.33-1.861-4.33-4.33 0-2.554 1.861-4.373 4.33-4.373zm-101.667-.009v7.59h-7.59v-7.59h7.59z" fill="#373A3B"/><path d="M34.299 0C53.084 0 68.34 15.408 68.597 34.508c.257 19.58-15.58 35.751-34.768 35.489C15.1 69.735 0 54.167 0 34.999 0 15.67 15.357 0 34.299 0zm.007 9.8c-8.635 0-16.063 2.269-19.844 6.062C10.669 19.654 8.4 27.07 8.4 35.706c0 8.635 2.269 16.051 6.062 19.844 3.78 3.793 11.209 6.05 19.844 6.05 8.635 0 16.051-2.257 19.844-6.05 3.781-3.793 6.05-11.21 6.05-19.844 0-8.635-2.269-16.052-6.05-19.844C50.357 12.069 42.94 9.8 34.306 9.8zm.637 4.286l.461.003c7.06.072 13.285 1.807 15.935 4.458 2.708 2.708 4.46 9.148 4.46 16.396 0 3.618-.432 7.043-1.217 9.899-.774 2.856-1.889 5.143-3.243 6.497-2.708 2.708-9.148 4.46-16.396 4.46-7.248 0-13.677-1.752-16.385-4.46-2.72-2.708-4.46-9.148-4.46-16.396 0-7.248 1.74-13.688 4.46-16.396 2.708-2.708 9.137-4.46 16.385-4.46zm-.046 8.363l-.4.002c-7.224.055-9.031 1.6-9.642 2.211l-.092.093c-.597.6-2.257 2.392-2.257 10.074 0 7.817 1.718 9.535 2.287 10.104.558.569 2.276 2.287 10.104 2.287l.4-.002c7.214-.055 9.021-1.611 9.641-2.222l.063-.063c.558-.569 2.276-2.287 2.276-10.104 0-7.817-1.718-9.535-2.276-10.104-.569-.569-2.287-2.276-10.104-2.276zm4.766 5.757c1.09 0 1.975.885 1.975 1.984v9.526c0 1.05-.807 1.903-1.828 1.979l-.147.005h-9.545a1.978 1.978 0 01-1.974-1.984V30.19c0-1.1.885-1.984 1.974-1.984h9.545z" fill="#FF5A00"/></g></svg>