<svg width="159" height="27" xmlns="http://www.w3.org/2000/svg"><g fill="none" fill-rule="evenodd"><path d="M10.82 22.778c3.448 0 6.127-2.645 6.127-6.606V.79h3.7v24.928H16.99V23.36a9.078 9.078 0 01-6.593 2.768c-5.318 0-9.413-3.876-9.413-9.755V.79h3.77v15.402c0 3.984 2.567 6.586 6.067 6.586zm22.89.171a6.285 6.285 0 116.255-6.314l.001.05a6.239 6.239 0 01-6.23 6.248h-.025v.016zm.257-15.767a9.034 9.034 0 00-6.417 2.683V.79h-3.574v24.928h3.53v-2.302a9.183 9.183 0 006.47 2.726c5.235.11 9.57-4.043 9.681-9.279.11-5.235-4.042-9.57-9.278-9.68a8.317 8.317 0 00-.403 0h-.009zm15.019 7.796c.637-2.768 2.849-4.642 5.532-4.642s4.89 1.874 5.49 4.642H48.986zm14.637 1.665c0-5.413-3.85-9.46-9.062-9.46a9.34 9.34 0 00-9.276 9.46c0 5.408 4.172 9.499 9.613 9.499a9.487 9.487 0 007.83-3.878l-2.592-1.899a6.326 6.326 0 01-5.238 2.64 6.084 6.084 0 01-5.99-5.194h14.724l-.009-1.168zm10.042-5.88c-2.34 0-4 1.832-4 4.643v10.312h-3.573V7.568h3.53v2.216a4.785 4.785 0 014.252-2.345h1.285v3.325h-1.494z" fill="#262626"/><path d="M113.56 22.145a5.628 5.628 0 01-.129-11.252 5.625 5.625 0 015.691 5.63 5.562 5.562 0 01-5.51 5.613h-.061l.008.01zm5.49-14.826V8.98a9.049 9.049 0 00-5.876-2.14c-5.341-.112-9.762 4.127-9.875 9.469-.112 5.342 4.127 9.762 9.468 9.875.136.004.271.004.407 0a9.027 9.027 0 005.875-2.14v1.665h4.651V7.311l-4.65.008zm20.11 18.399h-5.02c-3.15 0-4.895-1.961-4.895-4.433v-9.798h-3.53V7.31h3.547V2.069h4.665v5.242h5.232v4.176h-5.232v8.604c0 .98.68 1.45 1.745 1.45h3.487v4.177zm10.666.466c5.36 0 8.382-2.566 8.382-6.093 0-2.511-1.79-4.386-5.532-5.198l-3.959-.81c-2.297-.427-3.02-.855-3.02-1.711 0-1.108 1.107-1.788 3.149-1.788 2.211 0 3.85.595 4.279 2.64h4.637c-.251-3.851-3.02-6.393-8.634-6.393-4.852 0-8.258 2.003-8.258 5.884 0 2.682 1.875 4.428 5.918 5.28l4.424 1.023c1.746.341 2.212.812 2.212 1.535 0 1.152-1.318 1.875-3.449 1.875-2.678 0-4.21-.596-4.805-2.64h-4.663c.68 3.842 3.53 6.396 9.32 6.396zM84.045.79h17.487v4.278H88.769v6.076h12.408v4.134H88.77v6.178h12.763v4.28H84.045V.79z" fill="#5FB709"/></g></svg>