<svg width="103" height="44" xmlns="http://www.w3.org/2000/svg"><path d="M26.361.09l.078.003c.947.085.799 1.149 1.635 2.111.837.963.948 1.546-.043 4.094-2.03 5.218-1.866 4.004-3.821 12.148 3.575-.609 6.695-.967 6.985-1.01.993-.146 2.689.545 1.795 2.539 0 0-.95 1.717-1.314 2.45-.676 1.222-1.536 3.043-2.077 4.273-.33.726-.477 1.284-.51 1.689-.02.27.07.42.277.38.276-.051.675-.358 1.16-.88.469-.566 2.06-1.917 4.905-6.868l.754-1.598c.242-.477.59-1.324.655-1.702.08-.58.092-.73.559-1.034.754-.492 2.107-.899 2.888-.373.744.5.55 1.411-.06 2.525 2.474-2.885 3.113-3 3.665-3.103 1.037-.194 3.385 1.267 2.258 2.624-1.156 1.393-2.468 1.112-4.532 2.003-1.163.502-2.06 1.58-3.335 3.478-1.625 2.462-2.36 4.871-2.506 6.692-.008.533-.045.805-.318.99-2.726 1.838-3.561.452-3.497-1.23.015-.399.16-1.033.395-1.806-2.09 3.25-3.947 4.881-5.156 5.107-1.624.303-2.541-.857-2.369-3.015.078-.977.374-2.129.898-3.588a65.83 65.83 0 012.248-5.136c.21-.433.406-.842.58-1.215-1.229.248-2.983.619-5.041 1.102-.029.07-.054.115-.075.12-.874 4.216-.946 5.811-1.417 9.493-.206 1.61.098 3.344-1.755 3.611-1.854.268-2.475-1.7-2.49-3.39-.016-1.716.284-3.78 1.466-8.771-1.93.51-3.968 1.09-5.988 1.734a.43.43 0 01-.045.068c-3.346 6.332-6.656 14.174-7.201 16.704-.44 2.034-1.33 2.66-2.636 2.068-1.306-.593-2.067-1.95-1.59-3.466.855-2.713 3.477-8.821 5.81-13.2-.02.009 0-.054.05-.167-1.702.69-3.295 1.429-4.682 2.21-.913.514-2.067.047-2.289-1.012-.157-.752-.502-2.23 1.276-3.034 2.676-1.211 5.577-2.239 8.478-3.106C16.581 10.9 24.23-.107 26.44.092zm42.443 0l.079.003c.946.085.798 1.149 1.635 2.111.836.962.947 1.546-.044 4.094-2.032 5.222-1.866 4.003-3.825 12.164l.57-.089c.796-.122 3.38-.436 3.284.678-.157 1.815-.815 1.791-3.13 2.3-.434.094-.898.198-1.384.31-.04.118-.076.192-.104.2-.874 4.215-.946 5.81-1.417 9.492-.206 1.61.098 3.344-1.755 3.611-1.854.268-2.494-1.7-2.49-3.39.007-2.981 1.469-8.824 1.473-8.861a115.74 115.74 0 00-5.93 1.713c-2.391 4.211-6.765 14.353-7.311 16.883-.439 2.034-1.33 2.66-2.636 2.068-1.306-.593-2.034-1.94-1.59-3.466 1.22-4.19 5.82-13.281 5.895-13.442-1.703.705-3.294 1.465-4.669 2.277-.853.504-1.944.024-2.164-1.034-.156-.753-.496-2.231 1.169-3.016 2.66-1.254 5.564-2.3 8.453-3.166C59.06 10.852 66.678-.107 68.883.093zm10.913 18.807c-.213.943-.72 1.498-1.066 1.87-.251.27-.976.348-1.202.017-.547-.802-.87-1.873-2.458-1.232-1.275.514-1.347 2.248-1.074 3.092.446 1.353 2.251 2.375 2.236 4.327-.04 5.042-4.475 6.045-5.998 6.208-1.197.128-3.808-.464-4.245-2.55-.153-.675.83-2.487 1.036-2.802.354-.54.903-.22 1.09.053.41.602 2.611 2.568 3.886 1.297.818-.816-.451-1.889-.982-2.761-1.964-3.224.685-6.96 1.524-7.784 1.81-1.779 3.081-1.938 3.978-1.964 2.578-.085 3.47 1.368 3.275 2.23zM95.46 13.31c1.01-.14 1.837.34 2.227 1.308.276.785.336.843 1.016 1.145 1.071.444 1.433.823 1.36 1.394-.051.402-.195.719-.884 1.836a53.622 53.622 0 00-1.398 2.631c-.808 1.648-1.256 2.77-.471 3.054.298.107.845-.189 1.533-.938.759-.825 1.289-1.64 1.88-2.604.61-.989 1.89-.662 1.55.25-.298.792-.864 2.07-2.284 3.815-1.756 2.22-3.363 3.305-4.825 3.507-1.184.164-2.007-.349-2.21-1.442l-.074-.22c-.01-.196-.1-.282-.205-.268-.104.014-.182.09-.378.283-1.473 1.62-2.62 2.62-3.978 2.807-2.044.282-3.237-1.367-2.944-3.76-.545.841-1.119 1.64-1.63 2.228-1.604 1.836-2.91 3.002-4.128 3.17-1.637.226-2.492-.978-2.217-3.124.125-.973.475-2.11 1.07-3.543a65.553 65.553 0 012.49-5.023c.715-1.318 1.401-2.808 1.5-3.316.087-.407.13-.48.43-.685.378-.283 1.133-.61 1.588-.648 1.158-.094 2.69.773 1.69 2.568l-.396.681c-.052.139-.747 1.432-1.146 2.146-.734 1.189-1.68 2.967-2.278 4.17-.365.71-.538 1.261-.59 1.663-.034.269.049.423.258.393.278-.038.691-.326 1.2-.824.517-.566.838-.94 1.998-2.517l.412-.551c.328-.451 2.979-4.013 3.76-4.89 2.13-2.625 4.536-4.484 6.074-4.696zm.229 3.153l-.091.008c-.487.066-1.561.973-2.581 2.268-1.504 1.855-3.517 5.598-3.675 6.838-.065.504.132.84.48.791.557-.077 1.522-.935 2.551-2.296 1.39-1.774 3.546-5.833 3.688-6.94.065-.503-.08-.714-.463-.661zM24.08 6.829c-2.782 3.774-5.768 8.582-8.468 13.378 1.565-.379 3.089-.712 4.53-1.004 1.161-4.44 2.554-8.988 3.939-12.374zm42.444 0c-2.771 3.757-5.743 8.54-8.435 13.317 1.572-.373 3.087-.694 4.504-.969 1.159-4.432 2.549-8.968 3.93-12.348zm-32.025 3.228c1.332-.25 2.329.585 2.227 1.863-.102 1.277-1.265 2.514-2.596 2.762-1.332.248-2.33-.586-2.227-1.863.102-1.278 1.264-2.515 2.596-2.762zm52.625-1.809c1.332-.248 2.328.586 2.226 1.864-.101 1.277-1.264 2.514-2.596 2.762-1.331.248-2.328-.586-2.226-1.863.101-1.278 1.264-2.515 2.596-2.763z" fill="#EB0D06" fill-rule="evenodd"/></svg>