<svg width="131" height="56" xmlns="http://www.w3.org/2000/svg" xmlns:xlink="http://www.w3.org/1999/xlink"><defs><path id="a" d="M.79.663h56.609v18.41H.79z"/></defs><g fill="none" fill-rule="evenodd"><path d="M82.33 15.516l-.174.097.383.029c.49.025.975.089 1.454.191.77.167 1.662.415 2.608.677.832.228 2.635.696 2.635.696l-.642-5.571 2.989-3.142S86.328 7.082 84.9 7.082h-.041L83 15.146l-.672.37zM40.935 17.067s1.803-.47 2.635-.697c.947-.263 1.839-.511 2.607-.676.479-.1.964-.164 1.452-.191l.386-.028-.174-.096-.672-.386-1.857-8.062h-.04c-1.43 0-6.683 1.408-6.683 1.408l2.989 3.156-.643 5.572zM48.186 14.044l.078-.083c.487-.701 9.658-1.907 17.006-1.803 7.335-.102 15.972.944 16.647 1.597l.172.134.199-.913c.017-.093 1.782-8.27 1.895-8.754a.404.404 0 00-.027-.282c-.391-.502-2.662-1.111-5.833-1.686a75.322 75.322 0 00-13.055-1.206c-10.061 0-18.443 1.8-19.158 2.723a.394.394 0 00-.106.225c.113.487 2.108 9.728 2.125 9.823l.057.225z" fill="#077954"/><path fill="#FFF" d="M46.921 30.428l-1.1 9.792 2.5-.01-1.312-9.782zM21.752 33.479c-.248 2.705-.78 8.114-.78 8.114h1.845s-.703-5.506-1.015-8.114h-.05z"/><path d="M10.462 29.312a169.46 169.46 0 00-4.76 1.699v17.423l4.553-.02-.045-6.588.32-.038c3.852-.412 6.203-2.778 6.14-7.594-.063-4.866-2.424-6.205-6.208-4.882m.343 8.754l-.62.117c-.012-1.515-.023-3.03-.032-4.546l.618-.162c1.127-.302 1.618.405 1.631 1.776.014 1.37-.47 2.605-1.597 2.815M34.087 23.008c-1.64.297-4.91.974-4.91.974l.035 24.36h4.677v-8.76l.413-.03c3.853-.4 6.806-3.11 6.738-9.106-.07-6.065-3.054-8.17-6.953-7.438m-.189 11.465c-.02-2.01 0-6.067 0-6.067s.34-.067.548-.097c1.147-.164 2.022.678 2.012 2.597 0 2.44-.466 3.39-2.56 3.567M112.8 26.643c-.15 1.479-.347 3.032-.498 4.535.62.11 1.24.222 1.857.336.34-1.407.74-2.795 1.076-4.134-.803-.241-1.625-.511-2.435-.737M107.717 25.313l-.047-.014v11.612c-1.163-4.37-2.452-7.937-3.779-12.438-.075 0-.152-.019-.226-.03l-4.147-.888v14.438c-.052 3.357-.104 6.746-.155 10.33h4.442V36.091c1.127 4.2 2.602 8.288 3.69 12.245H111.534V26.3l-.119-.03c-1.38-.36-2.254-.589-3.699-.957M93.254 22.546v9.637h-3.446v-10.05l-.588-.08-3.71-.507-.584-.082v.277a884.637 884.637 0 000 13.239V48.3h4.877v-9.896h3.453V48.3h4.71l.001-25.007-.104-.016c-1.578-.273-4.609-.732-4.609-.732M120.391 35.98c-.739-.787-1.177-1.448-1.177-2 0-.608.226-1.141.92-1.104.817.044.95 1.066.987 1.739 0 .15.021.307.03.45h4.104c-.126-3.605-1.445-5.823-4.61-6.46-3.015-.603-5.906.757-5.954 4.509-.029 2.313.994 4.382 2.705 6.063.775.773 1.553 1.524 2.331 2.254.743.695 1.127 1.18 1.112 1.69 0 .623-.335 1.128-1.025 1.128-.83 0-1.199-.843-1.235-1.55a23.619 23.619 0 01-.027-.914h-4.125v.615c-.05 3.818 2.092 6.205 5.223 6.205 3.658 0 5.69-2.31 5.684-5.41 0-1.831-1.055-3.245-2.662-4.874a89.263 89.263 0 01-2.28-2.34M19.345 26.339a1117.67 1117.67 0 01-3.59 22.052l4.555-.013a899.3 899.3 0 01.264-2.664h2.688s.226 1.737.331 2.653h4.704a1834.447 1834.447 0 00-4.093-23.288 169.04 169.04 0 00-4.859 1.26zm1.627 15.254s.532-5.41.78-8.114h.05c.313 2.609 1.016 8.114 1.016 8.114h-1.846zM43.708 21.784c-1.276 9.104-2.533 17.776-3.782 26.544h5.094l.278-3.21h3.367s.227 2.13.346 3.213h5.183a3019.367 3019.367 0 00-4.133-27.205c-1.712.187-4.61.473-6.353.658zm2.114 18.438l1.1-9.794h.088l1.31 9.782-2.498.012zM76.837 20.603c-3.689-.128-6.579 2.824-6.593 7.947l-.038 11.868c-.015 5.083 3.036 8.216 6.66 8.209 3.624-.006 6.388-3.277 6.44-8.221.04-3.862.052-7.515.092-11.376.052-4.983-2.369-8.283-6.56-8.427zm1.2 21.342c0 .622-.506 1.127-1.128 1.127h-.203a1.128 1.128 0 01-1.127-1.127V27.272c0-.622.505-1.127 1.127-1.127h.203c.622 0 1.127.505 1.127 1.127v14.673zM63.84 40.705v1.77a.819.819 0 01-.678.804.6.6 0 01-.06 0h-.133a.82.82 0 01-.817-.816V39.68c-1.392 0-3.119.024-4.507.045v2.91c0 3.508 2.143 5.921 5.348 5.921.275 0 .547-.019.82-.055 3.505-.255 4.958-2.58 4.958-7.84l.033-20.142-4.965-.009v20.195z" fill="#DF2A27"/><path d="M54.936 10.717l-.345-2.784.539-.065c1.379-.17 2.279-1.084 2.117-2.396-.163-1.312-1.236-1.9-2.615-1.73l-2.047.252.855 6.91 1.496-.187zm-.162-5.765c.534-.066.922.176.985.694.006.03.009.06.012.09a.863.863 0 01-.785.933l-.536.066-.212-1.718.536-.065zM60.172 10.172l-.406-6.95-1.512.089.407 6.95zM61.713 10.066l4.387-.05-.014-1.24-2.664.032 2.535-4.801-.01-.953-4.234.05.016 1.239 2.48-.03-2.507 4.72zM71.885 8.977l-2.659-.133 2.831-4.637.047-.95-4.229-.212-.06 1.237 2.467.126-2.792 4.558-.05 1.032 4.384.216zM74.777 9.717l1.4.18.05.863 1.569.199-.71-7.11-1.513-.193-2.561 6.694 1.5.192.265-.825zm1.222-3.69h.022l.129 2.739-1.008-.13.857-2.61z" fill="#FFF"/><path d="M96.074 13.136h.064a2.049 2.049 0 002.012-2.085v-.018a2.09 2.09 0 10-2.076 2.103m0-3.872h.092a1.725 1.725 0 011.66 1.787l-.001.036a1.787 1.787 0 11-1.751-1.823" fill="#077954"/><path d="M95.822 11.188h.354c.173 0 .246.115.246.275v.24c0 .231.094.303.369.303l.093.01v-.253c-.073 0-.102-.023-.102-.08v-.227a.367.367 0 00-.324-.392c.23-.043.31-.178.31-.403v-.059c0-.31-.143-.514-.556-.514h-.752v1.895h.362v-.795zm0-.818h.36a.2.2 0 01.226.225v.088a.226.226 0 01-.255.259h-.331v-.572zM125.595 24.416c-5.925-3.413-16.82-6.857-26.232-9.074-3.47-.817-6.744-1.472-9.485-1.89l.187 1.56c2.708.423 5.913 1.071 9.298 1.874 9.213 2.184 19.793 5.54 25.558 8.864 3.548 2.044 4.037 3.111 4.037 8.772v14.94h-.013c0 .943-.102 2.308-.992 3.25-1.042 1.1-2.503 1.1-4.526 1.098H6.96c-2.029 0-3.484 0-4.526-1.099-.89-.94-.992-2.306-.992-3.25V34.522c0-5.66.49-6.728 4.037-8.772 4.856-2.799 13.131-5.624 21.126-7.75 4.894-1.303 9.684-2.344 13.52-2.956l-.31 2.58-.086.785.01-.002.714-6.09-.14 1.173c-3.855.598-8.716 1.643-13.708 2.961-8.225 2.172-16.803 5.086-21.82 7.974C.468 26.905 0 28.671 0 34.531v14.94c0 1.214.146 2.981 1.412 4.322 1.461 1.544 3.352 1.544 5.543 1.544h116.472c2.19 0 4.08 0 5.54-1.544 1.267-1.34 1.413-3.108 1.413-4.323V34.522c0-5.86-.469-7.618-4.785-10.106" fill="#077954"/><g transform="translate(36 -.663)"><mask id="b" fill="#fff"><use xlink:href="#a"/></mask><path d="M50.601 17.172c-.946-.26-1.839-.509-2.607-.676a9.38 9.38 0 00-1.455-.192l-.382-.029.173-.097.671-.369 1.858-8.065h.041c1.429 0 6.682 1.411 6.682 1.411l-2.989 3.142.643 5.572s-1.803-.469-2.635-.697zm-4.512-2.62l-.172-.134c-.675-.654-9.312-1.7-16.647-1.598-7.348-.104-16.519 1.102-17.006 1.803l-.078.083-.057-.225c-.017-.095-2.012-9.336-2.125-9.823a.394.394 0 01.106-.225c.715-.922 9.096-2.722 19.158-2.722 4.378.021 8.746.424 13.055 1.205 3.171.575 5.442 1.184 5.833 1.686a.405.405 0 01.027.282c-.113.484-1.878 8.662-1.895 8.754l-.199.913zm-34.46 1.613a9.867 9.867 0 00-1.452.191c-.768.165-1.66.413-2.607.676-.832.228-2.635.697-2.635.697l.643-5.572-2.989-3.155s5.253-1.409 6.683-1.409h.04l1.857 8.062.672.386.174.096-.386.028zm42.249-2.05l-.1-.844-.005-.04.005.04-.091-.766 3.214-3.413.498-.577-.843-.266c-.226-.063-5.662-1.537-7.47-1.578l.411-2.177a.601.601 0 00-.149-.48C48.581 2.97 40.578.662 29.099.662 17.762.662 9.47 2.8 8.688 3.74a.525.525 0 00-.136.451L9.1 6.67c-1.803.051-7.232 1.523-7.469 1.577L.79 8.51l.509.584 3.212 3.411-.057.475-.716 6.09.726-.18c.676-.167 1.422-.39 2.215-.627 1.838-.546 3.92-1.163 5.378-1.163.012 0 1.093-.023 2.159-.115.375-.034.577-.142.622-.33.122-.502-1.127-1.354-1.451-1.554.203-.178 1.46-.414 3.283-.64 1.161-.129 2.234-.242 3.224-.339 2.878-.253 6.264-.44 9.205-.426h.281c6.474 0 14.942.927 15.438 1.4-.321.205-1.578 1.055-1.459 1.558.046.19.248.297.623.331 1.065.092 2.147.115 2.161.115 1.456 0 3.538.617 5.375 1.163.794.225 1.544.451 2.214.627l.736.182-.404-3.399h.001l-.187-1.558z" fill="#DF2A27" mask="url(#b)"/></g></g></svg>