<svg width="181" height="49" xmlns="http://www.w3.org/2000/svg" xmlns:xlink="http://www.w3.org/1999/xlink"><defs><path id="a" d="M0 48.53h180.53V.086H0z"/></defs><g fill="none" fill-rule="evenodd"><path fill="#FEFEFE" d="M0 48.695h48.438V.255H0z"/><path fill="#2A2422" d="M.605 48.089h47.228V.86H.605z"/><g transform="translate(0 .165)"><path d="M13.149 32.355v.683c0 .838-.199 1.376-.62 1.812-.522.538-1.54.958-3.604.958-2.35 0-3.295-.505-3.842-1.07-.471-.486-.753-1.179-.753-2.059 0-.82.249-1.547.753-2.068.547-.565 1.641-1.06 3.842-1.06 1.756 0 3.114.316 3.818.683v1.215c-.837-.471-2.219-.83-3.818-.83-1.606 0-2.459.3-2.839.692-.307.316-.464.753-.464 1.368 0 .65.174 1.078.464 1.376.38.394 1.085.717 2.84.717 1.391 0 2.269-.255 2.6-.597.223-.23.306-.461.306-.761h-3.56v-1.06h4.877zM20.496 34.397a.578.578 0 00.157-.42c0-.178-.041-.315-.14-.418-.183-.187-.522-.264-2.568-.376-2.31-.12-3.014-.316-3.41-.726-.233-.24-.332-.573-.332-1 0-.436.091-.846.405-1.171.405-.419 1.202-.71 3.239-.71 1.614 0 2.831.24 3.6.555v1.12c-.876-.384-2.333-.666-3.6-.666-1.582 0-2.037.154-2.23.35a.557.557 0 00-.14.403c0 .153.042.281.126.366.173.18.562.283 2.45.377 2.443.128 3.122.316 3.52.726.231.24.356.607.356 1.034 0 .445-.092.855-.406 1.18-.413.427-1.234.76-3.404.76-1.606 0-3.18-.264-4.074-.666v-1.12c.862.428 2.692.778 4.074.778 1.624 0 2.145-.136 2.377-.376M33.135 35.67h-1.181v-5.007L28.86 35.67h-1.6l-3.092-5.008v5.008h-1.174v-5.983h1.928l3.163 5.162 3.169-5.162h1.88zM36.822 33.2h3.558l-1.783-2.795-1.775 2.796zm2.651-3.547l3.911 6.018h-1.43l-.9-1.41h-4.906l-.9 1.41h-1.374l3.912-6.018h1.687zM42.013 29.868h-.392v-.218h1.003v.218h-.392v1.126h-.219zM42.854 29.65h.23l.377.635.377-.635h.232v1.344h-.219v-.964l-.39.634h-.007l-.387-.631v.96h-.213z" fill="#FEFEFE"/><mask id="b" fill="#fff"><use xlink:href="#a"/></mask><path fill="#851919" mask="url(#b)" d="M4.515 26.623h4.17v-4.918h-4.17z"/><path fill="#AF1F24" mask="url(#b)" d="M10.252 26.622h6.254v-7.374h-6.254z"/><path fill="#D22027" mask="url(#b)" d="M18.073 26.623h9.37V15.56h-9.37z"/><path fill="#E11F26" mask="url(#b)" d="M29.201 26.623H43.07V10.031H29.2z"/><path fill="#2A2422" mask="url(#b)" d="M55.062.694h8.919l7.266 11.791L78.513.695h8.919v30.454h-8.397V13.66l-7.788 11.922h-.174l-7.744-11.834v17.402h-8.267zM90.78.694h8.919l5.308 17.621L110.88.607h7.265l5.874 17.708 5.307-17.62h8.745l-10.18 30.672h-7.353l-6.135-17.533-6.09 17.533h-7.353zM138.636 16.009v-.087c0-8.875 6.83-15.836 16.054-15.836 6.222 0 10.224 2.61 12.922 6.351l-6.352 4.917c-1.74-2.176-3.742-3.568-6.657-3.568-4.264 0-7.266 3.611-7.266 8.05v.086c0 4.568 3.002 8.136 7.266 8.136 3.176 0 5.047-1.48 6.874-3.698l6.352 4.524c-2.871 3.96-6.743 6.875-13.487 6.875-8.701 0-15.706-6.657-15.706-15.75"/><path d="M60.342 46.157c1.36 0 2.188-.535 2.188-1.556v-.032c0-.956-.762-1.523-2.334-1.523h-3.16v3.111h3.306zm-.583-4.796c1.28 0 2.139-.503 2.139-1.539v-.033c0-.891-.713-1.442-1.993-1.442h-2.869v3.014h2.723zm-4.683-4.78h5.088c1.296 0 2.317.357 2.965 1.004.502.503.762 1.118.762 1.88v.033c0 1.36-.778 2.09-1.62 2.527 1.328.454 2.252 1.216 2.252 2.755v.032c0 2.026-1.67 3.112-4.197 3.112h-5.25V36.58zM71.83 44.342a5.62 5.62 0 00-1.96-.34c-1.232 0-1.961.502-1.961 1.328v.033c0 .81.729 1.265 1.653 1.265 1.295 0 2.268-.73 2.268-1.8v-.486zm-.049 3.581V46.87c-.583.697-1.474 1.231-2.77 1.231-1.62 0-3.047-.923-3.047-2.64v-.033c0-1.895 1.474-2.803 3.468-2.803 1.037 0 1.701.146 2.365.357v-.163c0-1.182-.745-1.83-2.106-1.83-.956 0-1.67.21-2.447.534l-.535-1.572c.94-.42 1.864-.712 3.258-.712 2.527 0 3.759 1.328 3.759 3.612v5.072H71.78zM76.059 39.368h1.96v1.928c.535-1.28 1.523-2.155 3.03-2.09v2.074h-.113c-1.718 0-2.917 1.118-2.917 3.387v3.256h-1.96v-8.555zM81.989 43.694v-.032c0-2.431 1.88-4.473 4.44-4.473 1.62 0 2.625.6 3.419 1.476l-1.216 1.312c-.6-.632-1.231-1.07-2.22-1.07-1.426 0-2.463 1.232-2.463 2.722v.033c0 1.523 1.054 2.755 2.56 2.755.925 0 1.605-.438 2.22-1.07l1.183 1.167c-.842.94-1.83 1.604-3.5 1.604-2.543 0-4.423-1.993-4.423-4.424M97.333 43.046c-.13-1.264-.875-2.252-2.171-2.252-1.2 0-2.041.923-2.22 2.252h4.391zm-6.335.632v-.033c0-2.446 1.734-4.455 4.18-4.455 2.723 0 4.1 2.139 4.1 4.601 0 .178-.016.357-.032.552h-6.288c.211 1.393 1.2 2.17 2.463 2.17.957 0 1.637-.355 2.318-1.02l1.15 1.02c-.81.973-1.928 1.605-3.5 1.605-2.48 0-4.391-1.798-4.391-4.44zM101.368 47.923h1.96V36.095h-1.96zM112.58 43.694v-.032c0-1.507-1.085-2.755-2.625-2.755-1.571 0-2.576 1.232-2.576 2.722v.033c0 1.49 1.085 2.755 2.609 2.755 1.588 0 2.592-1.248 2.592-2.723m-7.162 0v-.032c0-2.447 1.945-4.473 4.57-4.473s4.553 1.994 4.553 4.44v.033c0 2.43-1.944 4.456-4.586 4.456-2.609 0-4.537-1.993-4.537-4.424M116.534 39.368h1.96v1.33c.551-.812 1.345-1.509 2.674-1.509 1.928 0 3.046 1.297 3.046 3.29v5.444h-1.96v-4.86c0-1.33-.665-2.091-1.832-2.091-1.134 0-1.928.794-1.928 2.123v4.828h-1.96v-8.555zM131.862 44.342a5.623 5.623 0 00-1.96-.34c-1.232 0-1.961.502-1.961 1.328v.033c0 .81.729 1.265 1.653 1.265 1.295 0 2.268-.73 2.268-1.8v-.486zm-.048 3.581V46.87c-.584.697-1.475 1.231-2.771 1.231-1.62 0-3.047-.923-3.047-2.64v-.033c0-1.895 1.475-2.803 3.468-2.803 1.037 0 1.701.146 2.365.357v-.163c0-1.182-.745-1.83-2.106-1.83-.956 0-1.669.21-2.447.534l-.535-1.572c.94-.42 1.864-.712 3.258-.712 2.527 0 3.759 1.328 3.759 3.612v5.072h-1.944z" fill="#E11F26" mask="url(#b)"/><path fill="#2A2422" mask="url(#b)" d="M173.12 1.591h-1.333V.704h3.627v.887h-1.332v3.49h-.963zM176.152.704h1.038l1.15 1.85 1.151-1.85h1.038V5.08h-.957V2.223l-1.231 1.87h-.026l-1.219-1.851V5.08h-.944z"/></g></g></svg>