<svg width="911" height="929" xmlns="http://www.w3.org/2000/svg"><g fill="none" fill-rule="evenodd"><path fill="#F8F8F8" d="M0 929h911V0H0z"/><path stroke="#979797" fill="#D8D8D8" d="M593 144h31v222h-31z"/><g fill="#263746" font-family="ProximaNova-Extrabld, Proxima Nova" font-weight="600"><text font-size="30" transform="translate(40 81)"><tspan x="0" y="28">Hall 8.1</tspan></text><text opacity=".6" font-size="20" transform="translate(40 81)"><tspan x="0" y="55">Stand F47</tspan></text></g><path fill="#FF5A00" d="M383 532.875h58.984V497H383z"/><path d="M412.8 505c5.367 0 9.726 4.402 9.8 9.86.073 5.594-4.452 10.214-9.934 10.14-5.352-.076-9.666-4.524-9.666-10 0-5.523 4.388-10 9.8-10zm.002 2.8c-2.468 0-4.59.648-5.67 1.732-1.084 1.084-1.732 3.202-1.732 5.67 0 2.467.648 4.586 1.732 5.67 1.08 1.083 3.202 1.728 5.67 1.728 2.467 0 4.586-.645 5.67-1.729 1.08-1.083 1.728-3.202 1.728-5.67 0-2.467-.648-4.585-1.729-5.67-1.083-1.083-3.202-1.731-5.67-1.731zm.182 1.225l.294.003c1.95.045 3.653.534 4.39 1.271.774.774 1.275 2.614 1.275 4.685 0 1.033-.124 2.012-.348 2.828-.221.816-.54 1.47-.927 1.856-.773.774-2.614 1.275-4.684 1.275-2.071 0-3.908-.501-4.682-1.275-.777-.773-1.274-2.614-1.274-4.684 0-2.071.497-3.911 1.274-4.685.774-.774 2.61-1.274 4.682-1.274zm-.013 2.39l-.242.001c-2.03.034-2.492.492-2.645.648-.163.163-.654.654-.654 2.887s.491 2.724.654 2.887c.16.162.65.653 2.887.653l.24-.002c1.873-.03 2.41-.426 2.604-.61l.061-.06c.176-.182.632-.717.632-2.868 0-2.233-.491-2.724-.65-2.887l-.02-.02c-.182-.178-.717-.63-2.867-.63zm1.361 1.644c.312 0 .564.253.564.567v2.721a.566.566 0 01-.472.56l-.092.007h-2.727a.565.565 0 01-.564-.567v-2.721c0-.314.253-.567.564-.567h2.727z" fill="#FFF"/><path d="M129.355 50.762c1.28 0 2.33.457 3.153 1.39.818.92 1.24 2.104 1.24 3.575 0 1.45-.422 2.636-1.24 3.574-.823.914-1.873 1.376-3.153 1.376-.959 0-1.797-.306-2.545-.899v4.644h-3.359V50.988h2.671l.422.878c.728-.743 1.661-1.104 2.811-1.104zm-19.338-3.755v4.654a3.888 3.888 0 012.536-.893c1.279 0 2.331.457 3.148 1.39.823.917 1.244 2.1 1.244 3.57 0 1.45-.421 2.633-1.244 3.57-.817.913-1.87 1.374-3.148 1.374-1.143 0-2.08-.366-2.802-1.108l-.42.878h-2.673V47.007h3.359zm-9.73 3.705c1.587 0 2.89.459 3.887 1.395 1.017.921 1.516 2.11 1.516 3.585 0 1.455-.499 2.643-1.516 3.584-.996.917-2.3 1.38-3.886 1.38-1.591 0-2.875-.463-3.892-1.38-1.017-.941-1.516-2.13-1.516-3.584 0-1.455.499-2.644 1.516-3.585 1.017-.936 2.3-1.395 3.892-1.395zm-17.306.047c1.125 0 2.021.343 2.726 1.05.706.688 1.049 1.566 1.049 2.655v5.978h-3.359V55c0-.829-.667-1.518-1.496-1.513-1.04.006-1.738.752-1.738 1.877v5.078h-3.359v-9.454h2.67l.42 1.031c.78-.84 1.81-1.26 3.087-1.26zm-8.042.229v9.454H71.58v-9.454h3.359zm46.646 0v9.454h-3.358v-9.454h3.358zM92.67 46.753a8.97 8.97 0 012.347.307l-.42 2.49a6.576 6.576 0 00-1.107-.114c-.61 0-1.011.383-1.011 1.015v.537h1.99v2.488h-1.99v6.966H89.12v-6.966h-1.617v-2.488h1.617v-.882c0-1.015.325-1.82.974-2.433.668-.613 1.526-.92 2.576-.92zm7.619 6.562c-1.153 0-1.959.977-1.959 2.377 0 1.38.806 2.356 1.959 2.356 1.148 0 1.973-.977 1.973-2.356 0-1.4-.825-2.377-1.973-2.377zm28.104.04c-1.017 0-1.707.766-1.707 1.838v.997c0 1.052.69 1.818 1.707 1.818 1.093 0 1.878-.957 1.878-2.316 0-1.38-.785-2.336-1.878-2.336zm-16.668 0c-1.017 0-1.707.766-1.707 1.838v.997c0 1.052.69 1.818 1.707 1.818 1.087 0 1.873-.957 1.873-2.316 0-1.38-.786-2.336-1.873-2.336zm8.2-6.841c1.15 0 1.935.804 1.935 1.935 0 1.092-.785 1.916-1.935 1.916-1.092 0-1.916-.824-1.916-1.916 0-1.13.824-1.935 1.916-1.935zM74.94 46.51v3.358h-3.36V46.51h3.359z" fill="#373A3B"/><path d="M49.176 40c8.313 0 15.063 6.818 15.177 15.27.113 8.663-6.894 15.818-15.384 15.702C40.68 70.856 34 63.968 34 55.486 34 46.934 40.795 40 49.176 40zm.003 4.336c-3.82 0-7.107 1.004-8.78 2.682-1.678 1.679-2.682 4.96-2.682 8.78 0 3.822 1.004 7.103 2.682 8.782 1.673 1.678 4.96 2.677 8.78 2.677 3.821 0 7.103-1 8.781-2.677 1.673-1.679 2.677-4.96 2.677-8.781 0-3.82-1.004-7.102-2.677-8.78-1.678-1.679-4.96-2.683-8.78-2.683zm.282 1.897l.343.003c3.066.053 5.757.815 6.912 1.97 1.199 1.199 1.974 4.048 1.974 7.255 0 1.601-.191 3.117-.539 4.38-.342 1.264-.836 2.276-1.435 2.875-1.198 1.198-4.048 1.974-7.255 1.974s-6.051-.776-7.25-1.974c-1.203-1.198-1.973-4.048-1.973-7.255s.77-6.056 1.974-7.255c1.198-1.198 4.042-1.973 7.25-1.973zm-.02 3.7l-.307.002c-3.202.044-3.924.761-4.163 1.005-.252.252-1.012 1.012-1.012 4.471s.76 4.22 1.012 4.47c.246.252 1.006 1.013 4.47 1.013l.307-.002c3.198-.044 3.92-.766 4.164-1.01.247-.252 1.007-1.012 1.007-4.47 0-3.46-.76-4.22-1.007-4.472-.252-.251-1.012-1.007-4.47-1.007zm2.109 2.548c.482 0 .874.391.874.878v4.214c0 .45-.334.818-.764.871l-.11.007h-4.223a.875.875 0 01-.874-.878V53.36c0-.487.392-.878.874-.878h4.223z" fill="#FF5A00"/><path fill="#E8E8E8" d="M337.959 739.048v22.766h41.027v7.005H337.96v32.772h103.57v-62.543h-62.543zm-46.533-.028v62.571h32.772V739.02h-16.385zm91.696-80.865v67.958h58.84v-67.958h-31.703zm-45.163 36.255v31.703h31.702v-67.958H337.96zm-46.533-36.255v67.959h33.633v-51.416h-13.263v13.263h-7.107v-16.543h20.37v-13.263h-20.37zm91.696-17.52h58.84v-36.351h-58.84zm-13.46-22.533v-12.967h-77.883v34.65h77.882zm0-54.789v-17.325h-77.883v34.65h77.883zm13.548-17.325v44.867h58.752v-44.867h-31.567zM329.397 523.7h40.265v-27.148h-78.565V523.7h20.592zm135.197 277.891h63.031v-39.777h-63.031zm75.909 0h75.08v-39.777h-75.08zm-75.909-54.377h63.031v-39.777h-63.031zm75.909 0h75.08v-39.777h-75.08zm-75.909-52.626h63.031v-36.432h-63.031zm75.909 0h75.08v-36.432h-75.08zm-75.909-53.913h63.031v-36.432h-63.031zm75.909 0h75.08v-36.432h-75.08zm-75.909-49.593h150.989v-40.481H464.594zm0-53.928h132.387v-40.481H464.594zm75.909-58.393h75.08v-31.614h-75.08zm-75.909 0h62.819v-89.583h-62.819zm0-107.796h56.445v-35.54h-56.445zm.001-49.567h62.819v-54.42h-62.819zm-92.425 0h69.303v-58.674H372.17zm11.04 49.567h58.263v-35.54H383.21zm0 67.361h58.263v-49.148H383.21zm-91.799 4.857h78.251v-54.005h-78.251zm34.063-72.218h44.188v-35.54h-44.188zm-34.063-47.316h26.881v-56.671h-26.881zm0-73.475h150.062v-28.335H291.411zm40.38 73.475h26.881v-56.671h-26.881zm51.419 155.112h58.263v-26.936H383.21zm157.293-42.538h75.08V259.958h-75.08zM417.09 183.964H291.41v36.047h152.284v-15.685h-6.73zm48.431 66.21h150.062v-28.335H465.521zm4.509-45.849h-6.73v15.686h152.284v-36.048h-125.68zm-178.62-63.743v21.062h125.68l19.875-21.062h6.73V125.7H291.41zm171.89-14.883v14.883h6.73l19.874 21.063h125.68v-35.946z"/><text font-family="FSElliotPro-Bold, FS Elliot Pro" font-size="15" font-weight="bold" fill="#FF5A00"><tspan x="675" y="259">ENTRANCE</tspan></text><text font-family="FSElliotPro-Bold, FS Elliot Pro" font-size="15" font-weight="bold" fill="#FF5A00"><tspan x="675" y="548">ENTRANCE</tspan></text><path d="M639.476 255.928l6.357 6.356c.564.562 1.545.563 2.106 0a1.48 1.48 0 00.436-1.053c0-.397-.155-.772-.436-1.053l-3.837-3.836h16.26a1.49 1.49 0 000-2.978h-16.259l3.836-3.835a1.48 1.48 0 00.436-1.054 1.48 1.48 0 00-.436-1.053c-.564-.564-1.546-.561-2.105 0l-6.416 6.417a1.475 1.475 0 00-.418.986c-.013.64.411 1.042.476 1.103m0 288.999l6.357 6.357c.564.562 1.545.562 2.106 0a1.48 1.48 0 00.436-1.054c0-.397-.155-.77-.436-1.053l-3.837-3.835h16.26a1.49 1.49 0 001.49-1.489 1.49 1.49 0 00-1.49-1.489h-16.259l3.836-3.836a1.48 1.48 0 00.436-1.054c0-.397-.155-.77-.436-1.052-.564-.564-1.546-.562-2.105 0l-6.416 6.416a1.478 1.478 0 00-.418.986c-.013.641.411 1.042.476 1.103" fill="#FF5A00"/><text font-family="FSElliotPro-Bold, FS Elliot Pro" font-size="15" font-weight="bold" fill="#FF5A00"><tspan x="413" y="865">ENTRANCE</tspan></text><path d="M452.474 815.456l-6.07 6.071c-.538.538-.538 1.476 0 2.01a1.416 1.416 0 002.011.001l3.663-3.665v15.53c0 .784.637 1.422 1.421 1.422.785 0 1.422-.638 1.422-1.422v-15.53l3.664 3.665c.27.27.627.417 1.007.417.38 0 .736-.148 1.005-.417.538-.538.536-1.476.001-2.01l-6.128-6.128a1.418 1.418 0 00-.942-.4c-.612-.012-.996.393-1.054.456" fill="#FF5A00"/></g></svg>