<svg width="131" height="56" xmlns="http://www.w3.org/2000/svg" xmlns:xlink="http://www.w3.org/1999/xlink"><defs><path id="a" d="M0 .108h130.38v55.338H0z"/></defs><g fill="none" fill-rule="evenodd"><g transform="translate(0 .117)"><mask id="b" fill="#fff"><use xlink:href="#a"/></mask><path d="M128.958 49.57h-.013c0 .944-.102 2.308-.992 3.25-1.041 1.1-2.502 1.1-4.526 1.098H6.96c-2.028 0-3.484 0-4.526-1.098-.89-.942-.992-2.306-.992-3.25V34.63c0-5.66.49-6.727 4.037-8.771 7.83-4.514 24.546-9.096 34.647-10.706l-.311 2.578-.086.787.735-.183c.676-.166 1.422-.39 2.216-.626 1.837-.546 3.92-1.163 5.377-1.163.011 0 1.093-.023 2.16-.115.374-.034.577-.142.622-.332.121-.5-1.127-1.352-1.452-1.552.203-.178 1.46-.414 3.284-.642 1.16-.128 2.232-.24 3.223-.337 2.878-.254 6.264-.44 9.205-.426h.282c6.473 0 14.94.927 15.436 1.4-.32.205-1.577 1.055-1.458 1.557.045.19.248.298.622.332 1.067.092 2.148.115 2.162.115 1.456 0 3.538.617 5.375 1.163.794.225 1.544.45 2.214.626l.737.183-.405-3.399c10.08 1.58 26.974 6.194 34.858 10.74 3.547 2.044 4.036 3.11 4.036 8.772V49.57zM38.588 8.448s5.254-1.41 6.684-1.41h.04l1.857 8.063.672.385.174.097-.386.027a9.837 9.837 0 00-1.451.192c-.769.164-1.661.412-2.608.676-.832.228-2.635.697-2.635.697l.643-5.572-2.99-3.155zm7.522-4.57c.715-.92 9.097-2.722 19.158-2.722 4.378.022 8.747.425 13.055 1.206 3.17.575 5.443 1.183 5.833 1.686a.4.4 0 01.027.282c-.113.484-1.878 8.661-1.896 8.754l-.198.913-.171-.133c-.677-.654-9.313-1.7-16.648-1.598-7.348-.104-16.518 1.102-17.005 1.803l-.08.083-.055-.225c-.018-.095-2.013-9.336-2.126-9.823a.397.397 0 01.106-.225zM84.9 7.19c1.428 0 6.682 1.41 6.682 1.41l-2.989 3.143.643 5.572s-1.803-.47-2.635-.697c-.946-.261-1.84-.51-2.608-.676a9.283 9.283 0 00-1.453-.192l-.384-.03.174-.096.672-.37 1.857-8.064h.04zm40.695 17.334c-8.11-4.67-25.542-9.412-35.717-10.964l-.191-1.61L92.9 8.538l.498-.577-.843-.266c-.226-.063-5.662-1.537-7.47-1.578l.41-2.177a.599.599 0 00-.148-.48C84.581 2.416 76.578.108 65.099.108c-11.337 0-19.63 2.137-20.411 3.077a.523.523 0 00-.135.45l.547 2.48c-1.803.052-7.232 1.523-7.469 1.577l-.841.264.51.584 3.211 3.41-.198 1.649C30.109 15.18 12.847 19.892 4.785 24.534.469 27.013 0 28.78 0 34.64v14.939c0 1.215.146 2.982 1.413 4.323 1.46 1.544 3.352 1.544 5.543 1.544h116.471c2.189 0 4.08 0 5.54-1.544 1.267-1.341 1.414-3.108 1.414-4.323V34.63c0-5.86-.47-7.618-4.786-10.107z" fill="#000" mask="url(#b)"/></g><path d="M10.805 38.291l-.62.118c-.012-1.515-.022-3.03-.031-4.547l.617-.162c1.127-.302 1.619.406 1.632 1.776.014 1.37-.471 2.606-1.598 2.815m-.343-8.754c-1.594.543-3.18 1.11-4.76 1.7v17.422l4.553-.02-.045-6.588.32-.038c3.852-.41 6.203-2.778 6.14-7.594-.063-4.866-2.423-6.205-6.208-4.882M33.898 34.699c-.02-2.01 0-6.068 0-6.068s.34-.068.548-.097c1.148-.164 2.022.679 2.013 2.597 0 2.44-.467 3.39-2.56 3.568m.189-11.466c-1.64.298-4.911.974-4.911.974l.036 24.36h4.677v-8.759l.412-.03c3.854-.4 6.807-3.11 6.739-9.107-.072-6.065-3.054-8.17-6.953-7.438M112.8 26.868c-.15 1.48-.347 3.032-.498 4.535.62.11 1.24.222 1.857.336.34-1.406.74-2.795 1.075-4.133-.802-.242-1.625-.512-2.434-.738M107.718 25.539l-.048-.014v11.612c-1.163-4.37-2.452-7.938-3.78-12.439-.074 0-.15-.018-.225-.03l-4.147-.887v14.438c-.052 3.356-.104 6.746-.155 10.33h4.442V36.317c1.127 4.199 2.603 8.287 3.69 12.245H111.535V26.526l-.119-.032c-1.379-.358-2.253-.588-3.698-.955M93.255 22.771v9.638h-3.447v-10.05l-.588-.08-3.71-.509-.584-.08v.276a890.238 890.238 0 000 13.24v13.32h4.878V38.63h3.453v9.897h4.708l.002-25.007-.103-.015c-1.578-.273-4.61-.733-4.61-.733M120.391 36.206c-.739-.788-1.176-1.449-1.176-2.001 0-.609.225-1.14.92-1.104.815.045.948 1.066.987 1.74 0 .15.02.306.029.45h4.104c-.126-3.606-1.445-5.824-4.611-6.46-3.014-.603-5.905.756-5.953 4.508-.03 2.313.994 4.382 2.705 6.064a108.93 108.93 0 002.33 2.253c.744.695 1.128 1.181 1.114 1.69 0 .623-.336 1.128-1.026 1.128-.831 0-1.199-.843-1.235-1.549a22.726 22.726 0 01-.027-.915h-4.125v.615c-.05 3.819 2.092 6.206 5.223 6.206 3.658 0 5.69-2.31 5.684-5.41 0-1.832-1.055-3.246-2.662-4.875a89.158 89.158 0 01-2.28-2.34M20.972 41.819s.532-5.41.78-8.114h.05c.313 2.607 1.016 8.114 1.016 8.114h-1.846zm-1.627-15.255a1119.537 1119.537 0 01-3.59 22.052l4.555-.013c.085-.884.263-2.664.263-2.664h2.69s.225 1.737.33 2.653h4.705a1854.958 1854.958 0 00-4.094-23.288c-1.624.395-3.244.816-4.859 1.26zM45.822 40.446l1.1-9.793h.087l1.312 9.782-2.5.01zm-2.115-18.437c-1.275 9.104-2.533 17.777-3.782 26.544h5.096l.278-3.21h3.367s.225 2.13.345 3.212h5.184a3004.129 3004.129 0 00-4.134-27.204c-1.713.187-4.61.473-6.354.658zM78.036 42.17c0 .623-.504 1.127-1.127 1.127h-.202a1.127 1.127 0 01-1.127-1.127V27.497c0-.622.504-1.127 1.127-1.127h.202c.623 0 1.127.505 1.127 1.127V42.17zm-1.199-21.342c-3.69-.128-6.579 2.824-6.592 7.947-.014 3.957-.027 7.913-.039 11.87-.016 5.082 3.036 8.215 6.66 8.208 3.625-.007 6.388-3.277 6.44-8.222.04-3.861.052-7.515.092-11.376.052-4.983-2.369-8.283-6.56-8.427zM63.839 40.93v1.77a.818.818 0 01-.676.805.548.548 0 01-.061 0h-.133a.818.818 0 01-.816-.816v-2.784c-1.393 0-3.12.025-4.507.045v2.91c0 3.51 2.143 5.92 5.348 5.92.274 0 .547-.018.818-.053 3.507-.255 4.959-2.58 4.959-7.841l.033-20.141-4.965-.01v20.196zM54.774 5.177c.534-.065.922.176.985.694a.863.863 0 01-.773 1.023l-.536.066-.213-1.717.537-.066zm.162 5.766l-.345-2.784.539-.065c1.38-.172 2.279-1.084 2.116-2.396-.162-1.312-1.235-1.9-2.614-1.731l-2.047.252.855 6.91 1.496-.186zM60.172 10.397l-.406-6.949-1.512.088.408 6.951zM61.714 10.291l4.386-.05-.014-1.239-2.664.032 2.536-4.801-.012-.954-4.232.05.015 1.24 2.48-.03-2.507 4.72zM71.885 9.203l-2.66-.133 2.832-4.637.047-.95-4.228-.213-.061 1.238 2.468.126-2.793 4.557-.051 1.033 4.386.216zM75.999 6.252h.022l.129 2.739-1.008-.129.857-2.61zm-1.222 3.69l1.4.18.05.863 1.568.199-.71-7.109-1.512-.194-2.56 6.694 1.5.192.264-.825zM96.074 9.489h.092a1.725 1.725 0 011.66 1.787v.036a1.787 1.787 0 11-1.752-1.823m0 3.872h.064a2.049 2.049 0 002.012-2.085v-.018a2.09 2.09 0 10-2.076 2.103" fill="#000"/><path d="M95.822 10.595h.36a.2.2 0 01.225.225v.089a.226.226 0 01-.255.26l-.33-.001v-.573zm0 .819h.354c.173 0 .245.115.245.275v.239c0 .232.095.304.37.304l.092.009v-.253c-.072 0-.101-.022-.101-.08v-.226a.367.367 0 00-.325-.392c.232-.043.311-.178.311-.404v-.058c0-.311-.144-.514-.556-.514h-.753v1.895h.363v-.795z" fill="#000"/></g></svg>