<svg width="159" height="26" xmlns="http://www.w3.org/2000/svg"><path d="M112.899 6.613l.275.001a9.049 9.049 0 015.875 2.14v-1.66l4.651-.009v18.399h-4.65v-1.665a9.027 9.027 0 01-5.876 2.14 8.499 8.499 0 01-.407 0c-5.341-.113-9.58-4.534-9.468-9.876.113-5.341 4.534-9.58 9.875-9.469zm36.23-.007c5.613 0 8.382 2.541 8.633 6.392h-4.637c-.429-2.044-2.068-2.64-4.28-2.64-2.04 0-3.148.68-3.148 1.789 0 .855.723 1.284 3.02 1.711l3.959.81c3.743.812 5.532 2.687 5.532 5.198 0 3.526-3.021 6.093-8.382 6.093-5.79 0-8.639-2.555-9.32-6.397h4.664c.595 2.045 2.127 2.64 4.805 2.64 2.13 0 3.449-.722 3.449-1.874 0-.723-.466-1.194-2.212-1.536l-4.424-1.022c-4.043-.853-5.918-2.598-5.918-5.28 0-3.881 3.406-5.884 8.258-5.884zM27.55.565V9.64a9.034 9.034 0 016.417-2.683c.144-.003.278-.003.412 0 5.236.111 9.389 4.446 9.278 9.681-.111 5.235-4.446 9.388-9.681 9.279a9.183 9.183 0 01-6.47-2.727v2.302h-3.53V.565h3.574zm27.011 6.392c5.212 0 9.062 4.048 9.062 9.46l.01 1.168H48.907a6.084 6.084 0 005.99 5.194 6.326 6.326 0 005.238-2.64l2.592 1.9a9.487 9.487 0 01-7.83 3.878c-5.441 0-9.613-4.092-9.613-9.5l-.001-.056a9.34 9.34 0 019.277-9.404zM4.753.565v15.402c0 3.983 2.567 6.586 6.067 6.586 3.448 0 6.127-2.645 6.127-6.607V.565h3.7v24.927H16.99v-2.357a9.078 9.078 0 01-6.593 2.768c-5.318 0-9.413-3.876-9.413-9.755V.565h3.77zm96.779 0v4.278H88.769v6.076h12.408v4.133H88.77v6.178h12.763v4.28H84.045V.565h17.487zM73.874 7.214h1.285v3.324h-1.494c-2.34 0-4 1.832-4 4.643v10.311h-3.573V7.342h3.53v2.216a4.785 4.785 0 014.252-2.344zm60.053-5.37v5.241h5.232v4.176h-5.232v8.605c0 .98.68 1.45 1.745 1.45h3.487v4.176h-5.019c-3.15 0-4.895-1.96-4.895-4.432V11.26h-3.53V7.085h3.547V1.844h4.665zm-100.276 8.31a6.285 6.285 0 00.06 12.57v-.017h.026a6.239 6.239 0 006.229-6.247v-.05a6.286 6.286 0 00-6.315-6.257zm79.78.514a5.626 5.626 0 10.128 11.252l-.008-.009h.06a5.562 5.562 0 005.51-5.613v-.068a5.625 5.625 0 00-5.69-5.562zm-58.913-.557c-2.683 0-4.895 1.874-5.532 4.641h11.022c-.6-2.767-2.807-4.641-5.49-4.641z" fill="#241F20" fill-rule="evenodd"/></svg>